<?xml version="1.0" encoding="UTF-8" standalone="no"?>
<!-- Generator: Gravit.io -->
<svg xmlns="http://www.w3.org/2000/svg" xmlns:xlink="http://www.w3.org/1999/xlink" style="isolation:isolate" viewBox="0 0 200 200" width="200pt" height="200pt"><defs><clipPath id="_clipPath_oSv5frqQfKT8KlU7D3esh91DDOEA8LsG"><rect width="200" height="200"/></clipPath></defs><g clip-path="url(#_clipPath_oSv5frqQfKT8KlU7D3esh91DDOEA8LsG)"><path d=" M 77.718 122.64 C 79.253 122.64 80.71 122.503 82.082 122.195 C 83.472 121.891 84.706 121.408 85.748 120.694 C 86.789 120.01 87.65 119.071 88.276 117.874 C 88.906 116.69 89.207 115.155 89.207 113.293 C 89.207 109.651 88.182 107.066 86.145 105.494 C 84.103 103.948 81.379 103.178 78.029 103.178 L 61.112 103.178 L 61.112 122.64 L 77.718 122.64 L 77.718 122.64 L 77.718 122.64 L 77.718 122.64 L 77.718 122.64 L 77.718 122.64 L 77.718 122.64 L 77.718 122.64 Z  M 76.859 92.553 C 79.615 92.553 81.899 91.9 83.705 90.572 C 85.495 89.265 86.365 87.107 86.365 84.144 C 86.365 82.499 86.075 81.141 85.495 80.086 C 84.897 79.032 84.103 78.205 83.099 77.628 C 82.103 77.027 80.979 76.611 79.672 76.386 C 78.391 76.136 77.047 76.037 75.67 76.037 L 61.112 76.037 L 61.112 92.553 L 76.859 92.553 L 76.859 92.553 L 76.859 92.553 L 76.859 92.553 L 76.859 92.553 L 76.859 92.553 L 76.859 92.553 L 76.859 92.553 Z  M 143.065 95.515 C 141.393 93.669 138.564 92.668 135.113 92.668 C 132.867 92.668 131.007 93.046 129.52 93.817 C 128.065 94.576 126.871 95.523 125.959 96.635 C 125.054 97.767 124.434 98.964 124.075 100.242 C 123.715 101.484 123.498 102.617 123.433 103.612 L 146.304 103.612 C 145.969 100.03 144.742 97.381 143.065 95.515 L 143.065 95.515 L 143.065 95.515 L 143.065 95.515 L 143.065 95.515 Z  M 126.914 122.404 C 129.018 124.46 132.061 125.493 136.004 125.493 C 138.838 125.493 141.288 124.779 143.344 123.349 C 145.381 121.921 146.621 120.397 147.099 118.813 L 159.479 118.813 C 157.49 124.972 154.471 129.371 150.351 132.017 C 146.283 134.674 141.318 136 135.534 136 C 131.503 136 127.875 135.348 124.617 134.062 C 121.364 132.761 118.643 130.938 116.353 128.561 C 114.123 126.172 112.392 123.349 111.158 120.032 C 109.936 116.733 109.319 113.081 109.319 109.125 C 109.319 105.298 109.961 101.723 111.209 98.417 C 112.486 95.105 114.249 92.244 116.568 89.842 C 118.895 87.432 121.651 85.529 124.861 84.136 C 128.073 82.751 131.613 82.054 135.534 82.054 C 139.863 82.054 143.655 82.886 146.905 84.584 C 150.145 86.256 152.799 88.527 154.887 91.369 C 156.972 94.2 158.456 97.442 159.385 101.082 C 160.303 104.707 160.625 108.502 160.362 112.471 L 123.433 112.471 C 123.433 116.519 124.802 120.348 126.914 122.404 L 126.914 122.404 L 126.914 122.404 L 126.914 122.404 L 126.914 122.404 Z  M 78.872 64 C 82.251 64 85.302 64.29 88.091 64.896 C 90.863 65.484 93.23 66.464 95.229 67.811 C 97.199 69.158 98.74 70.946 99.843 73.203 C 100.919 75.422 101.461 78.205 101.461 81.495 C 101.461 85.051 100.653 88.022 99.038 90.4 C 97.411 92.773 95.02 94.718 91.826 96.229 C 96.177 97.48 99.397 99.681 101.534 102.81 C 103.681 105.963 104.73 109.734 104.73 114.157 C 104.73 117.74 104.043 120.826 102.674 123.421 C 101.289 126.046 99.405 128.177 97.084 129.822 C 94.744 131.478 92.055 132.694 89.043 133.485 C 86.064 134.277 82.973 134.674 79.806 134.674 L 45.55 134.674 L 45.55 64 L 78.872 64 L 78.872 64 L 78.872 64 L 78.872 64 L 78.872 64 L 78.872 64 L 78.872 64 L 78.872 64 Z  M 0 100 C 0 44.808 44.808 0 100 0 C 155.192 0 200 44.808 200 100 C 200 155.192 155.192 200 100 200 C 44.808 200 0 155.192 0 100 L 0 100 L 0 100 L 0 100 L 0 100 Z  M 120.559 68.74 L 120.559 75.715 L 149.208 75.715 L 149.208 68.74 L 120.559 68.74 L 120.559 68.74 Z " fill-rule="evenodd" fill="rgb(0,0,0)"/></g></svg>