<?xml version="1.0" encoding="UTF-8" standalone="no"?><!-- Generator: Gravit.io --><svg xmlns="http://www.w3.org/2000/svg" xmlns:xlink="http://www.w3.org/1999/xlink" style="isolation:isolate" viewBox="0 0 162 158" width="162pt" height="158pt"><defs><clipPath id="_clipPath_DpuC0iGmGU04kvXX7u0NtErGptQDOuq2"><rect width="162" height="158"/></clipPath></defs><g clip-path="url(#_clipPath_DpuC0iGmGU04kvXX7u0NtErGptQDOuq2)"><clipPath id="_clipPath_VDfd3HCNOZAolErEJiDy7B9o0NC8MoTU"><rect x="-385.982" y="-8.336" width="707.96" height="666.653" transform="matrix(1,0,0,1,0,0)" fill="rgb(255,255,255)"/></clipPath><g clip-path="url(#_clipPath_VDfd3HCNOZAolErEJiDy7B9o0NC8MoTU)"><g><g><path d=" M 321.982 658.317 L -385.982 658.317 L -385.982 290.336 L 321.982 290.336 L 321.982 658.317 Z " fill="rgb(35,31,32)"/><path d=" M -182.505 65.591 C -194.497 65.591 -204.222 75.315 -204.222 87.311 C -204.222 96.905 -197.999 105.047 -189.369 107.92 C -188.282 108.119 -187.886 107.448 -187.886 106.872 C -187.886 106.356 -187.905 104.991 -187.915 103.179 C -193.957 104.491 -195.231 100.267 -195.231 100.267 C -196.219 97.757 -197.643 97.089 -197.643 97.089 C -199.615 95.743 -197.494 95.769 -197.494 95.769 C -195.314 95.923 -194.167 98.008 -194.167 98.008 C -192.23 101.327 -189.083 100.368 -187.846 99.812 C -187.649 98.409 -187.087 97.452 -186.467 96.909 C -191.29 96.36 -196.361 94.497 -196.361 86.175 C -196.361 83.803 -195.514 81.865 -194.125 80.347 C -194.349 79.797 -195.094 77.589 -193.911 74.599 C -193.911 74.599 -192.089 74.015 -187.939 76.824 C -186.207 76.343 -184.349 76.103 -182.502 76.093 C -180.657 76.103 -178.799 76.343 -177.065 76.824 C -172.918 74.015 -171.098 74.599 -171.098 74.599 C -169.913 77.589 -170.658 79.797 -170.881 80.347 C -169.489 81.865 -168.649 83.803 -168.649 86.175 C -168.649 94.519 -173.727 96.355 -178.565 96.892 C -177.786 97.563 -177.091 98.888 -177.091 100.915 C -177.091 103.817 -177.118 106.16 -177.118 106.872 C -177.118 107.453 -176.726 108.129 -175.625 107.917 C -167.001 105.039 -160.783 96.904 -160.783 87.311 C -160.783 75.315 -170.509 65.591 -182.505 65.591 Z " fill-rule="evenodd" fill="rgb(27,24,23)"/><path d=" M 81.497 0.244 C 37.034 0.244 0.979 36.292 0.979 80.761 C 0.979 116.336 24.05 146.517 56.042 157.164 C 60.066 157.909 61.543 155.417 61.543 153.291 C 61.543 151.371 61.469 145.028 61.434 138.3 C 39.034 143.171 34.307 128.8 34.307 128.8 C 30.645 119.493 25.367 117.019 25.367 117.019 C 18.062 112.021 25.918 112.124 25.918 112.124 C 34.003 112.691 38.261 120.423 38.261 120.423 C 45.442 132.731 57.097 129.172 61.691 127.115 C 62.414 121.911 64.501 118.357 66.803 116.348 C 48.919 114.312 30.119 107.408 30.119 76.556 C 30.119 67.765 33.265 60.583 38.415 54.944 C 37.579 52.915 34.823 44.727 39.195 33.636 C 39.195 33.636 45.957 31.472 61.343 41.889 C 67.766 40.105 74.654 39.211 81.497 39.18 C 88.339 39.211 95.233 40.105 101.667 41.889 C 117.035 31.472 123.787 33.636 123.787 33.636 C 128.17 44.727 125.413 52.915 124.577 54.944 C 129.739 60.583 132.863 67.765 132.863 76.556 C 132.863 107.481 114.027 114.291 96.098 116.284 C 98.986 118.783 101.559 123.683 101.559 131.195 C 101.559 141.968 101.466 150.639 101.466 153.291 C 101.466 155.433 102.915 157.944 106.997 157.153 C 138.971 146.495 162.013 116.324 162.013 80.761 C 162.013 36.292 125.963 0.244 81.497 0.244 Z " fill-rule="evenodd" fill="rgb(0,0,0)"/><path d=" M 31.475 115.849 C 31.298 116.251 30.669 116.369 30.095 116.095 C 29.511 115.832 29.183 115.287 29.373 114.885 C 29.546 114.475 30.177 114.36 30.759 114.633 C 31.345 114.897 31.678 115.448 31.475 115.849 L 31.475 115.849 Z " fill="rgb(27,24,23)"/><path d=" M 34.737 119.487 C 34.353 119.843 33.602 119.677 33.093 119.115 C 32.566 118.553 32.467 117.803 32.857 117.441 C 33.253 117.087 33.981 117.253 34.509 117.813 C 35.035 118.381 35.138 119.127 34.737 119.487 L 34.737 119.487 Z " fill="rgb(27,24,23)"/><path d=" M 37.911 124.124 C 37.418 124.467 36.611 124.145 36.113 123.429 C 35.619 122.713 35.619 121.855 36.123 121.511 C 36.623 121.167 37.418 121.477 37.923 122.187 C 38.415 122.915 38.415 123.773 37.911 124.124 L 37.911 124.124 Z " fill="rgb(27,24,23)"/><path d=" M 42.261 128.604 C 41.819 129.091 40.879 128.96 40.191 128.296 C 39.487 127.647 39.291 126.725 39.734 126.239 C 40.181 125.751 41.126 125.888 41.819 126.547 C 42.518 127.195 42.731 128.123 42.261 128.604 L 42.261 128.604 Z " fill="rgb(27,24,23)"/><path d=" M 48.261 131.205 C 48.066 131.836 47.161 132.123 46.249 131.855 C 45.338 131.579 44.742 130.84 44.926 130.203 C 45.115 129.568 46.025 129.269 46.943 129.556 C 47.853 129.831 48.45 130.564 48.261 131.205 L 48.261 131.205 Z " fill="rgb(27,24,23)"/><path d=" M 54.85 131.688 C 54.873 132.352 54.099 132.903 53.142 132.915 C 52.179 132.936 51.401 132.399 51.39 131.745 C 51.39 131.075 52.146 130.529 53.109 130.513 C 54.066 130.495 54.85 131.028 54.85 131.688 L 54.85 131.688 Z " fill="rgb(27,24,23)"/><path d=" M 60.982 130.644 C 61.097 131.292 60.431 131.957 59.481 132.135 C 58.546 132.305 57.681 131.905 57.562 131.263 C 57.446 130.599 58.123 129.933 59.057 129.761 C 60.009 129.596 60.861 129.985 60.982 130.644 L 60.982 130.644 Z " fill="rgb(27,24,23)"/><clipPath id="_clipPath_D7VND4bvFBLaZV0dJIHybAkjMpkcBpVC"><path d=" M -709.982 -324.336 L -61.982 -324.336 L -61.982 307.664 L -709.982 307.664 L -709.982 -324.336 Z  M -86.118 -7.667 L -86.118 -7 L -86.118 -7.667 Z " fill-rule="evenodd" fill="rgb(255,255,255)"/></clipPath><g clip-path="url(#_clipPath_D7VND4bvFBLaZV0dJIHybAkjMpkcBpVC)"><mask id="_mask_bKcqHloYtmAA2Y9Pr6CGD4X7Nzk2kX6j" x="-200%" y="-200%" width="400%" height="400%"><rect x="-200%" y="-200%" width="400%" height="400%" style="fill:white;"/><line x1="-86.118" y1="-7.667" x2="-86.118" y2="-7" fill="black" stroke="none"/></mask><line x1="-86.118" y1="-7.667" x2="-86.118" y2="-7" mask="url(#_mask_bKcqHloYtmAA2Y9Pr6CGD4X7Nzk2kX6j)" vector-effect="non-scaling-stroke" stroke-width="2.667" stroke="rgb(58,127,195)" stroke-opacity="100" stroke-linejoin="miter" stroke-linecap="round" stroke-miterlimit="10"/></g><clipPath id="_clipPath_O3kdYC1DdTkTNHEt9AM0E9gi6rTPmxrE"><path d=" M -709.982 -324.336 L -61.982 -324.336 L -61.982 307.664 L -709.982 307.664 L -709.982 -324.336 Z  M -86.118 -4.333 L -86.118 174.324 L -86.118 -4.333 Z " fill-rule="evenodd" fill="rgb(255,255,255)"/></clipPath><g clip-path="url(#_clipPath_O3kdYC1DdTkTNHEt9AM0E9gi6rTPmxrE)"><mask id="_mask_XibOFQudkGIFOnGwBVoG3ddu1yjguM02" x="-200%" y="-200%" width="400%" height="400%"><rect x="-200%" y="-200%" width="400%" height="400%" style="fill:white;"/><line x1="-86.118" y1="-4.333" x2="-86.118" y2="174.324" fill="black" stroke="none"/></mask><line x1="-86.118" y1="-4.333" x2="-86.118" y2="174.324" mask="url(#_mask_XibOFQudkGIFOnGwBVoG3ddu1yjguM02)" vector-effect="non-scaling-stroke" stroke-width="2.667" stroke="rgb(58,127,195)" stroke-opacity="100" stroke-linejoin="miter" stroke-linecap="round" stroke-miterlimit="10"/></g><clipPath id="_clipPath_K1vxt9BFTxLCeOPvJiXubFgBoeq0goUT"><path d=" M -709.982 -324.336 L -61.982 -324.336 L -61.982 307.664 L -709.982 307.664 L -709.982 -324.336 Z  M -86.118 175.657 L -86.118 176.324 L -86.118 175.657 Z " fill-rule="evenodd" fill="rgb(255,255,255)"/></clipPath><g clip-path="url(#_clipPath_K1vxt9BFTxLCeOPvJiXubFgBoeq0goUT)"><mask id="_mask_sTsLQy3bvXcsBmk6d2ClGSDx9jNuwWUp" x="-200%" y="-200%" width="400%" height="400%"><rect x="-200%" y="-200%" width="400%" height="400%" style="fill:white;"/><line x1="-86.118" y1="175.657" x2="-86.118" y2="176.324" fill="black" stroke="none"/></mask><line x1="-86.118" y1="175.657" x2="-86.118" y2="176.324" mask="url(#_mask_sTsLQy3bvXcsBmk6d2ClGSDx9jNuwWUp)" vector-effect="non-scaling-stroke" stroke-width="2.667" stroke="rgb(58,127,195)" stroke-opacity="100" stroke-linejoin="miter" stroke-linecap="round" stroke-miterlimit="10"/></g><path d=" M -208.281 195.012 C -208.789 194.643 -209.435 194.46 -210.225 194.46 C -210.545 194.46 -210.859 194.492 -211.169 194.555 C -211.479 194.62 -211.753 194.727 -211.993 194.875 C -212.233 195.027 -212.425 195.225 -212.57 195.476 C -212.713 195.727 -212.785 196.039 -212.785 196.412 C -212.785 196.763 -212.682 197.049 -212.473 197.268 C -212.266 197.487 -211.987 197.665 -211.641 197.803 C -211.294 197.943 -210.903 198.057 -210.465 198.148 C -210.027 198.239 -209.582 198.337 -209.129 198.443 C -208.675 198.549 -208.231 198.676 -207.793 198.82 C -207.355 198.964 -206.963 199.159 -206.617 199.404 C -206.27 199.648 -205.993 199.959 -205.785 200.331 C -205.577 200.705 -205.473 201.175 -205.473 201.74 C -205.473 202.348 -205.609 202.867 -205.881 203.3 C -206.154 203.732 -206.502 204.084 -206.929 204.356 C -207.355 204.628 -207.833 204.825 -208.361 204.948 C -208.889 205.071 -209.414 205.132 -209.937 205.132 C -210.577 205.132 -211.182 205.052 -211.753 204.892 C -212.323 204.732 -212.825 204.489 -213.257 204.164 C -213.689 203.839 -214.03 203.421 -214.281 202.915 C -214.531 202.409 -214.657 201.809 -214.657 201.116 L -213.217 201.116 C -213.217 201.596 -213.125 202.009 -212.937 202.356 C -212.75 202.703 -212.505 202.987 -212.201 203.211 C -211.897 203.435 -211.543 203.601 -211.137 203.708 C -210.731 203.815 -210.317 203.867 -209.889 203.867 C -209.547 203.867 -209.203 203.836 -208.857 203.771 C -208.51 203.708 -208.198 203.599 -207.921 203.443 C -207.643 203.289 -207.419 203.079 -207.249 202.812 C -207.078 202.544 -206.993 202.203 -206.993 201.788 C -206.993 201.393 -207.098 201.073 -207.305 200.828 C -207.513 200.584 -207.791 200.383 -208.137 200.228 C -208.485 200.073 -208.877 199.948 -209.313 199.852 C -209.75 199.755 -210.195 199.656 -210.649 199.555 C -211.102 199.455 -211.547 199.337 -211.985 199.203 C -212.422 199.071 -212.815 198.895 -213.161 198.676 C -213.507 198.457 -213.785 198.175 -213.993 197.828 C -214.201 197.481 -214.305 197.047 -214.305 196.524 C -214.305 195.948 -214.187 195.449 -213.953 195.027 C -213.718 194.607 -213.406 194.26 -213.017 193.987 C -212.627 193.716 -212.185 193.513 -211.689 193.38 C -211.193 193.245 -210.683 193.18 -210.161 193.18 C -209.574 193.18 -209.03 193.251 -208.529 193.388 C -208.027 193.527 -207.587 193.745 -207.21 194.044 C -206.83 194.343 -206.531 194.719 -206.313 195.172 C -206.095 195.625 -205.974 196.167 -205.953 196.796 L -207.393 196.796 C -207.479 195.973 -207.774 195.38 -208.281 195.012 Z " fill="rgb(23,111,193)"/><path d=" M -202.577 196.604 L -202.577 197.82 L -202.545 197.82 C -201.927 196.88 -201.037 196.412 -199.874 196.412 C -199.361 196.412 -198.898 196.519 -198.482 196.732 C -198.065 196.945 -197.771 197.307 -197.601 197.82 C -197.323 197.372 -196.958 197.027 -196.505 196.78 C -196.051 196.533 -195.553 196.412 -195.01 196.412 C -194.594 196.412 -194.217 196.457 -193.881 196.547 C -193.545 196.639 -193.258 196.78 -193.017 196.972 C -192.777 197.164 -192.591 197.412 -192.458 197.716 C -192.323 198.02 -192.258 198.385 -192.258 198.812 L -192.258 204.875 L -193.617 204.875 L -193.617 199.452 C -193.617 199.195 -193.639 198.956 -193.682 198.732 C -193.723 198.508 -193.803 198.312 -193.921 198.148 C -194.039 197.981 -194.202 197.852 -194.409 197.755 C -194.617 197.659 -194.886 197.612 -195.217 197.612 C -195.889 197.612 -196.417 197.803 -196.801 198.188 C -197.185 198.572 -197.377 199.084 -197.377 199.724 L -197.377 204.875 L -198.738 204.875 L -198.738 199.452 C -198.738 199.185 -198.762 198.94 -198.809 198.716 C -198.857 198.492 -198.939 198.297 -199.057 198.132 C -199.175 197.967 -199.331 197.839 -199.529 197.748 C -199.727 197.656 -199.981 197.612 -200.289 197.612 C -200.683 197.612 -201.022 197.691 -201.305 197.852 C -201.589 198.012 -201.818 198.203 -201.993 198.427 C -202.169 198.651 -202.297 198.883 -202.377 199.124 C -202.458 199.364 -202.497 199.564 -202.497 199.724 L -202.497 204.875 L -203.857 204.875 L -203.857 196.604 L -202.577 196.604 Z " fill="rgb(23,111,193)"/><path d=" M -185.762 200.883 C -186.039 200.943 -186.329 200.989 -186.633 201.027 C -186.937 201.065 -187.245 201.107 -187.554 201.156 C -187.863 201.203 -188.141 201.281 -188.385 201.388 C -188.631 201.495 -188.831 201.645 -188.986 201.844 C -189.141 202.041 -189.217 202.309 -189.217 202.651 C -189.217 202.875 -189.173 203.065 -189.082 203.219 C -188.991 203.375 -188.874 203.5 -188.73 203.596 C -188.586 203.691 -188.415 203.76 -188.217 203.803 C -188.019 203.847 -187.821 203.867 -187.618 203.867 C -187.17 203.867 -186.786 203.807 -186.465 203.684 C -186.146 203.561 -185.885 203.407 -185.682 203.219 C -185.479 203.033 -185.329 202.831 -185.234 202.612 C -185.138 202.393 -185.09 202.188 -185.09 201.995 L -185.09 200.604 C -185.261 200.732 -185.485 200.825 -185.762 200.883 L -185.762 200.883 Z  M -183.857 205.052 C -184.21 205.052 -184.489 204.953 -184.698 204.755 C -184.905 204.559 -185.01 204.236 -185.01 203.788 C -185.383 204.236 -185.818 204.559 -186.314 204.755 C -186.81 204.953 -187.346 205.052 -187.922 205.052 C -188.294 205.052 -188.647 205.012 -188.978 204.932 C -189.309 204.852 -189.599 204.719 -189.849 204.531 C -190.099 204.345 -190.297 204.105 -190.441 203.812 C -190.586 203.519 -190.657 203.164 -190.657 202.748 C -190.657 202.279 -190.577 201.895 -190.418 201.596 C -190.258 201.297 -190.047 201.055 -189.786 200.867 C -189.525 200.681 -189.226 200.539 -188.89 200.443 C -188.554 200.348 -188.21 200.268 -187.857 200.203 C -187.485 200.129 -187.129 200.073 -186.793 200.036 C -186.458 199.999 -186.161 199.945 -185.905 199.875 C -185.65 199.807 -185.447 199.705 -185.297 199.572 C -185.149 199.437 -185.073 199.244 -185.073 198.987 C -185.073 198.691 -185.129 198.449 -185.241 198.268 C -185.353 198.085 -185.498 197.948 -185.674 197.852 C -185.849 197.755 -186.047 197.691 -186.266 197.659 C -186.485 197.628 -186.701 197.612 -186.913 197.612 C -187.489 197.612 -187.969 197.721 -188.353 197.94 C -188.738 198.159 -188.946 198.572 -188.978 199.18 L -190.338 199.18 C -190.317 198.668 -190.21 198.236 -190.017 197.883 C -189.825 197.531 -189.57 197.245 -189.25 197.027 C -188.93 196.809 -188.562 196.651 -188.146 196.555 C -187.73 196.46 -187.293 196.412 -186.834 196.412 C -186.459 196.412 -186.09 196.437 -185.722 196.492 C -185.353 196.544 -185.019 196.653 -184.722 196.82 C -184.423 196.984 -184.182 197.217 -184.002 197.516 C -183.821 197.815 -183.73 198.203 -183.73 198.684 L -183.73 202.94 C -183.73 203.26 -183.71 203.495 -183.674 203.643 C -183.637 203.793 -183.51 203.867 -183.297 203.867 C -183.179 203.867 -183.042 203.841 -182.881 203.788 L -182.881 204.844 C -183.117 204.981 -183.441 205.052 -183.857 205.052 Z " fill="rgb(23,111,193)"/><path d=" M -180.177 193.452 L -180.177 204.875 L -181.538 204.875 L -181.538 193.452 L -180.177 193.452 Z " fill="rgb(23,111,193)"/><path d=" M -176.626 193.452 L -176.626 204.875 L -177.986 204.875 L -177.986 193.452 L -176.626 193.452 Z " fill="rgb(23,111,193)"/><path d=" M -250.177 217.003 L -250.177 215.803 L -248.785 215.803 L -248.785 214.572 C -248.785 213.9 -248.59 213.391 -248.201 213.044 C -247.811 212.697 -247.243 212.524 -246.497 212.524 C -246.369 212.524 -246.222 212.533 -246.057 212.555 C -245.891 212.577 -245.745 212.609 -245.617 212.651 L -245.617 213.836 C -245.734 213.793 -245.862 213.763 -246.001 213.748 C -246.139 213.732 -246.267 213.724 -246.385 213.724 C -246.715 213.724 -246.971 213.788 -247.153 213.915 C -247.334 214.044 -247.425 214.289 -247.425 214.651 L -247.425 215.803 L -245.825 215.803 L -245.825 217.003 L -247.425 217.003 L -247.425 224.076 L -248.785 224.076 L -248.785 217.003 L -250.177 217.003 Z " fill="rgb(23,111,193)"/><path d=" M -243.417 221.284 C -243.285 221.673 -243.099 221.997 -242.865 222.26 C -242.63 222.521 -242.355 222.721 -242.042 222.86 C -241.727 222.997 -241.393 223.068 -241.042 223.068 C -240.689 223.068 -240.355 222.997 -240.042 222.86 C -239.727 222.721 -239.453 222.521 -239.217 222.26 C -238.983 221.997 -238.798 221.673 -238.665 221.284 C -238.531 220.895 -238.465 220.449 -238.465 219.948 C -238.465 219.445 -238.531 219.001 -238.665 218.612 C -238.798 218.221 -238.983 217.895 -239.217 217.628 C -239.453 217.361 -239.727 217.159 -240.042 217.02 C -240.355 216.88 -240.689 216.811 -241.042 216.811 C -241.393 216.811 -241.727 216.88 -242.042 217.02 C -242.355 217.159 -242.63 217.361 -242.865 217.628 C -243.099 217.895 -243.285 218.221 -243.417 218.612 C -243.55 219.001 -243.617 219.445 -243.617 219.948 C -243.617 220.449 -243.55 220.895 -243.417 221.284 Z  M -244.801 218.244 C -244.63 217.716 -244.375 217.257 -244.033 216.867 C -243.691 216.479 -243.27 216.172 -242.769 215.948 C -242.267 215.724 -241.691 215.612 -241.042 215.612 C -240.379 215.612 -239.801 215.724 -239.305 215.948 C -238.809 216.172 -238.391 216.479 -238.049 216.867 C -237.709 217.257 -237.453 217.716 -237.281 218.244 C -237.11 218.771 -237.025 219.34 -237.025 219.948 C -237.025 220.555 -237.11 221.121 -237.281 221.643 C -237.453 222.167 -237.709 222.623 -238.049 223.012 C -238.391 223.401 -238.809 223.705 -239.305 223.924 C -239.801 224.141 -240.379 224.251 -241.042 224.251 C -241.691 224.251 -242.267 224.141 -242.769 223.924 C -243.27 223.705 -243.691 223.401 -244.033 223.012 C -244.375 222.623 -244.63 222.167 -244.801 221.643 C -244.971 221.121 -245.057 220.555 -245.057 219.948 C -245.057 219.34 -244.971 218.771 -244.801 218.244 Z " fill="rgb(23,111,193)"/><path d=" M -234.193 215.803 L -234.193 217.547 L -234.161 217.547 C -233.83 216.875 -233.425 216.38 -232.945 216.06 C -232.465 215.74 -231.857 215.591 -231.121 215.612 L -231.121 217.052 C -231.665 217.052 -232.129 217.127 -232.513 217.276 C -232.897 217.424 -233.207 217.643 -233.441 217.932 C -233.675 218.219 -233.847 218.569 -233.953 218.979 C -234.059 219.391 -234.113 219.861 -234.113 220.396 L -234.113 224.076 L -235.473 224.076 L -235.473 215.803 L -234.193 215.803 Z " fill="rgb(23,111,193)"/><path d=" M -222.338 224.076 L -222.338 215.948 L -225.282 215.948 L -225.282 214.86 C -224.898 214.86 -224.525 214.831 -224.162 214.771 C -223.799 214.713 -223.471 214.604 -223.178 214.443 C -222.885 214.284 -222.637 214.065 -222.433 213.788 C -222.231 213.511 -222.093 213.159 -222.017 212.732 L -220.978 212.732 L -220.978 224.076 L -222.338 224.076 Z " fill="rgb(23,111,193)"/><path d=" M -214.21 218.18 C -214.497 218.312 -214.742 218.495 -214.945 218.724 C -215.147 218.953 -215.299 219.225 -215.401 219.539 C -215.502 219.855 -215.553 220.188 -215.553 220.539 C -215.553 220.891 -215.499 221.221 -215.393 221.531 C -215.287 221.841 -215.134 222.107 -214.937 222.331 C -214.739 222.555 -214.494 222.735 -214.201 222.867 C -213.907 223.001 -213.574 223.068 -213.201 223.068 C -212.827 223.068 -212.499 223.001 -212.217 222.867 C -211.934 222.735 -211.697 222.549 -211.505 222.315 C -211.313 222.081 -211.166 221.811 -211.065 221.508 C -210.963 221.203 -210.913 220.885 -210.913 220.555 C -210.913 220.203 -210.958 219.869 -211.049 219.555 C -211.139 219.241 -211.281 218.969 -211.473 218.74 C -211.665 218.511 -211.905 218.325 -212.193 218.188 C -212.481 218.049 -212.817 217.979 -213.201 217.979 C -213.585 217.979 -213.921 218.047 -214.21 218.18 Z  M -211.745 214.396 C -212.075 214.085 -212.513 213.932 -213.057 213.932 C -213.633 213.932 -214.098 214.073 -214.449 214.356 C -214.801 214.639 -215.075 214.995 -215.273 215.427 C -215.47 215.86 -215.606 216.325 -215.682 216.828 C -215.755 217.328 -215.798 217.799 -215.809 218.236 L -215.777 218.268 C -215.457 217.745 -215.059 217.367 -214.585 217.132 C -214.11 216.897 -213.563 216.779 -212.945 216.779 C -212.401 216.779 -211.913 216.872 -211.481 217.06 C -211.049 217.245 -210.686 217.505 -210.393 217.836 C -210.099 218.167 -209.873 218.555 -209.713 219.003 C -209.553 219.452 -209.473 219.937 -209.473 220.46 C -209.473 220.875 -209.537 221.307 -209.665 221.755 C -209.793 222.203 -210.003 222.612 -210.297 222.979 C -210.591 223.348 -210.979 223.651 -211.465 223.891 C -211.95 224.132 -212.55 224.251 -213.266 224.251 C -214.107 224.251 -214.785 224.081 -215.297 223.74 C -215.809 223.399 -216.203 222.961 -216.481 222.427 C -216.759 221.895 -216.942 221.307 -217.033 220.667 C -217.125 220.027 -217.169 219.409 -217.169 218.811 C -217.169 218.033 -217.102 217.279 -216.969 216.547 C -216.835 215.817 -216.609 215.169 -216.289 214.604 C -215.969 214.039 -215.543 213.585 -215.009 213.244 C -214.475 212.903 -213.803 212.732 -212.993 212.732 C -212.054 212.732 -211.307 212.979 -210.753 213.475 C -210.198 213.972 -209.878 214.689 -209.793 215.628 L -211.154 215.628 C -211.217 215.115 -211.414 214.705 -211.745 214.396 Z " fill="rgb(23,111,193)"/><path d=" M -201.561 218.74 C -201.662 218.372 -201.818 218.044 -202.025 217.755 C -202.234 217.467 -202.499 217.239 -202.825 217.068 C -203.151 216.897 -203.533 216.811 -203.969 216.811 C -204.429 216.811 -204.818 216.903 -205.137 217.084 C -205.458 217.265 -205.718 217.503 -205.921 217.796 C -206.125 218.088 -206.27 218.421 -206.361 218.796 C -206.453 219.169 -206.497 219.547 -206.497 219.932 C -206.497 220.337 -206.449 220.729 -206.353 221.107 C -206.258 221.487 -206.105 221.82 -205.898 222.107 C -205.689 222.396 -205.421 222.628 -205.089 222.803 C -204.759 222.979 -204.358 223.068 -203.889 223.068 C -203.421 223.068 -203.027 222.976 -202.713 222.796 C -202.398 222.615 -202.146 222.375 -201.954 222.076 C -201.762 221.777 -201.622 221.435 -201.538 221.052 C -201.453 220.667 -201.409 220.273 -201.409 219.867 C -201.409 219.484 -201.459 219.107 -201.561 218.74 L -201.561 218.74 Z  M -206.449 215.803 L -206.449 216.924 L -206.417 216.924 C -206.193 216.465 -205.842 216.132 -205.361 215.924 C -204.881 215.716 -204.353 215.612 -203.777 215.612 C -203.137 215.612 -202.579 215.729 -202.105 215.964 C -201.63 216.197 -201.237 216.516 -200.921 216.915 C -200.606 217.315 -200.37 217.777 -200.21 218.3 C -200.049 218.823 -199.969 219.377 -199.969 219.964 C -199.969 220.549 -200.046 221.104 -200.202 221.628 C -200.355 222.151 -200.591 222.607 -200.905 222.995 C -201.219 223.385 -201.615 223.691 -202.089 223.915 C -202.565 224.139 -203.117 224.251 -203.745 224.251 C -203.949 224.251 -204.175 224.229 -204.426 224.188 C -204.677 224.144 -204.925 224.076 -205.169 223.979 C -205.414 223.883 -205.647 223.752 -205.865 223.587 C -206.083 223.421 -206.267 223.216 -206.417 222.972 L -206.449 222.972 L -206.449 227.227 L -207.809 227.227 L -207.809 215.803 L -206.449 215.803 Z " fill="rgb(23,111,193)"/><path d=" M -199.026 215.803 L -197.282 215.803 L -195.298 218.699 L -193.234 215.803 L -191.601 215.803 L -194.45 219.612 L -191.25 224.076 L -192.994 224.076 L -195.298 220.651 L -197.601 224.076 L -199.25 224.076 L -196.146 219.724 L -199.026 215.803 Z " fill="rgb(23,111,193)"/><path d=" M -185.682 218.987 L -185.682 220.268 L -190.306 220.268 L -190.306 218.987 L -185.682 218.987 Z " fill="rgb(23,111,193)"/><path d=" M -180.546 224.076 L -180.546 215.948 L -183.49 215.948 L -183.49 214.86 C -183.106 214.86 -182.733 214.831 -182.37 214.771 C -182.007 214.713 -181.679 214.604 -181.386 214.443 C -181.093 214.284 -180.845 214.065 -180.642 213.788 C -180.439 213.511 -180.301 213.159 -180.226 212.732 L -179.186 212.732 L -179.186 224.076 L -180.546 224.076 Z " fill="rgb(23,111,193)"/><path d=" M -175.106 215.148 C -174.957 214.656 -174.725 214.233 -174.41 213.875 C -174.095 213.519 -173.703 213.239 -173.234 213.036 C -172.765 212.833 -172.231 212.732 -171.634 212.732 C -171.143 212.732 -170.682 212.803 -170.25 212.948 C -169.818 213.091 -169.442 213.3 -169.122 213.572 C -168.802 213.844 -168.549 214.183 -168.362 214.587 C -168.175 214.992 -168.082 215.463 -168.082 215.995 C -168.082 216.497 -168.159 216.94 -168.314 217.323 C -168.469 217.708 -168.674 218.052 -168.93 218.356 C -169.186 218.659 -169.479 218.935 -169.81 219.18 C -170.141 219.424 -170.482 219.659 -170.834 219.883 C -171.186 220.096 -171.538 220.307 -171.89 220.516 C -172.242 220.724 -172.565 220.945 -172.858 221.18 C -173.151 221.415 -173.402 221.667 -173.61 221.94 C -173.818 222.211 -173.954 222.524 -174.018 222.875 L -168.194 222.875 L -168.194 224.076 L -175.602 224.076 C -175.549 223.404 -175.429 222.831 -175.242 222.356 C -175.055 221.88 -174.818 221.467 -174.53 221.115 C -174.242 220.763 -173.917 220.455 -173.554 220.188 C -173.191 219.921 -172.813 219.671 -172.418 219.435 C -171.938 219.136 -171.517 218.861 -171.154 218.612 C -170.791 218.361 -170.49 218.107 -170.25 217.852 C -170.01 217.596 -169.829 217.317 -169.706 217.02 C -169.583 216.721 -169.522 216.375 -169.522 215.979 C -169.522 215.671 -169.581 215.391 -169.698 215.139 C -169.815 214.889 -169.973 214.673 -170.17 214.492 C -170.367 214.309 -170.599 214.172 -170.866 214.076 C -171.133 213.979 -171.415 213.932 -171.714 213.932 C -172.109 213.932 -172.447 214.015 -172.73 214.18 C -173.013 214.345 -173.245 214.561 -173.426 214.828 C -173.607 215.093 -173.738 215.396 -173.818 215.732 C -173.898 216.068 -173.933 216.407 -173.922 216.748 L -175.282 216.748 C -175.314 216.172 -175.255 215.639 -175.106 215.148 Z " fill="rgb(23,111,193)"/><path d=" M -164.938 219.924 C -164.911 220.452 -164.825 220.948 -164.682 221.412 C -164.538 221.875 -164.306 222.268 -163.986 222.587 C -163.666 222.908 -163.218 223.068 -162.642 223.068 C -162.065 223.068 -161.618 222.908 -161.297 222.587 C -160.978 222.268 -160.746 221.875 -160.601 221.412 C -160.458 220.948 -160.373 220.452 -160.346 219.924 C -160.319 219.396 -160.306 218.917 -160.306 218.492 C -160.306 218.213 -160.309 217.908 -160.314 217.572 C -160.319 217.236 -160.346 216.9 -160.394 216.564 C -160.442 216.227 -160.51 215.9 -160.601 215.579 C -160.693 215.26 -160.825 214.979 -161.002 214.74 C -161.177 214.5 -161.398 214.305 -161.666 214.156 C -161.933 214.007 -162.258 213.932 -162.642 213.932 C -163.026 213.932 -163.351 214.007 -163.618 214.156 C -163.885 214.305 -164.106 214.5 -164.282 214.74 C -164.458 214.979 -164.591 215.26 -164.682 215.579 C -164.773 215.9 -164.842 216.227 -164.89 216.564 C -164.938 216.9 -164.965 217.236 -164.97 217.572 C -164.975 217.908 -164.978 218.213 -164.978 218.492 C -164.978 218.917 -164.965 219.396 -164.938 219.924 L -164.938 219.924 Z  M -166.386 217.211 C -166.365 216.763 -166.311 216.325 -166.226 215.9 C -166.141 215.473 -166.017 215.068 -165.858 214.684 C -165.698 214.3 -165.479 213.964 -165.202 213.676 C -164.925 213.388 -164.575 213.159 -164.154 212.987 C -163.731 212.817 -163.229 212.732 -162.642 212.732 C -162.055 212.732 -161.551 212.817 -161.129 212.987 C -160.709 213.159 -160.359 213.388 -160.082 213.676 C -159.805 213.964 -159.586 214.3 -159.426 214.684 C -159.266 215.068 -159.143 215.473 -159.058 215.9 C -158.973 216.325 -158.919 216.763 -158.898 217.211 C -158.877 217.659 -158.866 218.091 -158.866 218.508 C -158.866 218.924 -158.877 219.356 -158.898 219.803 C -158.919 220.251 -158.973 220.689 -159.058 221.115 C -159.143 221.541 -159.266 221.945 -159.426 222.323 C -159.586 222.703 -159.805 223.036 -160.082 223.323 C -160.359 223.612 -160.706 223.839 -161.122 224.003 C -161.538 224.169 -162.043 224.251 -162.642 224.251 C -163.229 224.251 -163.731 224.169 -164.154 224.003 C -164.575 223.839 -164.925 223.612 -165.202 223.323 C -165.479 223.036 -165.698 222.703 -165.858 222.323 C -166.017 221.945 -166.141 221.541 -166.226 221.115 C -166.311 220.689 -166.365 220.251 -166.386 219.803 C -166.407 219.356 -166.418 218.924 -166.418 218.508 C -166.418 218.091 -166.407 217.659 -166.386 217.211 Z " fill="rgb(23,111,193)"/><path d=" M -150.874 218.74 C -150.975 218.372 -151.13 218.044 -151.338 217.755 C -151.546 217.467 -151.813 217.239 -152.138 217.068 C -152.463 216.897 -152.845 216.811 -153.282 216.811 C -153.741 216.811 -154.13 216.903 -154.45 217.084 C -154.77 217.265 -155.031 217.503 -155.234 217.796 C -155.437 218.088 -155.583 218.421 -155.674 218.796 C -155.765 219.169 -155.81 219.547 -155.81 219.932 C -155.81 220.337 -155.762 220.729 -155.666 221.107 C -155.57 221.487 -155.418 221.82 -155.21 222.107 C -155.002 222.396 -154.733 222.628 -154.401 222.803 C -154.071 222.979 -153.671 223.068 -153.202 223.068 C -152.733 223.068 -152.341 222.976 -152.026 222.796 C -151.711 222.615 -151.458 222.375 -151.266 222.076 C -151.074 221.777 -150.935 221.435 -150.85 221.052 C -150.765 220.667 -150.722 220.273 -150.722 219.867 C -150.722 219.484 -150.773 219.107 -150.874 218.74 L -150.874 218.74 Z  M -155.762 215.803 L -155.762 216.924 L -155.73 216.924 C -155.506 216.465 -155.154 216.132 -154.674 215.924 C -154.194 215.716 -153.666 215.612 -153.09 215.612 C -152.45 215.612 -151.893 215.729 -151.418 215.964 C -150.943 216.197 -150.549 216.516 -150.234 216.915 C -149.919 217.315 -149.682 217.777 -149.522 218.3 C -149.362 218.823 -149.282 219.377 -149.282 219.964 C -149.282 220.549 -149.359 221.104 -149.514 221.628 C -149.669 222.151 -149.903 222.607 -150.218 222.995 C -150.533 223.385 -150.927 223.691 -151.401 223.915 C -151.877 224.139 -152.429 224.251 -153.058 224.251 C -153.261 224.251 -153.487 224.229 -153.738 224.188 C -153.989 224.144 -154.237 224.076 -154.482 223.979 C -154.727 223.883 -154.959 223.752 -155.177 223.587 C -155.397 223.421 -155.581 223.216 -155.73 222.972 L -155.762 222.972 L -155.762 227.227 L -157.122 227.227 L -157.122 215.803 L -155.762 215.803 Z " fill="rgb(23,111,193)"/><path d=" M -148.338 215.803 L -146.594 215.803 L -144.61 218.699 L -142.546 215.803 L -140.914 215.803 L -143.762 219.612 L -140.562 224.076 L -142.306 224.076 L -144.61 220.651 L -146.914 224.076 L -148.562 224.076 L -145.458 219.724 L -148.338 215.803 Z " fill="rgb(23,111,193)"/><path d=" M 61.529 193.451 L 61.529 203.593 L 67.577 203.593 L 67.577 204.875 L 60.01 204.875 L 60.01 193.451 L 61.529 193.451 Z " fill="rgb(23,111,193)"/><path d=" M 73.129 200.883 C 72.85 200.941 72.562 200.989 72.257 201.027 C 71.953 201.064 71.645 201.107 71.337 201.153 C 71.027 201.203 70.749 201.28 70.505 201.385 C 70.259 201.492 70.059 201.645 69.905 201.843 C 69.749 202.039 69.674 202.309 69.674 202.651 C 69.674 202.875 69.718 203.064 69.809 203.219 C 69.899 203.372 70.017 203.497 70.161 203.593 C 70.303 203.691 70.475 203.76 70.674 203.803 C 70.87 203.845 71.069 203.867 71.273 203.867 C 71.721 203.867 72.105 203.805 72.425 203.683 C 72.743 203.56 73.006 203.405 73.209 203.219 C 73.41 203.031 73.562 202.828 73.657 202.609 C 73.751 202.392 73.801 202.187 73.801 201.995 L 73.801 200.601 C 73.629 200.731 73.405 200.823 73.129 200.883 L 73.129 200.883 Z  M 75.033 205.049 C 74.681 205.049 74.401 204.952 74.191 204.755 C 73.985 204.557 73.881 204.235 73.881 203.787 C 73.507 204.235 73.071 204.557 72.577 204.755 C 72.079 204.952 71.545 205.049 70.967 205.049 C 70.595 205.049 70.243 205.011 69.913 204.929 C 69.582 204.851 69.29 204.716 69.041 204.531 C 68.79 204.344 68.593 204.104 68.45 203.809 C 68.303 203.517 68.234 203.161 68.234 202.745 C 68.234 202.277 68.313 201.893 68.473 201.593 C 68.631 201.296 68.843 201.053 69.105 200.867 C 69.366 200.68 69.665 200.539 70.001 200.443 C 70.337 200.347 70.681 200.265 71.033 200.203 C 71.405 200.128 71.761 200.072 72.097 200.033 C 72.433 199.997 72.729 199.944 72.985 199.875 C 73.241 199.805 73.443 199.703 73.593 199.571 C 73.741 199.437 73.817 199.243 73.817 198.987 C 73.817 198.688 73.761 198.448 73.649 198.265 C 73.537 198.085 73.393 197.947 73.217 197.851 C 73.041 197.755 72.843 197.691 72.623 197.659 C 72.405 197.627 72.189 197.609 71.977 197.609 C 71.401 197.609 70.921 197.72 70.537 197.937 C 70.153 198.156 69.945 198.571 69.913 199.179 L 68.553 199.179 C 68.574 198.667 68.681 198.235 68.873 197.883 C 69.065 197.531 69.321 197.245 69.639 197.027 C 69.959 196.807 70.329 196.651 70.743 196.555 C 71.161 196.459 71.598 196.411 72.057 196.411 C 72.43 196.411 72.801 196.437 73.169 196.489 C 73.537 196.544 73.87 196.653 74.169 196.817 C 74.467 196.984 74.707 197.216 74.889 197.515 C 75.069 197.812 75.161 198.203 75.161 198.683 L 75.161 202.937 C 75.161 203.257 75.179 203.492 75.217 203.643 C 75.254 203.792 75.379 203.867 75.593 203.867 C 75.71 203.867 75.847 203.84 76.01 203.787 L 76.01 204.843 C 75.774 204.981 75.45 205.049 75.033 205.049 Z " fill="rgb(23,111,193)"/><path d=" M 78.505 196.601 L 78.505 198.347 L 78.535 198.347 C 78.866 197.675 79.273 197.179 79.751 196.857 C 80.233 196.539 80.841 196.389 81.577 196.411 L 81.577 197.851 C 81.033 197.851 80.569 197.924 80.183 198.075 C 79.801 198.224 79.491 198.443 79.257 198.731 C 79.022 199.019 78.85 199.367 78.743 199.779 C 78.637 200.189 78.585 200.661 78.585 201.195 L 78.585 204.875 L 77.225 204.875 L 77.225 196.601 L 78.505 196.601 Z " fill="rgb(23,111,193)"/><path d=" M 86.623 203.489 C 86.939 203.305 87.191 203.059 87.385 202.755 C 87.577 202.451 87.718 202.107 87.809 201.723 C 87.899 201.339 87.945 200.955 87.945 200.571 C 87.945 200.208 87.902 199.851 87.817 199.497 C 87.731 199.145 87.595 198.828 87.407 198.547 C 87.222 198.263 86.978 198.036 86.681 197.867 C 86.382 197.695 86.019 197.609 85.593 197.609 C 85.155 197.609 84.782 197.693 84.473 197.857 C 84.163 198.024 83.91 198.245 83.713 198.523 C 83.514 198.8 83.371 199.12 83.281 199.481 C 83.189 199.845 83.145 200.224 83.145 200.619 C 83.145 200.992 83.181 201.364 83.257 201.739 C 83.331 202.112 83.459 202.451 83.639 202.755 C 83.822 203.059 84.062 203.305 84.361 203.489 C 84.659 203.677 85.033 203.771 85.481 203.771 C 85.929 203.771 86.309 203.677 86.623 203.489 L 86.623 203.489 Z  M 88.361 207.211 C 87.741 207.883 86.771 208.219 85.45 208.219 C 85.065 208.219 84.674 208.176 84.273 208.091 C 83.873 208.005 83.51 207.867 83.183 207.675 C 82.858 207.481 82.59 207.232 82.377 206.921 C 82.163 206.612 82.046 206.235 82.025 205.787 L 83.385 205.787 C 83.395 206.031 83.473 206.24 83.617 206.411 C 83.761 206.581 83.937 206.719 84.145 206.825 C 84.353 206.932 84.579 207.011 84.825 207.059 C 85.069 207.107 85.303 207.131 85.527 207.131 C 85.977 207.131 86.355 207.052 86.665 206.899 C 86.973 206.744 87.231 206.531 87.433 206.257 C 87.634 205.987 87.782 205.659 87.873 205.273 C 87.962 204.891 88.01 204.469 88.01 204.011 L 88.01 203.467 L 87.977 203.467 C 87.741 203.979 87.387 204.355 86.913 204.593 C 86.438 204.835 85.934 204.955 85.401 204.955 C 84.782 204.955 84.243 204.843 83.786 204.619 C 83.326 204.395 82.942 204.093 82.631 203.713 C 82.323 203.336 82.09 202.893 81.937 202.385 C 81.782 201.88 81.705 201.344 81.705 200.779 C 81.705 200.288 81.769 199.784 81.898 199.265 C 82.025 198.751 82.238 198.28 82.537 197.857 C 82.835 197.437 83.231 197.091 83.721 196.817 C 84.211 196.547 84.814 196.411 85.527 196.411 C 86.051 196.411 86.53 196.527 86.967 196.755 C 87.405 196.984 87.746 197.328 87.993 197.787 L 88.01 197.787 L 88.01 196.601 L 89.289 196.601 L 89.289 204.171 C 89.289 205.524 88.978 206.539 88.361 207.211 Z " fill="rgb(23,111,193)"/><path d=" M 96.863 199.033 C 96.741 198.745 96.577 198.497 96.369 198.291 C 96.161 198.081 95.914 197.917 95.631 197.795 C 95.349 197.672 95.038 197.609 94.697 197.609 C 94.345 197.609 94.026 197.672 93.743 197.795 C 93.461 197.917 93.218 198.085 93.015 198.299 C 92.814 198.512 92.653 198.76 92.535 199.041 C 92.418 199.325 92.349 199.627 92.329 199.947 L 97.079 199.947 C 97.059 199.627 96.986 199.323 96.863 199.033 L 96.863 199.033 Z  M 97.191 204.347 C 96.574 204.815 95.794 205.049 94.855 205.049 C 94.194 205.049 93.622 204.943 93.137 204.731 C 92.65 204.517 92.242 204.219 91.913 203.835 C 91.582 203.451 91.334 202.992 91.169 202.459 C 91.003 201.924 90.909 201.344 90.889 200.713 C 90.889 200.085 90.983 199.509 91.177 198.987 C 91.369 198.464 91.637 198.011 91.983 197.627 C 92.33 197.243 92.741 196.944 93.217 196.731 C 93.69 196.517 94.21 196.411 94.777 196.411 C 95.513 196.411 96.123 196.563 96.609 196.867 C 97.093 197.171 97.483 197.557 97.777 198.027 C 98.069 198.496 98.273 199.008 98.385 199.563 C 98.497 200.117 98.541 200.645 98.519 201.145 L 92.329 201.145 C 92.317 201.509 92.361 201.853 92.457 202.179 C 92.553 202.504 92.707 202.792 92.921 203.041 C 93.133 203.293 93.405 203.492 93.735 203.643 C 94.067 203.792 94.457 203.867 94.903 203.867 C 95.481 203.867 95.953 203.733 96.319 203.467 C 96.689 203.2 96.931 202.795 97.049 202.251 L 98.393 202.251 C 98.21 203.179 97.811 203.877 97.191 204.347 Z " fill="rgb(23,111,193)"/><path d=" M 101.161 196.601 L 101.161 198.347 L 101.191 198.347 C 101.522 197.675 101.929 197.179 102.407 196.857 C 102.887 196.539 103.497 196.389 104.233 196.411 L 104.233 197.851 C 103.687 197.851 103.225 197.924 102.841 198.075 C 102.457 198.224 102.146 198.443 101.911 198.731 C 101.678 199.019 101.507 199.367 101.401 199.779 C 101.293 200.189 101.241 200.661 101.241 201.195 L 101.241 204.875 L 99.879 204.875 L 99.879 196.601 L 101.161 196.601 Z " fill="rgb(23,111,193)"/><path d=" M 38.361 217.003 L 38.361 215.803 L 39.753 215.803 L 39.753 214.571 C 39.753 213.899 39.947 213.388 40.338 213.041 C 40.726 212.695 41.293 212.523 42.041 212.523 C 42.169 212.523 42.315 212.533 42.481 212.555 C 42.646 212.576 42.793 212.607 42.921 212.651 L 42.921 213.833 C 42.803 213.792 42.677 213.763 42.537 213.745 C 42.398 213.731 42.27 213.721 42.153 213.721 C 41.822 213.721 41.567 213.787 41.385 213.915 C 41.203 214.041 41.114 214.288 41.114 214.651 L 41.114 215.803 L 42.713 215.803 L 42.713 217.003 L 41.114 217.003 L 41.114 224.075 L 39.753 224.075 L 39.753 217.003 L 38.361 217.003 Z " fill="rgb(23,111,193)"/><path d=" M 45.122 221.281 C 45.254 221.672 45.438 221.997 45.674 222.257 C 45.907 222.52 46.181 222.719 46.497 222.857 C 46.811 222.997 47.145 223.067 47.497 223.067 C 47.847 223.067 48.181 222.997 48.497 222.857 C 48.811 222.719 49.085 222.52 49.321 222.257 C 49.555 221.997 49.738 221.672 49.873 221.281 C 50.007 220.893 50.071 220.448 50.071 219.945 C 50.071 219.445 50.007 219 49.873 218.609 C 49.738 218.221 49.555 217.893 49.321 217.627 C 49.085 217.36 48.811 217.156 48.497 217.019 C 48.181 216.88 47.847 216.809 47.497 216.809 C 47.145 216.809 46.811 216.88 46.497 217.019 C 46.181 217.156 45.907 217.36 45.674 217.627 C 45.438 217.893 45.254 218.221 45.122 218.609 C 44.987 219 44.921 219.445 44.921 219.945 C 44.921 220.448 44.987 220.893 45.122 221.281 Z  M 43.735 218.243 C 43.907 217.713 44.163 217.255 44.505 216.867 C 44.846 216.476 45.267 216.169 45.769 215.945 C 46.27 215.721 46.846 215.609 47.497 215.609 C 48.158 215.609 48.735 215.721 49.234 215.945 C 49.729 216.169 50.147 216.476 50.489 216.867 C 50.83 217.255 51.085 217.713 51.257 218.243 C 51.427 218.771 51.513 219.339 51.513 219.945 C 51.513 220.555 51.427 221.12 51.257 221.641 C 51.085 222.164 50.83 222.621 50.489 223.011 C 50.147 223.4 49.729 223.703 49.234 223.921 C 48.735 224.14 48.158 224.251 47.497 224.251 C 46.846 224.251 46.27 224.14 45.769 223.921 C 45.267 223.703 44.846 223.4 44.505 223.011 C 44.163 222.621 43.907 222.164 43.735 221.641 C 43.567 221.12 43.481 220.555 43.481 219.945 C 43.481 219.339 43.567 218.771 43.735 218.243 Z " fill="rgb(23,111,193)"/><path d=" M 54.346 215.803 L 54.346 217.547 L 54.377 217.547 C 54.707 216.875 55.114 216.377 55.593 216.057 C 56.071 215.739 56.681 215.588 57.417 215.609 L 57.417 217.049 C 56.873 217.049 56.409 217.125 56.025 217.273 C 55.641 217.424 55.331 217.641 55.097 217.929 C 54.862 218.219 54.691 218.568 54.585 218.979 C 54.478 219.388 54.425 219.86 54.425 220.395 L 54.425 224.075 L 53.065 224.075 L 53.065 215.803 L 54.346 215.803 Z " fill="rgb(23,111,193)"/><path d=" M 66.199 224.075 L 66.199 215.945 L 63.257 215.945 L 63.257 214.857 C 63.639 214.857 64.013 214.828 64.377 214.771 C 64.738 214.711 65.067 214.601 65.361 214.443 C 65.653 214.281 65.901 214.064 66.105 213.787 C 66.306 213.509 66.446 213.156 66.519 212.731 L 67.561 212.731 L 67.561 224.075 L 66.199 224.075 Z " fill="rgb(23,111,193)"/><path d=" M 71.641 215.145 C 71.79 214.656 72.022 214.232 72.338 213.875 C 72.651 213.517 73.043 213.237 73.513 213.033 C 73.982 212.832 74.514 212.731 75.114 212.731 C 75.603 212.731 76.065 212.803 76.497 212.945 C 76.929 213.091 77.305 213.299 77.623 213.571 C 77.945 213.843 78.198 214.181 78.385 214.585 C 78.571 214.992 78.666 215.461 78.666 215.995 C 78.666 216.495 78.587 216.937 78.433 217.323 C 78.278 217.705 78.071 218.049 77.817 218.355 C 77.562 218.659 77.267 218.932 76.937 219.179 C 76.606 219.424 76.265 219.659 75.913 219.883 C 75.562 220.096 75.209 220.305 74.855 220.515 C 74.505 220.721 74.181 220.944 73.89 221.179 C 73.595 221.412 73.346 221.667 73.137 221.937 C 72.929 222.211 72.793 222.523 72.729 222.875 L 78.554 222.875 L 78.554 224.075 L 71.145 224.075 C 71.198 223.403 71.318 222.828 71.505 222.355 C 71.691 221.88 71.929 221.467 72.217 221.115 C 72.505 220.763 72.83 220.453 73.193 220.187 C 73.555 219.919 73.934 219.669 74.329 219.435 C 74.809 219.136 75.231 218.86 75.593 218.609 C 75.955 218.36 76.257 218.107 76.497 217.851 C 76.735 217.593 76.918 217.317 77.041 217.019 C 77.163 216.719 77.226 216.372 77.226 215.979 C 77.226 215.669 77.166 215.388 77.049 215.139 C 76.931 214.888 76.774 214.672 76.577 214.489 C 76.379 214.309 76.147 214.169 75.881 214.075 C 75.614 213.979 75.331 213.929 75.033 213.929 C 74.637 213.929 74.298 214.013 74.017 214.179 C 73.734 214.344 73.502 214.56 73.321 214.825 C 73.139 215.093 73.01 215.395 72.929 215.731 C 72.847 216.067 72.814 216.405 72.825 216.745 L 71.465 216.745 C 71.433 216.169 71.491 215.636 71.641 215.145 Z " fill="rgb(23,111,193)"/><path d=" M 81.809 219.921 C 81.835 220.451 81.921 220.945 82.065 221.411 C 82.209 221.875 82.441 222.265 82.761 222.585 C 83.079 222.907 83.527 223.067 84.105 223.067 C 84.681 223.067 85.129 222.907 85.45 222.585 C 85.769 222.265 86.001 221.875 86.145 221.411 C 86.289 220.945 86.374 220.451 86.401 219.921 C 86.426 219.395 86.441 218.917 86.441 218.489 C 86.441 218.213 86.438 217.907 86.433 217.571 C 86.426 217.235 86.401 216.899 86.353 216.563 C 86.303 216.227 86.235 215.899 86.145 215.579 C 86.054 215.257 85.921 214.979 85.743 214.739 C 85.569 214.497 85.347 214.305 85.079 214.153 C 84.814 214.005 84.489 213.929 84.105 213.929 C 83.721 213.929 83.395 214.005 83.129 214.153 C 82.861 214.305 82.639 214.497 82.465 214.739 C 82.289 214.979 82.155 215.257 82.065 215.579 C 81.973 215.899 81.905 216.227 81.855 216.563 C 81.809 216.899 81.782 217.235 81.777 217.571 C 81.771 217.907 81.769 218.213 81.769 218.489 C 81.769 218.917 81.782 219.395 81.809 219.921 Z  M 80.361 217.211 C 80.382 216.763 80.435 216.325 80.519 215.899 C 80.606 215.472 80.729 215.067 80.889 214.683 C 81.049 214.299 81.267 213.963 81.545 213.675 C 81.822 213.385 82.171 213.156 82.593 212.987 C 83.014 212.815 83.517 212.731 84.105 212.731 C 84.691 212.731 85.194 212.815 85.617 212.987 C 86.038 213.156 86.387 213.385 86.665 213.675 C 86.942 213.963 87.161 214.299 87.321 214.683 C 87.481 215.067 87.603 215.472 87.689 215.899 C 87.774 216.325 87.827 216.763 87.847 217.211 C 87.87 217.659 87.881 218.091 87.881 218.507 C 87.881 218.921 87.87 219.355 87.847 219.803 C 87.827 220.251 87.774 220.688 87.689 221.115 C 87.603 221.541 87.481 221.944 87.321 222.323 C 87.161 222.7 86.942 223.033 86.665 223.323 C 86.387 223.609 86.041 223.837 85.623 224.003 C 85.209 224.167 84.702 224.251 84.105 224.251 C 83.517 224.251 83.014 224.167 82.593 224.003 C 82.171 223.837 81.822 223.609 81.545 223.323 C 81.267 223.033 81.049 222.7 80.889 222.323 C 80.729 221.944 80.606 221.541 80.519 221.115 C 80.435 220.688 80.382 220.251 80.361 219.803 C 80.339 219.355 80.329 218.921 80.329 218.507 C 80.329 218.091 80.339 217.659 80.361 217.211 Z " fill="rgb(23,111,193)"/><path d=" M 95.873 218.739 C 95.771 218.369 95.617 218.041 95.407 217.753 C 95.199 217.467 94.934 217.237 94.609 217.067 C 94.283 216.896 93.901 216.809 93.465 216.809 C 93.006 216.809 92.617 216.901 92.295 217.081 C 91.975 217.263 91.715 217.5 91.513 217.795 C 91.309 218.088 91.163 218.421 91.071 218.795 C 90.981 219.168 90.937 219.547 90.937 219.929 C 90.937 220.336 90.985 220.728 91.079 221.107 C 91.177 221.484 91.329 221.817 91.535 222.107 C 91.743 222.395 92.013 222.627 92.346 222.803 C 92.675 222.979 93.074 223.067 93.545 223.067 C 94.013 223.067 94.405 222.976 94.721 222.795 C 95.035 222.613 95.289 222.372 95.481 222.075 C 95.673 221.776 95.811 221.435 95.897 221.049 C 95.981 220.667 96.025 220.271 96.025 219.867 C 96.025 219.481 95.973 219.107 95.873 218.739 L 95.873 218.739 Z  M 90.985 215.803 L 90.985 216.921 L 91.017 216.921 C 91.241 216.464 91.593 216.131 92.071 215.921 C 92.553 215.713 93.079 215.609 93.657 215.609 C 94.295 215.609 94.853 215.728 95.329 215.963 C 95.803 216.197 96.197 216.515 96.513 216.915 C 96.827 217.315 97.065 217.776 97.225 218.299 C 97.385 218.82 97.465 219.375 97.465 219.963 C 97.465 220.549 97.387 221.104 97.233 221.627 C 97.077 222.148 96.843 222.604 96.527 222.995 C 96.214 223.383 95.819 223.691 95.346 223.915 C 94.869 224.139 94.317 224.251 93.689 224.251 C 93.486 224.251 93.259 224.229 93.009 224.187 C 92.757 224.143 92.51 224.075 92.265 223.979 C 92.019 223.883 91.787 223.752 91.569 223.585 C 91.35 223.421 91.166 223.216 91.017 222.969 L 90.985 222.969 L 90.985 227.227 L 89.623 227.227 L 89.623 215.803 L 90.985 215.803 Z " fill="rgb(23,111,193)"/><path d=" M 98.407 215.803 L 100.153 215.803 L 102.135 218.697 L 104.199 215.803 L 105.833 215.803 L 102.983 219.609 L 106.183 224.075 L 104.439 224.075 L 102.135 220.651 L 99.833 224.075 L 98.183 224.075 L 101.289 219.721 L 98.407 215.803 Z " fill="rgb(23,111,193)"/><path d=" M 119.609 219.481 L 119.609 220.571 L 116.121 220.571 L 116.121 224.075 L 115.033 224.075 L 115.033 220.571 L 111.545 220.571 L 111.545 219.481 L 115.033 219.481 L 115.033 215.979 L 116.121 215.979 L 116.121 219.481 L 119.609 219.481 Z " fill="rgb(23,111,193)"/><path d=" M -182.505 433.591 C -194.497 433.591 -204.222 443.315 -204.222 455.311 C -204.222 464.907 -197.999 473.047 -189.369 475.919 C -188.282 476.119 -187.886 475.448 -187.886 474.872 C -187.886 474.356 -187.905 472.991 -187.915 471.179 C -193.957 472.491 -195.231 468.267 -195.231 468.267 C -196.219 465.757 -197.643 465.089 -197.643 465.089 C -199.615 463.743 -197.494 463.769 -197.494 463.769 C -195.314 463.923 -194.167 466.008 -194.167 466.008 C -192.23 469.327 -189.083 468.368 -187.846 467.812 C -187.649 466.409 -187.087 465.452 -186.467 464.909 C -191.29 464.361 -196.361 462.497 -196.361 454.175 C -196.361 451.804 -195.514 449.864 -194.125 448.347 C -194.349 447.797 -195.094 445.588 -193.911 442.599 C -193.911 442.599 -192.089 442.015 -187.939 444.825 C -186.207 444.343 -184.349 444.103 -182.502 444.093 C -180.657 444.103 -178.799 444.343 -177.065 444.825 C -172.918 442.015 -171.098 442.599 -171.098 442.599 C -169.913 445.588 -170.658 447.797 -170.881 448.347 C -169.489 449.864 -168.649 451.804 -168.649 454.175 C -168.649 462.519 -173.727 464.355 -178.565 464.892 C -177.786 465.563 -177.091 466.888 -177.091 468.913 C -177.091 471.817 -177.118 474.16 -177.118 474.872 C -177.118 475.453 -176.726 476.129 -175.625 475.917 C -167.001 473.039 -160.783 464.904 -160.783 455.311 C -160.783 443.315 -170.509 433.591 -182.505 433.591 Z " fill-rule="evenodd" fill="rgb(255,255,255)"/><path d=" M 81.497 368.245 C 37.034 368.245 0.979 404.292 0.979 448.761 C 0.979 484.336 24.05 514.517 56.042 525.164 C 60.066 525.909 61.543 523.417 61.543 521.291 C 61.543 519.371 61.469 513.028 61.434 506.3 C 39.034 511.171 34.307 496.8 34.307 496.8 C 30.645 487.493 25.367 485.019 25.367 485.019 C 18.062 480.021 25.918 480.124 25.918 480.124 C 34.003 480.691 38.261 488.421 38.261 488.421 C 45.442 500.731 57.097 497.172 61.691 495.115 C 62.414 489.912 64.501 486.357 66.803 484.348 C 48.919 482.312 30.119 475.408 30.119 444.556 C 30.119 435.765 33.265 428.583 38.415 422.944 C 37.579 420.915 34.823 412.727 39.195 401.636 C 39.195 401.636 45.957 399.472 61.343 409.889 C 67.766 408.105 74.654 407.211 81.497 407.18 C 88.339 407.211 95.233 408.105 101.667 409.889 C 117.035 399.472 123.787 401.636 123.787 401.636 C 128.17 412.727 125.413 420.915 124.577 422.944 C 129.739 428.583 132.863 435.765 132.863 444.556 C 132.863 475.481 114.027 482.291 96.098 484.284 C 98.986 486.783 101.559 491.683 101.559 499.195 C 101.559 509.967 101.466 518.637 101.466 521.291 C 101.466 523.433 102.915 525.944 106.997 525.153 C 138.971 514.495 162.013 484.324 162.013 448.761 C 162.013 404.292 125.963 368.245 81.497 368.245 Z " fill-rule="evenodd" fill="rgb(255,255,255)"/><path d=" M 31.475 483.849 C 31.298 484.251 30.669 484.369 30.095 484.095 C 29.511 483.832 29.183 483.287 29.373 482.885 C 29.546 482.473 30.177 482.36 30.759 482.633 C 31.345 482.897 31.678 483.448 31.475 483.849 L 31.475 483.849 Z " fill="rgb(255,255,255)"/><path d=" M 34.737 487.487 C 34.353 487.843 33.602 487.677 33.093 487.115 C 32.566 486.553 32.467 485.803 32.857 485.441 C 33.253 485.085 33.981 485.252 34.509 485.813 C 35.035 486.381 35.138 487.127 34.737 487.487 L 34.737 487.487 Z " fill="rgb(255,255,255)"/><path d=" M 37.911 492.124 C 37.418 492.467 36.611 492.145 36.113 491.429 C 35.619 490.713 35.619 489.855 36.123 489.511 C 36.623 489.167 37.418 489.476 37.923 490.187 C 38.415 490.913 38.415 491.773 37.911 492.124 L 37.911 492.124 Z " fill="rgb(255,255,255)"/><path d=" M 42.261 496.604 C 41.819 497.091 40.879 496.96 40.191 496.296 C 39.487 495.647 39.291 494.725 39.734 494.239 C 40.181 493.751 41.126 493.888 41.819 494.547 C 42.518 495.195 42.731 496.123 42.261 496.604 L 42.261 496.604 Z " fill="rgb(255,255,255)"/><path d=" M 48.261 499.205 C 48.066 499.836 47.161 500.123 46.249 499.855 C 45.338 499.579 44.742 498.84 44.926 498.203 C 45.115 497.568 46.025 497.269 46.943 497.556 C 47.853 497.831 48.45 498.564 48.261 499.205 L 48.261 499.205 Z " fill="rgb(255,255,255)"/><path d=" M 54.85 499.688 C 54.873 500.352 54.099 500.903 53.142 500.913 C 52.179 500.936 51.401 500.399 51.39 499.745 C 51.39 499.075 52.146 498.529 53.109 498.513 C 54.066 498.495 54.85 499.028 54.85 499.688 L 54.85 499.688 Z " fill="rgb(255,255,255)"/><path d=" M 60.982 498.644 C 61.097 499.292 60.431 499.957 59.481 500.133 C 58.546 500.305 57.681 499.905 57.562 499.263 C 57.446 498.599 58.123 497.933 59.057 497.761 C 60.009 497.596 60.861 497.985 60.982 498.644 L 60.982 498.644 Z " fill="rgb(255,255,255)"/><clipPath id="_clipPath_haXRmqtemjWyxuyMCafQ9VgqRCzhx17w"><path d=" M -709.982 -324.336 L -61.982 -324.336 L -61.982 307.664 L -709.982 307.664 L -709.982 -324.336 Z " fill="rgb(255,255,255)"/></clipPath><g clip-path="url(#_clipPath_haXRmqtemjWyxuyMCafQ9VgqRCzhx17w)"><mask id="_mask_s02NBtYtjWpptdS3CLTYft3VS06NC3Nx" x="-200%" y="-200%" width="400%" height="400%"><rect x="-200%" y="-200%" width="400%" height="400%" style="fill:white;"/><line x1="-86.118" y1="360.333" x2="-86.118" y2="361" fill="black" stroke="none"/></mask><line x1="-86.118" y1="360.333" x2="-86.118" y2="361" mask="url(#_mask_s02NBtYtjWpptdS3CLTYft3VS06NC3Nx)" vector-effect="non-scaling-stroke" stroke-width="2.667" stroke="rgb(58,127,195)" stroke-opacity="100" stroke-linejoin="miter" stroke-linecap="round" stroke-miterlimit="10"/></g><clipPath id="_clipPath_QSQmiFKxWqlYMDL9FKM5I0L3PWCYEEEH"><path d=" M -709.982 -324.336 L -61.982 -324.336 L -61.982 307.664 L -709.982 307.664 L -709.982 -324.336 Z " fill="rgb(255,255,255)"/></clipPath><g clip-path="url(#_clipPath_QSQmiFKxWqlYMDL9FKM5I0L3PWCYEEEH)"><mask id="_mask_60K0giVMtGPZOXnZTAJLklux7UP156iK" x="-200%" y="-200%" width="400%" height="400%"><rect x="-200%" y="-200%" width="400%" height="400%" style="fill:white;"/><line x1="-86.118" y1="363.667" x2="-86.118" y2="542.324" fill="black" stroke="none"/></mask><line x1="-86.118" y1="363.667" x2="-86.118" y2="542.324" mask="url(#_mask_60K0giVMtGPZOXnZTAJLklux7UP156iK)" vector-effect="non-scaling-stroke" stroke-width="2.667" stroke="rgb(58,127,195)" stroke-opacity="100" stroke-linejoin="miter" stroke-linecap="round" stroke-miterlimit="10"/></g><clipPath id="_clipPath_GAFLK42EOxpHsCu2g32aqJv3UOeuhEEe"><path d=" M -709.982 -324.336 L -61.982 -324.336 L -61.982 307.664 L -709.982 307.664 L -709.982 -324.336 Z " fill="rgb(255,255,255)"/></clipPath><g clip-path="url(#_clipPath_GAFLK42EOxpHsCu2g32aqJv3UOeuhEEe)"><mask id="_mask_ZTNRFNS1zy3X9uZAzP17aGuhf8p8uj8g" x="-200%" y="-200%" width="400%" height="400%"><rect x="-200%" y="-200%" width="400%" height="400%" style="fill:white;"/><line x1="-86.118" y1="543.657" x2="-86.118" y2="544.324" fill="black" stroke="none"/></mask><line x1="-86.118" y1="543.657" x2="-86.118" y2="544.324" mask="url(#_mask_ZTNRFNS1zy3X9uZAzP17aGuhf8p8uj8g)" vector-effect="non-scaling-stroke" stroke-width="2.667" stroke="rgb(58,127,195)" stroke-opacity="100" stroke-linejoin="miter" stroke-linecap="round" stroke-miterlimit="10"/></g><path d=" M -208.281 563.012 C -208.789 562.643 -209.435 562.46 -210.225 562.46 C -210.545 562.46 -210.859 562.492 -211.169 562.555 C -211.479 562.62 -211.753 562.727 -211.993 562.875 C -212.233 563.027 -212.425 563.225 -212.57 563.476 C -212.713 563.727 -212.785 564.039 -212.785 564.412 C -212.785 564.763 -212.682 565.049 -212.473 565.268 C -212.266 565.487 -211.987 565.665 -211.641 565.804 C -211.294 565.943 -210.903 566.057 -210.465 566.148 C -210.027 566.239 -209.582 566.337 -209.129 566.443 C -208.675 566.549 -208.231 566.676 -207.793 566.82 C -207.355 566.964 -206.963 567.159 -206.617 567.404 C -206.27 567.648 -205.993 567.959 -205.785 568.331 C -205.577 568.705 -205.473 569.175 -205.473 569.74 C -205.473 570.348 -205.609 570.867 -205.881 571.3 C -206.154 571.732 -206.502 572.084 -206.929 572.356 C -207.355 572.628 -207.833 572.825 -208.361 572.948 C -208.889 573.07 -209.414 573.132 -209.937 573.132 C -210.577 573.132 -211.182 573.052 -211.753 572.892 C -212.323 572.732 -212.825 572.489 -213.257 572.164 C -213.689 571.839 -214.03 571.421 -214.281 570.915 C -214.531 570.409 -214.657 569.809 -214.657 569.116 L -213.217 569.116 C -213.217 569.596 -213.125 570.009 -212.937 570.356 C -212.75 570.703 -212.505 570.987 -212.201 571.211 C -211.897 571.435 -211.543 571.601 -211.137 571.708 C -210.731 571.815 -210.317 571.867 -209.889 571.867 C -209.547 571.867 -209.203 571.836 -208.857 571.77 C -208.51 571.708 -208.198 571.599 -207.921 571.443 C -207.643 571.289 -207.419 571.079 -207.249 570.812 C -207.078 570.544 -206.993 570.203 -206.993 569.788 C -206.993 569.393 -207.098 569.073 -207.305 568.828 C -207.513 568.584 -207.791 568.382 -208.137 568.228 C -208.485 568.073 -208.877 567.948 -209.313 567.852 C -209.75 567.755 -210.195 567.656 -210.649 567.555 C -211.102 567.455 -211.547 567.337 -211.985 567.203 C -212.422 567.07 -212.815 566.894 -213.161 566.676 C -213.507 566.457 -213.785 566.175 -213.993 565.828 C -214.201 565.481 -214.305 565.047 -214.305 564.523 C -214.305 563.948 -214.187 563.449 -213.953 563.028 C -213.718 562.606 -213.406 562.26 -213.017 561.987 C -212.627 561.716 -212.185 561.513 -211.689 561.38 C -211.193 561.247 -210.683 561.18 -210.161 561.18 C -209.574 561.18 -209.03 561.251 -208.529 561.388 C -208.027 561.527 -207.587 561.745 -207.21 562.044 C -206.83 562.343 -206.531 562.719 -206.313 563.172 C -206.095 563.625 -205.974 564.167 -205.953 564.796 L -207.393 564.796 C -207.479 563.974 -207.774 563.38 -208.281 563.012 Z " fill="rgb(23,111,193)"/><path d=" M -202.577 564.604 L -202.577 565.82 L -202.545 565.82 C -201.927 564.88 -201.037 564.412 -199.874 564.412 C -199.361 564.412 -198.898 564.519 -198.482 564.732 C -198.065 564.945 -197.771 565.307 -197.601 565.82 C -197.323 565.372 -196.958 565.027 -196.505 564.78 C -196.051 564.533 -195.553 564.412 -195.01 564.412 C -194.594 564.412 -194.217 564.457 -193.881 564.547 C -193.545 564.637 -193.258 564.78 -193.017 564.97 C -192.777 565.164 -192.591 565.412 -192.458 565.716 C -192.323 566.02 -192.258 566.386 -192.258 566.812 L -192.258 572.875 L -193.617 572.875 L -193.617 567.452 C -193.617 567.194 -193.639 566.956 -193.682 566.732 C -193.723 566.508 -193.803 566.312 -193.921 566.148 C -194.039 565.981 -194.202 565.852 -194.409 565.755 C -194.617 565.659 -194.886 565.612 -195.217 565.612 C -195.889 565.612 -196.417 565.804 -196.801 566.188 C -197.185 566.572 -197.377 567.084 -197.377 567.724 L -197.377 572.875 L -198.738 572.875 L -198.738 567.452 C -198.738 567.186 -198.762 566.94 -198.809 566.716 C -198.857 566.492 -198.939 566.298 -199.057 566.132 C -199.175 565.967 -199.331 565.839 -199.529 565.747 C -199.727 565.656 -199.981 565.612 -200.289 565.612 C -200.683 565.612 -201.022 565.691 -201.305 565.852 C -201.589 566.012 -201.818 566.203 -201.993 566.427 C -202.169 566.651 -202.297 566.882 -202.377 567.124 C -202.458 567.364 -202.497 567.564 -202.497 567.724 L -202.497 572.875 L -203.857 572.875 L -203.857 564.604 L -202.577 564.604 Z " fill="rgb(23,111,193)"/><path d=" M -185.762 568.882 C -186.039 568.943 -186.329 568.989 -186.633 569.028 C -186.937 569.065 -187.245 569.106 -187.554 569.156 C -187.863 569.203 -188.141 569.281 -188.385 569.388 C -188.631 569.494 -188.831 569.645 -188.986 569.844 C -189.141 570.041 -189.217 570.309 -189.217 570.651 C -189.217 570.875 -189.173 571.065 -189.082 571.219 C -188.991 571.375 -188.874 571.5 -188.73 571.596 C -188.586 571.691 -188.415 571.76 -188.217 571.804 C -188.019 571.847 -187.821 571.867 -187.618 571.867 C -187.17 571.867 -186.786 571.807 -186.465 571.684 C -186.146 571.561 -185.885 571.406 -185.682 571.219 C -185.479 571.033 -185.329 570.831 -185.234 570.612 C -185.138 570.393 -185.09 570.188 -185.09 569.994 L -185.09 568.604 C -185.261 568.732 -185.485 568.825 -185.762 568.882 L -185.762 568.882 Z  M -183.857 573.052 C -184.21 573.052 -184.489 572.953 -184.698 572.755 C -184.905 572.559 -185.01 572.236 -185.01 571.788 C -185.383 572.236 -185.818 572.559 -186.314 572.755 C -186.81 572.953 -187.346 573.052 -187.922 573.052 C -188.294 573.052 -188.647 573.012 -188.978 572.932 C -189.309 572.852 -189.599 572.719 -189.849 572.531 C -190.099 572.345 -190.297 572.105 -190.441 571.812 C -190.586 571.519 -190.657 571.164 -190.657 570.747 C -190.657 570.279 -190.577 569.894 -190.418 569.596 C -190.258 569.298 -190.047 569.055 -189.786 568.867 C -189.525 568.681 -189.226 568.539 -188.89 568.443 C -188.554 568.348 -188.21 568.268 -187.857 568.203 C -187.485 568.129 -187.129 568.073 -186.793 568.036 C -186.458 567.999 -186.161 567.945 -185.905 567.875 C -185.65 567.807 -185.447 567.705 -185.297 567.572 C -185.149 567.437 -185.073 567.244 -185.073 566.987 C -185.073 566.689 -185.129 566.449 -185.241 566.268 C -185.353 566.086 -185.498 565.948 -185.674 565.852 C -185.849 565.755 -186.047 565.691 -186.266 565.659 C -186.485 565.628 -186.701 565.612 -186.913 565.612 C -187.489 565.612 -187.969 565.721 -188.353 565.94 C -188.738 566.159 -188.946 566.572 -188.978 567.18 L -190.338 567.18 C -190.317 566.668 -190.21 566.236 -190.017 565.882 C -189.825 565.531 -189.57 565.247 -189.25 565.028 C -188.93 564.809 -188.562 564.651 -188.146 564.555 C -187.73 564.46 -187.293 564.412 -186.834 564.412 C -186.459 564.412 -186.09 564.437 -185.722 564.492 C -185.353 564.544 -185.019 564.653 -184.722 564.82 C -184.423 564.984 -184.182 565.217 -184.002 565.516 C -183.821 565.815 -183.73 566.203 -183.73 566.684 L -183.73 570.94 C -183.73 571.26 -183.71 571.494 -183.674 571.643 C -183.637 571.793 -183.51 571.867 -183.297 571.867 C -183.179 571.867 -183.042 571.841 -182.881 571.788 L -182.881 572.844 C -183.117 572.981 -183.441 573.052 -183.857 573.052 Z " fill="rgb(23,111,193)"/><path d=" M -180.177 561.452 L -180.177 572.875 L -181.538 572.875 L -181.538 561.452 L -180.177 561.452 Z " fill="rgb(23,111,193)"/><path d=" M -176.626 561.452 L -176.626 572.875 L -177.986 572.875 L -177.986 561.452 L -176.626 561.452 Z " fill="rgb(23,111,193)"/><path d=" M -250.177 585.003 L -250.177 583.804 L -248.785 583.804 L -248.785 582.572 C -248.785 581.9 -248.59 581.391 -248.201 581.044 C -247.811 580.698 -247.243 580.523 -246.497 580.523 C -246.369 580.523 -246.222 580.533 -246.057 580.555 C -245.891 580.577 -245.745 580.609 -245.617 580.651 L -245.617 581.836 C -245.734 581.793 -245.862 581.763 -246.001 581.747 C -246.139 581.732 -246.267 581.724 -246.385 581.724 C -246.715 581.724 -246.971 581.788 -247.153 581.915 C -247.334 582.044 -247.425 582.289 -247.425 582.651 L -247.425 583.804 L -245.825 583.804 L -245.825 585.003 L -247.425 585.003 L -247.425 592.076 L -248.785 592.076 L -248.785 585.003 L -250.177 585.003 Z " fill="rgb(23,111,193)"/><path d=" M -243.417 589.284 C -243.285 589.673 -243.099 589.998 -242.865 590.26 C -242.63 590.521 -242.355 590.721 -242.042 590.86 C -241.727 590.998 -241.393 591.068 -241.042 591.068 C -240.689 591.068 -240.355 590.998 -240.042 590.86 C -239.727 590.721 -239.453 590.521 -239.217 590.26 C -238.983 589.998 -238.798 589.673 -238.665 589.284 C -238.531 588.894 -238.465 588.449 -238.465 587.948 C -238.465 587.445 -238.531 587.001 -238.665 586.612 C -238.798 586.221 -238.983 585.894 -239.217 585.628 C -239.453 585.361 -239.727 585.159 -240.042 585.02 C -240.355 584.88 -240.689 584.811 -241.042 584.811 C -241.393 584.811 -241.727 584.88 -242.042 585.02 C -242.355 585.159 -242.63 585.361 -242.865 585.628 C -243.099 585.894 -243.285 586.221 -243.417 586.612 C -243.55 587.001 -243.617 587.445 -243.617 587.948 C -243.617 588.449 -243.55 588.894 -243.417 589.284 Z  M -244.801 586.244 C -244.63 585.716 -244.375 585.257 -244.033 584.867 C -243.691 584.479 -243.27 584.172 -242.769 583.948 C -242.267 583.724 -241.691 583.612 -241.042 583.612 C -240.379 583.612 -239.801 583.724 -239.305 583.948 C -238.809 584.172 -238.391 584.479 -238.049 584.867 C -237.709 585.257 -237.453 585.716 -237.281 586.244 C -237.11 586.77 -237.025 587.34 -237.025 587.948 C -237.025 588.555 -237.11 589.121 -237.281 589.643 C -237.453 590.167 -237.709 590.623 -238.049 591.012 C -238.391 591.401 -238.809 591.705 -239.305 591.924 C -239.801 592.141 -240.379 592.251 -241.042 592.251 C -241.691 592.251 -242.267 592.141 -242.769 591.924 C -243.27 591.705 -243.691 591.401 -244.033 591.012 C -244.375 590.623 -244.63 590.167 -244.801 589.643 C -244.971 589.121 -245.057 588.555 -245.057 587.948 C -245.057 587.34 -244.971 586.77 -244.801 586.244 Z " fill="rgb(23,111,193)"/><path d=" M -234.193 583.804 L -234.193 585.547 L -234.161 585.547 C -233.83 584.875 -233.425 584.38 -232.945 584.06 C -232.465 583.74 -231.857 583.591 -231.121 583.612 L -231.121 585.052 C -231.665 585.052 -232.129 585.127 -232.513 585.276 C -232.897 585.424 -233.207 585.643 -233.441 585.932 C -233.675 586.219 -233.847 586.569 -233.953 586.979 C -234.059 587.391 -234.113 587.861 -234.113 588.396 L -234.113 592.076 L -235.473 592.076 L -235.473 583.804 L -234.193 583.804 Z " fill="rgb(23,111,193)"/><path d=" M -222.338 592.076 L -222.338 583.948 L -225.282 583.948 L -225.282 582.86 C -224.898 582.86 -224.525 582.831 -224.162 582.77 C -223.799 582.713 -223.471 582.604 -223.178 582.443 C -222.885 582.284 -222.637 582.065 -222.433 581.788 C -222.231 581.511 -222.093 581.159 -222.017 580.732 L -220.978 580.732 L -220.978 592.076 L -222.338 592.076 Z " fill="rgb(23,111,193)"/><path d=" M -214.21 586.18 C -214.497 586.312 -214.742 586.494 -214.945 586.724 C -215.147 586.953 -215.299 587.225 -215.401 587.539 C -215.502 587.855 -215.553 588.188 -215.553 588.539 C -215.553 588.891 -215.499 589.221 -215.393 589.531 C -215.287 589.841 -215.134 590.106 -214.937 590.331 C -214.739 590.555 -214.494 590.735 -214.201 590.867 C -213.907 591.001 -213.574 591.068 -213.201 591.068 C -212.827 591.068 -212.499 591.001 -212.217 590.867 C -211.934 590.735 -211.697 590.549 -211.505 590.315 C -211.313 590.08 -211.166 589.811 -211.065 589.508 C -210.963 589.203 -210.913 588.886 -210.913 588.555 C -210.913 588.203 -210.958 587.869 -211.049 587.555 C -211.139 587.241 -211.281 586.969 -211.473 586.74 C -211.665 586.511 -211.905 586.325 -212.193 586.188 C -212.481 586.049 -212.817 585.979 -213.201 585.979 C -213.585 585.979 -213.921 586.047 -214.21 586.18 Z  M -211.745 582.396 C -212.075 582.086 -212.513 581.932 -213.057 581.932 C -213.633 581.932 -214.098 582.073 -214.449 582.356 C -214.801 582.637 -215.075 582.994 -215.273 583.427 C -215.47 583.86 -215.606 584.325 -215.682 584.828 C -215.755 585.328 -215.798 585.799 -215.809 586.236 L -215.777 586.268 C -215.457 585.745 -215.059 585.367 -214.585 585.132 C -214.11 584.898 -213.563 584.779 -212.945 584.779 C -212.401 584.779 -211.913 584.872 -211.481 585.06 C -211.049 585.247 -210.686 585.505 -210.393 585.836 C -210.099 586.167 -209.873 586.555 -209.713 587.003 C -209.553 587.452 -209.473 587.937 -209.473 588.46 C -209.473 588.875 -209.537 589.307 -209.665 589.755 C -209.793 590.203 -210.003 590.612 -210.297 590.979 C -210.591 591.348 -210.979 591.651 -211.465 591.891 C -211.95 592.132 -212.55 592.251 -213.266 592.251 C -214.107 592.251 -214.785 592.08 -215.297 591.74 C -215.809 591.399 -216.203 590.961 -216.481 590.427 C -216.759 589.894 -216.942 589.307 -217.033 588.667 C -217.125 588.028 -217.169 587.409 -217.169 586.811 C -217.169 586.033 -217.102 585.279 -216.969 584.547 C -216.835 583.817 -216.609 583.169 -216.289 582.604 C -215.969 582.039 -215.543 581.586 -215.009 581.244 C -214.475 580.903 -213.803 580.732 -212.993 580.732 C -212.054 580.732 -211.307 580.979 -210.753 581.475 C -210.198 581.97 -209.878 582.689 -209.793 583.628 L -211.154 583.628 C -211.217 583.115 -211.414 582.705 -211.745 582.396 Z " fill="rgb(23,111,193)"/><path d=" M -201.561 586.74 C -201.662 586.372 -201.818 586.044 -202.025 585.755 C -202.234 585.467 -202.499 585.239 -202.825 585.068 C -203.151 584.898 -203.533 584.811 -203.969 584.811 C -204.429 584.811 -204.818 584.903 -205.137 585.084 C -205.458 585.265 -205.718 585.503 -205.921 585.796 C -206.125 586.088 -206.27 586.421 -206.361 586.796 C -206.453 587.169 -206.497 587.547 -206.497 587.932 C -206.497 588.337 -206.449 588.729 -206.353 589.106 C -206.258 589.487 -206.105 589.82 -205.898 590.106 C -205.689 590.396 -205.421 590.628 -205.089 590.804 C -204.759 590.979 -204.358 591.068 -203.889 591.068 C -203.421 591.068 -203.027 590.976 -202.713 590.796 C -202.398 590.615 -202.146 590.375 -201.954 590.076 C -201.762 589.777 -201.622 589.435 -201.538 589.052 C -201.453 588.667 -201.409 588.273 -201.409 587.867 C -201.409 587.484 -201.459 587.106 -201.561 586.74 L -201.561 586.74 Z  M -206.449 583.804 L -206.449 584.924 L -206.417 584.924 C -206.193 584.465 -205.842 584.132 -205.361 583.924 C -204.881 583.716 -204.353 583.612 -203.777 583.612 C -203.137 583.612 -202.579 583.729 -202.105 583.964 C -201.63 584.198 -201.237 584.516 -200.921 584.915 C -200.606 585.315 -200.37 585.777 -200.21 586.3 C -200.049 586.823 -199.969 587.377 -199.969 587.964 C -199.969 588.549 -200.046 589.104 -200.202 589.628 C -200.355 590.151 -200.591 590.606 -200.905 590.994 C -201.219 591.386 -201.615 591.691 -202.089 591.915 C -202.565 592.139 -203.117 592.251 -203.745 592.251 C -203.949 592.251 -204.175 592.229 -204.426 592.188 C -204.677 592.144 -204.925 592.076 -205.169 591.979 C -205.414 591.882 -205.647 591.752 -205.865 591.587 C -206.083 591.421 -206.267 591.216 -206.417 590.97 L -206.449 590.97 L -206.449 595.227 L -207.809 595.227 L -207.809 583.804 L -206.449 583.804 Z " fill="rgb(23,111,193)"/><path d=" M -199.026 583.804 L -197.282 583.804 L -195.298 586.699 L -193.234 583.804 L -191.601 583.804 L -194.45 587.612 L -191.25 592.076 L -192.994 592.076 L -195.298 588.651 L -197.601 592.076 L -199.25 592.076 L -196.146 587.724 L -199.026 583.804 Z " fill="rgb(23,111,193)"/><path d=" M -185.682 586.987 L -185.682 588.268 L -190.306 588.268 L -190.306 586.987 L -185.682 586.987 Z " fill="rgb(23,111,193)"/><path d=" M -180.546 592.076 L -180.546 583.948 L -183.49 583.948 L -183.49 582.86 C -183.106 582.86 -182.733 582.831 -182.37 582.77 C -182.007 582.713 -181.679 582.604 -181.386 582.443 C -181.093 582.284 -180.845 582.065 -180.642 581.788 C -180.439 581.511 -180.301 581.159 -180.226 580.732 L -179.186 580.732 L -179.186 592.076 L -180.546 592.076 Z " fill="rgb(23,111,193)"/><path d=" M -175.106 583.148 C -174.957 582.656 -174.725 582.233 -174.41 581.875 C -174.095 581.519 -173.703 581.239 -173.234 581.036 C -172.765 580.833 -172.231 580.732 -171.634 580.732 C -171.143 580.732 -170.682 580.804 -170.25 580.948 C -169.818 581.091 -169.442 581.3 -169.122 581.572 C -168.802 581.844 -168.549 582.182 -168.362 582.587 C -168.175 582.992 -168.082 583.463 -168.082 583.994 C -168.082 584.498 -168.159 584.94 -168.314 585.323 C -168.469 585.708 -168.674 586.052 -168.93 586.356 C -169.186 586.659 -169.479 586.935 -169.81 587.18 C -170.141 587.424 -170.482 587.659 -170.834 587.882 C -171.186 588.096 -171.538 588.307 -171.89 588.516 C -172.242 588.724 -172.565 588.945 -172.858 589.18 C -173.151 589.413 -173.402 589.667 -173.61 589.94 C -173.818 590.211 -173.954 590.523 -174.018 590.875 L -168.194 590.875 L -168.194 592.076 L -175.602 592.076 C -175.549 591.404 -175.429 590.831 -175.242 590.356 C -175.055 589.88 -174.818 589.467 -174.53 589.115 C -174.242 588.763 -173.917 588.455 -173.554 588.188 C -173.191 587.921 -172.813 587.67 -172.418 587.435 C -171.938 587.137 -171.517 586.861 -171.154 586.612 C -170.791 586.361 -170.49 586.106 -170.25 585.852 C -170.01 585.596 -169.829 585.317 -169.706 585.02 C -169.583 584.721 -169.522 584.375 -169.522 583.979 C -169.522 583.67 -169.581 583.391 -169.698 583.139 C -169.815 582.889 -169.973 582.673 -170.17 582.492 C -170.367 582.309 -170.599 582.172 -170.866 582.076 C -171.133 581.979 -171.415 581.932 -171.714 581.932 C -172.109 581.932 -172.447 582.015 -172.73 582.18 C -173.013 582.345 -173.245 582.561 -173.426 582.828 C -173.607 583.093 -173.738 583.396 -173.818 583.732 C -173.898 584.068 -173.933 584.406 -173.922 584.747 L -175.282 584.747 C -175.314 584.172 -175.255 583.637 -175.106 583.148 Z " fill="rgb(23,111,193)"/><path d=" M -164.938 587.924 C -164.911 588.452 -164.825 588.948 -164.682 589.412 C -164.538 589.875 -164.306 590.268 -163.986 590.587 C -163.666 590.908 -163.218 591.068 -162.642 591.068 C -162.065 591.068 -161.618 590.908 -161.297 590.587 C -160.978 590.268 -160.746 589.875 -160.601 589.412 C -160.458 588.948 -160.373 588.452 -160.346 587.924 C -160.319 587.396 -160.306 586.917 -160.306 586.492 C -160.306 586.213 -160.309 585.908 -160.314 585.572 C -160.319 585.236 -160.346 584.9 -160.394 584.564 C -160.442 584.227 -160.51 583.9 -160.601 583.58 C -160.693 583.26 -160.825 582.979 -161.002 582.74 C -161.177 582.5 -161.398 582.304 -161.666 582.156 C -161.933 582.006 -162.258 581.932 -162.642 581.932 C -163.026 581.932 -163.351 582.006 -163.618 582.156 C -163.885 582.304 -164.106 582.5 -164.282 582.74 C -164.458 582.979 -164.591 583.26 -164.682 583.58 C -164.773 583.9 -164.842 584.227 -164.89 584.564 C -164.938 584.9 -164.965 585.236 -164.97 585.572 C -164.975 585.908 -164.978 586.213 -164.978 586.492 C -164.978 586.917 -164.965 587.396 -164.938 587.924 L -164.938 587.924 Z  M -166.386 585.211 C -166.365 584.763 -166.311 584.325 -166.226 583.9 C -166.141 583.474 -166.017 583.068 -165.858 582.684 C -165.698 582.3 -165.479 581.964 -165.202 581.676 C -164.925 581.388 -164.575 581.159 -164.154 580.987 C -163.731 580.817 -163.229 580.732 -162.642 580.732 C -162.055 580.732 -161.551 580.817 -161.129 580.987 C -160.709 581.159 -160.359 581.388 -160.082 581.676 C -159.805 581.964 -159.586 582.3 -159.426 582.684 C -159.266 583.068 -159.143 583.474 -159.058 583.9 C -158.973 584.325 -158.919 584.763 -158.898 585.211 C -158.877 585.659 -158.866 586.091 -158.866 586.508 C -158.866 586.924 -158.877 587.356 -158.898 587.804 C -158.919 588.251 -158.973 588.689 -159.058 589.115 C -159.143 589.541 -159.266 589.945 -159.426 590.323 C -159.586 590.703 -159.805 591.036 -160.082 591.323 C -160.359 591.612 -160.706 591.839 -161.122 592.003 C -161.538 592.169 -162.043 592.251 -162.642 592.251 C -163.229 592.251 -163.731 592.169 -164.154 592.003 C -164.575 591.839 -164.925 591.612 -165.202 591.323 C -165.479 591.036 -165.698 590.703 -165.858 590.323 C -166.017 589.945 -166.141 589.541 -166.226 589.115 C -166.311 588.689 -166.365 588.251 -166.386 587.804 C -166.407 587.356 -166.418 586.924 -166.418 586.508 C -166.418 586.091 -166.407 585.659 -166.386 585.211 Z " fill="rgb(23,111,193)"/><path d=" M -150.874 586.74 C -150.975 586.372 -151.13 586.044 -151.338 585.755 C -151.546 585.467 -151.813 585.239 -152.138 585.068 C -152.463 584.898 -152.845 584.811 -153.282 584.811 C -153.741 584.811 -154.13 584.903 -154.45 585.084 C -154.77 585.265 -155.031 585.503 -155.234 585.796 C -155.437 586.088 -155.583 586.421 -155.674 586.796 C -155.765 587.169 -155.81 587.547 -155.81 587.932 C -155.81 588.337 -155.762 588.729 -155.666 589.106 C -155.57 589.487 -155.418 589.82 -155.21 590.106 C -155.002 590.396 -154.733 590.628 -154.401 590.804 C -154.071 590.979 -153.671 591.068 -153.202 591.068 C -152.733 591.068 -152.341 590.976 -152.026 590.796 C -151.711 590.615 -151.458 590.375 -151.266 590.076 C -151.074 589.777 -150.935 589.435 -150.85 589.052 C -150.765 588.667 -150.722 588.273 -150.722 587.867 C -150.722 587.484 -150.773 587.106 -150.874 586.74 L -150.874 586.74 Z  M -155.762 583.804 L -155.762 584.924 L -155.73 584.924 C -155.506 584.465 -155.154 584.132 -154.674 583.924 C -154.194 583.716 -153.666 583.612 -153.09 583.612 C -152.45 583.612 -151.893 583.729 -151.418 583.964 C -150.943 584.198 -150.549 584.516 -150.234 584.915 C -149.919 585.315 -149.682 585.777 -149.522 586.3 C -149.362 586.823 -149.282 587.377 -149.282 587.964 C -149.282 588.549 -149.359 589.104 -149.514 589.628 C -149.669 590.151 -149.903 590.606 -150.218 590.994 C -150.533 591.386 -150.927 591.691 -151.401 591.915 C -151.877 592.139 -152.429 592.251 -153.058 592.251 C -153.261 592.251 -153.487 592.229 -153.738 592.188 C -153.989 592.144 -154.237 592.076 -154.482 591.979 C -154.727 591.882 -154.959 591.752 -155.177 591.587 C -155.397 591.421 -155.581 591.216 -155.73 590.97 L -155.762 590.97 L -155.762 595.227 L -157.122 595.227 L -157.122 583.804 L -155.762 583.804 Z " fill="rgb(23,111,193)"/><path d=" M -148.338 583.804 L -146.594 583.804 L -144.61 586.699 L -142.546 583.804 L -140.914 583.804 L -143.762 587.612 L -140.562 592.076 L -142.306 592.076 L -144.61 588.651 L -146.914 592.076 L -148.562 592.076 L -145.458 587.724 L -148.338 583.804 Z " fill="rgb(23,111,193)"/><path d=" M 61.529 561.451 L 61.529 571.593 L 67.577 571.593 L 67.577 572.875 L 60.01 572.875 L 60.01 561.451 L 61.529 561.451 Z " fill="rgb(23,111,193)"/><path d=" M 73.129 568.882 C 72.85 568.941 72.562 568.989 72.257 569.027 C 71.953 569.064 71.645 569.106 71.337 569.153 C 71.027 569.203 70.749 569.28 70.505 569.386 C 70.259 569.492 70.059 569.645 69.905 569.843 C 69.749 570.039 69.674 570.309 69.674 570.651 C 69.674 570.875 69.718 571.064 69.809 571.219 C 69.899 571.372 70.017 571.498 70.161 571.593 C 70.303 571.689 70.475 571.76 70.674 571.803 C 70.87 571.845 71.069 571.867 71.273 571.867 C 71.721 571.867 72.105 571.804 72.425 571.682 C 72.743 571.56 73.006 571.405 73.209 571.219 C 73.41 571.031 73.562 570.828 73.657 570.609 C 73.751 570.392 73.801 570.187 73.801 569.994 L 73.801 568.601 C 73.629 568.731 73.405 568.823 73.129 568.882 L 73.129 568.882 Z  M 75.033 573.049 C 74.681 573.049 74.401 572.952 74.191 572.755 C 73.985 572.557 73.881 572.235 73.881 571.787 C 73.507 572.235 73.071 572.557 72.577 572.755 C 72.079 572.952 71.545 573.049 70.967 573.049 C 70.595 573.049 70.243 573.011 69.913 572.929 C 69.582 572.851 69.29 572.716 69.041 572.531 C 68.79 572.344 68.593 572.104 68.45 571.809 C 68.303 571.517 68.234 571.161 68.234 570.747 C 68.234 570.277 68.313 569.893 68.473 569.593 C 68.631 569.296 68.843 569.053 69.105 568.867 C 69.366 568.68 69.665 568.539 70.001 568.443 C 70.337 568.347 70.681 568.265 71.033 568.203 C 71.405 568.128 71.761 568.072 72.097 568.033 C 72.433 567.998 72.729 567.944 72.985 567.875 C 73.241 567.804 73.443 567.703 73.593 567.57 C 73.741 567.437 73.817 567.243 73.817 566.987 C 73.817 566.688 73.761 566.448 73.649 566.265 C 73.537 566.086 73.393 565.947 73.217 565.851 C 73.041 565.755 72.843 565.689 72.623 565.659 C 72.405 565.627 72.189 565.609 71.977 565.609 C 71.401 565.609 70.921 565.72 70.537 565.937 C 70.153 566.156 69.945 566.57 69.913 567.179 L 68.553 567.179 C 68.574 566.667 68.681 566.235 68.873 565.882 C 69.065 565.531 69.321 565.245 69.639 565.027 C 69.959 564.807 70.329 564.651 70.743 564.555 C 71.161 564.459 71.598 564.411 72.057 564.411 C 72.43 564.411 72.801 564.437 73.169 564.489 C 73.537 564.544 73.87 564.653 74.169 564.817 C 74.467 564.984 74.707 565.216 74.889 565.515 C 75.069 565.812 75.161 566.203 75.161 566.682 L 75.161 570.937 C 75.161 571.257 75.179 571.492 75.217 571.643 C 75.254 571.792 75.379 571.867 75.593 571.867 C 75.71 571.867 75.847 571.84 76.01 571.787 L 76.01 572.843 C 75.774 572.981 75.45 573.049 75.033 573.049 Z " fill="rgb(23,111,193)"/><path d=" M 78.505 564.601 L 78.505 566.347 L 78.535 566.347 C 78.866 565.675 79.273 565.179 79.751 564.857 C 80.233 564.539 80.841 564.389 81.577 564.411 L 81.577 565.851 C 81.033 565.851 80.569 565.924 80.183 566.075 C 79.801 566.224 79.491 566.443 79.257 566.731 C 79.022 567.019 78.85 567.367 78.743 567.779 C 78.637 568.189 78.585 568.661 78.585 569.194 L 78.585 572.875 L 77.225 572.875 L 77.225 564.601 L 78.505 564.601 Z " fill="rgb(23,111,193)"/><path d=" M 86.623 571.489 C 86.939 571.304 87.191 571.059 87.385 570.755 C 87.577 570.451 87.718 570.106 87.809 569.723 C 87.899 569.339 87.945 568.955 87.945 568.57 C 87.945 568.208 87.902 567.851 87.817 567.498 C 87.731 567.145 87.595 566.828 87.407 566.547 C 87.222 566.263 86.978 566.036 86.681 565.867 C 86.382 565.694 86.019 565.609 85.593 565.609 C 85.155 565.609 84.782 565.693 84.473 565.857 C 84.163 566.023 83.91 566.245 83.713 566.523 C 83.514 566.8 83.371 567.12 83.281 567.481 C 83.189 567.845 83.145 568.224 83.145 568.618 C 83.145 568.992 83.181 569.364 83.257 569.739 C 83.331 570.112 83.459 570.451 83.639 570.755 C 83.822 571.059 84.062 571.304 84.361 571.489 C 84.659 571.677 85.033 571.77 85.481 571.77 C 85.929 571.77 86.309 571.677 86.623 571.489 L 86.623 571.489 Z  M 88.361 575.211 C 87.741 575.882 86.771 576.219 85.45 576.219 C 85.065 576.219 84.674 576.176 84.273 576.091 C 83.873 576.005 83.51 575.867 83.183 575.675 C 82.858 575.481 82.59 575.232 82.377 574.921 C 82.163 574.612 82.046 574.235 82.025 573.787 L 83.385 573.787 C 83.395 574.031 83.473 574.24 83.617 574.411 C 83.761 574.58 83.937 574.719 84.145 574.825 C 84.353 574.932 84.579 575.011 84.825 575.059 C 85.069 575.106 85.303 575.131 85.527 575.131 C 85.977 575.131 86.355 575.052 86.665 574.899 C 86.973 574.744 87.231 574.531 87.433 574.257 C 87.634 573.987 87.782 573.659 87.873 573.273 C 87.962 572.891 88.01 572.469 88.01 572.011 L 88.01 571.467 L 87.977 571.467 C 87.741 571.979 87.387 572.355 86.913 572.593 C 86.438 572.835 85.934 572.955 85.401 572.955 C 84.782 572.955 84.243 572.843 83.786 572.618 C 83.326 572.394 82.942 572.093 82.631 571.713 C 82.323 571.336 82.09 570.893 81.937 570.386 C 81.782 569.88 81.705 569.344 81.705 568.779 C 81.705 568.288 81.769 567.784 81.898 567.265 C 82.025 566.751 82.238 566.28 82.537 565.857 C 82.835 565.437 83.231 565.091 83.721 564.817 C 84.211 564.547 84.814 564.411 85.527 564.411 C 86.051 564.411 86.53 564.527 86.967 564.755 C 87.405 564.984 87.746 565.328 87.993 565.787 L 88.01 565.787 L 88.01 564.601 L 89.289 564.601 L 89.289 572.17 C 89.289 573.524 88.978 574.539 88.361 575.211 Z " fill="rgb(23,111,193)"/><path d=" M 96.863 567.033 C 96.741 566.747 96.577 566.498 96.369 566.291 C 96.161 566.081 95.914 565.917 95.631 565.794 C 95.349 565.672 95.038 565.609 94.697 565.609 C 94.345 565.609 94.026 565.672 93.743 565.794 C 93.461 565.917 93.218 566.086 93.015 566.299 C 92.814 566.512 92.653 566.76 92.535 567.041 C 92.418 567.325 92.349 567.627 92.329 567.947 L 97.079 567.947 C 97.059 567.627 96.986 567.323 96.863 567.033 L 96.863 567.033 Z  M 97.191 572.347 C 96.574 572.815 95.794 573.049 94.855 573.049 C 94.194 573.049 93.622 572.943 93.137 572.731 C 92.65 572.517 92.242 572.219 91.913 571.835 C 91.582 571.451 91.334 570.992 91.169 570.459 C 91.003 569.924 90.909 569.344 90.889 568.713 C 90.889 568.086 90.983 567.509 91.177 566.987 C 91.369 566.464 91.637 566.011 91.983 565.627 C 92.33 565.243 92.741 564.944 93.217 564.731 C 93.69 564.517 94.21 564.411 94.777 564.411 C 95.513 564.411 96.123 564.563 96.609 564.867 C 97.093 565.17 97.483 565.557 97.777 566.027 C 98.069 566.496 98.273 567.008 98.385 567.563 C 98.497 568.117 98.541 568.645 98.519 569.145 L 92.329 569.145 C 92.317 569.509 92.361 569.853 92.457 570.179 C 92.553 570.504 92.707 570.792 92.921 571.041 C 93.133 571.293 93.405 571.492 93.735 571.643 C 94.067 571.792 94.457 571.867 94.903 571.867 C 95.481 571.867 95.953 571.733 96.319 571.467 C 96.689 571.2 96.931 570.794 97.049 570.251 L 98.393 570.251 C 98.21 571.179 97.811 571.877 97.191 572.347 Z " fill="rgb(23,111,193)"/><path d=" M 101.161 564.601 L 101.161 566.347 L 101.191 566.347 C 101.522 565.675 101.929 565.179 102.407 564.857 C 102.887 564.539 103.497 564.389 104.233 564.411 L 104.233 565.851 C 103.687 565.851 103.225 565.924 102.841 566.075 C 102.457 566.224 102.146 566.443 101.911 566.731 C 101.678 567.019 101.507 567.367 101.401 567.779 C 101.293 568.189 101.241 568.661 101.241 569.194 L 101.241 572.875 L 99.879 572.875 L 99.879 564.601 L 101.161 564.601 Z " fill="rgb(23,111,193)"/><path d=" M 38.361 585.003 L 38.361 583.803 L 39.753 583.803 L 39.753 582.57 C 39.753 581.899 39.947 581.388 40.338 581.041 C 40.726 580.694 41.293 580.523 42.041 580.523 C 42.169 580.523 42.315 580.533 42.481 580.555 C 42.646 580.576 42.793 580.606 42.921 580.651 L 42.921 581.833 C 42.803 581.792 42.677 581.763 42.537 581.747 C 42.398 581.731 42.27 581.721 42.153 581.721 C 41.822 581.721 41.567 581.787 41.385 581.913 C 41.203 582.041 41.114 582.288 41.114 582.651 L 41.114 583.803 L 42.713 583.803 L 42.713 585.003 L 41.114 585.003 L 41.114 592.075 L 39.753 592.075 L 39.753 585.003 L 38.361 585.003 Z " fill="rgb(23,111,193)"/><path d=" M 45.122 589.281 C 45.254 589.672 45.438 589.998 45.674 590.257 C 45.907 590.52 46.181 590.719 46.497 590.857 C 46.811 590.998 47.145 591.067 47.497 591.067 C 47.847 591.067 48.181 590.998 48.497 590.857 C 48.811 590.719 49.085 590.52 49.321 590.257 C 49.555 589.998 49.738 589.672 49.873 589.281 C 50.007 588.893 50.071 588.448 50.071 587.945 C 50.071 587.445 50.007 587 49.873 586.609 C 49.738 586.221 49.555 585.893 49.321 585.627 C 49.085 585.36 48.811 585.156 48.497 585.019 C 48.181 584.88 47.847 584.809 47.497 584.809 C 47.145 584.809 46.811 584.88 46.497 585.019 C 46.181 585.156 45.907 585.36 45.674 585.627 C 45.438 585.893 45.254 586.221 45.122 586.609 C 44.987 587 44.921 587.445 44.921 587.945 C 44.921 588.448 44.987 588.893 45.122 589.281 Z  M 43.735 586.243 C 43.907 585.713 44.163 585.255 44.505 584.867 C 44.846 584.476 45.267 584.169 45.769 583.945 C 46.27 583.721 46.846 583.609 47.497 583.609 C 48.158 583.609 48.735 583.721 49.234 583.945 C 49.729 584.169 50.147 584.476 50.489 584.867 C 50.83 585.255 51.085 585.713 51.257 586.243 C 51.427 586.77 51.513 587.339 51.513 587.945 C 51.513 588.555 51.427 589.12 51.257 589.641 C 51.085 590.164 50.83 590.621 50.489 591.011 C 50.147 591.4 49.729 591.703 49.234 591.921 C 48.735 592.14 48.158 592.251 47.497 592.251 C 46.846 592.251 46.27 592.14 45.769 591.921 C 45.267 591.703 44.846 591.4 44.505 591.011 C 44.163 590.621 43.907 590.164 43.735 589.641 C 43.567 589.12 43.481 588.555 43.481 587.945 C 43.481 587.339 43.567 586.77 43.735 586.243 Z " fill="rgb(23,111,193)"/><path d=" M 54.346 583.803 L 54.346 585.547 L 54.377 585.547 C 54.707 584.875 55.114 584.377 55.593 584.057 C 56.071 583.739 56.681 583.588 57.417 583.609 L 57.417 585.049 C 56.873 585.049 56.409 585.125 56.025 585.273 C 55.641 585.424 55.331 585.641 55.097 585.929 C 54.862 586.219 54.691 586.568 54.585 586.979 C 54.478 587.388 54.425 587.861 54.425 588.394 L 54.425 592.075 L 53.065 592.075 L 53.065 583.803 L 54.346 583.803 Z " fill="rgb(23,111,193)"/><path d=" M 66.199 592.075 L 66.199 583.945 L 63.257 583.945 L 63.257 582.857 C 63.639 582.857 64.013 582.828 64.377 582.77 C 64.738 582.711 65.067 582.601 65.361 582.443 C 65.653 582.281 65.901 582.064 66.105 581.787 C 66.306 581.509 66.446 581.156 66.519 580.731 L 67.561 580.731 L 67.561 592.075 L 66.199 592.075 Z " fill="rgb(23,111,193)"/><path d=" M 71.641 583.145 C 71.79 582.656 72.022 582.232 72.338 581.875 C 72.651 581.517 73.043 581.237 73.513 581.033 C 73.982 580.832 74.514 580.731 75.114 580.731 C 75.603 580.731 76.065 580.803 76.497 580.945 C 76.929 581.091 77.305 581.299 77.623 581.57 C 77.945 581.843 78.198 582.181 78.385 582.586 C 78.571 582.992 78.666 583.461 78.666 583.994 C 78.666 584.494 78.587 584.937 78.433 585.323 C 78.278 585.705 78.071 586.049 77.817 586.355 C 77.562 586.659 77.267 586.932 76.937 587.179 C 76.606 587.424 76.265 587.659 75.913 587.882 C 75.562 588.096 75.209 588.305 74.855 588.515 C 74.505 588.721 74.181 588.944 73.89 589.179 C 73.595 589.413 73.346 589.667 73.137 589.937 C 72.929 590.211 72.793 590.523 72.729 590.875 L 78.554 590.875 L 78.554 592.075 L 71.145 592.075 C 71.198 591.403 71.318 590.828 71.505 590.355 C 71.691 589.88 71.929 589.467 72.217 589.115 C 72.505 588.763 72.83 588.453 73.193 588.187 C 73.555 587.919 73.934 587.669 74.329 587.435 C 74.809 587.136 75.231 586.861 75.593 586.609 C 75.955 586.36 76.257 586.106 76.497 585.851 C 76.735 585.593 76.918 585.317 77.041 585.019 C 77.163 584.719 77.226 584.372 77.226 583.979 C 77.226 583.669 77.166 583.388 77.049 583.137 C 76.931 582.888 76.774 582.672 76.577 582.489 C 76.379 582.309 76.147 582.169 75.881 582.075 C 75.614 581.979 75.331 581.929 75.033 581.929 C 74.637 581.929 74.298 582.013 74.017 582.179 C 73.734 582.344 73.502 582.56 73.321 582.825 C 73.139 583.093 73.01 583.394 72.929 583.731 C 72.847 584.067 72.814 584.405 72.825 584.747 L 71.465 584.747 C 71.433 584.169 71.491 583.637 71.641 583.145 Z " fill="rgb(23,111,193)"/><path d=" M 81.809 587.921 C 81.835 588.451 81.921 588.945 82.065 589.411 C 82.209 589.875 82.441 590.265 82.761 590.586 C 83.079 590.906 83.527 591.067 84.105 591.067 C 84.681 591.067 85.129 590.906 85.45 590.586 C 85.769 590.265 86.001 589.875 86.145 589.411 C 86.289 588.945 86.374 588.451 86.401 587.921 C 86.426 587.394 86.441 586.917 86.441 586.489 C 86.441 586.213 86.438 585.906 86.433 585.57 C 86.426 585.235 86.401 584.899 86.353 584.563 C 86.303 584.227 86.235 583.899 86.145 583.579 C 86.054 583.257 85.921 582.979 85.743 582.739 C 85.569 582.498 85.347 582.304 85.079 582.153 C 84.814 582.005 84.489 581.929 84.105 581.929 C 83.721 581.929 83.395 582.005 83.129 582.153 C 82.861 582.304 82.639 582.498 82.465 582.739 C 82.289 582.979 82.155 583.257 82.065 583.579 C 81.973 583.899 81.905 584.227 81.855 584.563 C 81.809 584.899 81.782 585.235 81.777 585.57 C 81.771 585.906 81.769 586.213 81.769 586.489 C 81.769 586.917 81.782 587.394 81.809 587.921 Z  M 80.361 585.211 C 80.382 584.763 80.435 584.325 80.519 583.899 C 80.606 583.47 80.729 583.067 80.889 582.682 C 81.049 582.299 81.267 581.963 81.545 581.675 C 81.822 581.386 82.171 581.156 82.593 580.987 C 83.014 580.815 83.517 580.731 84.105 580.731 C 84.691 580.731 85.194 580.815 85.617 580.987 C 86.038 581.156 86.387 581.386 86.665 581.675 C 86.942 581.963 87.161 582.299 87.321 582.682 C 87.481 583.067 87.603 583.47 87.689 583.899 C 87.774 584.325 87.827 584.763 87.847 585.211 C 87.87 585.659 87.881 586.091 87.881 586.506 C 87.881 586.921 87.87 587.355 87.847 587.803 C 87.827 588.251 87.774 588.688 87.689 589.115 C 87.603 589.541 87.481 589.944 87.321 590.323 C 87.161 590.7 86.942 591.033 86.665 591.323 C 86.387 591.609 86.041 591.837 85.623 592.003 C 85.209 592.167 84.702 592.251 84.105 592.251 C 83.517 592.251 83.014 592.167 82.593 592.003 C 82.171 591.837 81.822 591.609 81.545 591.323 C 81.267 591.033 81.049 590.7 80.889 590.323 C 80.729 589.944 80.606 589.541 80.519 589.115 C 80.435 588.688 80.382 588.251 80.361 587.803 C 80.339 587.355 80.329 586.921 80.329 586.506 C 80.329 586.091 80.339 585.659 80.361 585.211 Z " fill="rgb(23,111,193)"/><path d=" M 95.873 586.739 C 95.771 586.369 95.617 586.041 95.407 585.753 C 95.199 585.467 94.934 585.237 94.609 585.067 C 94.283 584.896 93.901 584.809 93.465 584.809 C 93.006 584.809 92.617 584.901 92.295 585.081 C 91.975 585.263 91.715 585.5 91.513 585.794 C 91.309 586.088 91.163 586.421 91.071 586.794 C 90.981 587.168 90.937 587.547 90.937 587.929 C 90.937 588.336 90.985 588.728 91.079 589.106 C 91.177 589.484 91.329 589.817 91.535 590.106 C 91.743 590.394 92.013 590.627 92.346 590.803 C 92.675 590.979 93.074 591.067 93.545 591.067 C 94.013 591.067 94.405 590.976 94.721 590.794 C 95.035 590.613 95.289 590.372 95.481 590.075 C 95.673 589.776 95.811 589.435 95.897 589.049 C 95.981 588.667 96.025 588.27 96.025 587.867 C 96.025 587.481 95.973 587.106 95.873 586.739 L 95.873 586.739 Z  M 90.985 583.803 L 90.985 584.921 L 91.017 584.921 C 91.241 584.464 91.593 584.131 92.071 583.921 C 92.553 583.713 93.079 583.609 93.657 583.609 C 94.295 583.609 94.853 583.728 95.329 583.963 C 95.803 584.198 96.197 584.515 96.513 584.913 C 96.827 585.315 97.065 585.776 97.225 586.299 C 97.385 586.82 97.465 587.375 97.465 587.963 C 97.465 588.549 97.387 589.104 97.233 589.627 C 97.077 590.148 96.843 590.604 96.527 590.994 C 96.214 591.382 95.819 591.689 95.346 591.913 C 94.869 592.137 94.317 592.251 93.689 592.251 C 93.486 592.251 93.259 592.229 93.009 592.187 C 92.757 592.143 92.51 592.075 92.265 591.979 C 92.019 591.882 91.787 591.752 91.569 591.586 C 91.35 591.421 91.166 591.216 91.017 590.97 L 90.985 590.97 L 90.985 595.227 L 89.623 595.227 L 89.623 583.803 L 90.985 583.803 Z " fill="rgb(23,111,193)"/><path d=" M 98.407 583.803 L 100.153 583.803 L 102.135 586.698 L 104.199 583.803 L 105.833 583.803 L 102.983 587.609 L 106.183 592.075 L 104.439 592.075 L 102.135 588.651 L 99.833 592.075 L 98.183 592.075 L 101.289 587.721 L 98.407 583.803 Z " fill="rgb(23,111,193)"/><path d=" M 119.609 587.481 L 119.609 588.57 L 116.121 588.57 L 116.121 592.075 L 115.033 592.075 L 115.033 588.57 L 111.545 588.57 L 111.545 587.481 L 115.033 587.481 L 115.033 583.979 L 116.121 583.979 L 116.121 587.481 L 119.609 587.481 Z " fill="rgb(23,111,193)"/></g></g></g></g></svg>