<?xml version="1.0" encoding="UTF-8" standalone="no"?>
<!-- Created with Inkscape (http://www.inkscape.org/) -->

<svg
   width="230.2907mm"
   height="63.230408mm"
   viewBox="0 0 230.2907 63.230408"
   version="1.1"
   id="svg5"
   inkscape:version="1.2.2 (b0a8486541, 2022-12-01)"
   sodipodi:docname="Monikers logo - sketches.svg"
   xml:space="preserve"
   xmlns:inkscape="http://www.inkscape.org/namespaces/inkscape"
   xmlns:sodipodi="http://sodipodi.sourceforge.net/DTD/sodipodi-0.dtd"
   xmlns="http://www.w3.org/2000/svg"
   xmlns:svg="http://www.w3.org/2000/svg"><sodipodi:namedview
     id="namedview7"
     pagecolor="#ffffff"
     bordercolor="#ffffff"
     borderopacity="1"
     inkscape:showpageshadow="true"
     inkscape:pageopacity="0.0"
     inkscape:pagecheckerboard="false"
     inkscape:deskcolor="#ffffff"
     inkscape:document-units="mm"
     showgrid="false"
     showborder="false"
     borderlayer="true"
     inkscape:zoom="0.457453"
     inkscape:cx="-1760.8366"
     inkscape:cy="132.25402"
     inkscape:window-width="3840"
     inkscape:window-height="2092"
     inkscape:window-x="0"
     inkscape:window-y="32"
     inkscape:window-maximized="0"
     inkscape:current-layer="layer1" /><defs
     id="defs2"><inkscape:path-effect
       effect="fillet_chamfer"
       id="path-effect4084-3-36"
       is_visible="true"
       lpeversion="1"
       nodesatellites_param="F,0,0,1,0,20.372917,0,1 @ F,0,0,1,0,20.372917,0,1 @ F,0,0,1,0,20.372917,0,1 @ F,0,0,1,0,20.372917,0,1"
       unit="px"
       method="auto"
       mode="F"
       radius="77"
       chamfer_steps="1"
       flexible="false"
       use_knot_distance="true"
       apply_no_radius="true"
       apply_with_radius="true"
       only_selected="false"
       hide_knots="false" /></defs><g
     inkscape:label="Layer 1"
     inkscape:groupmode="layer"
     id="layer1"
     transform="translate(258.8382,-534.57555)"><g
       aria-label="Monikers"
       id="text183-9-7-3"
       style="font-size:40.9918px;line-height:1.25;stroke-width:1.0248"><path
         d="m -194.38348,550.33544 -11.19076,22.09458 -11.14977,-22.09458 h -2.78744 v 28.69426 h 0.40991 v -27.79244 l 14.06019,27.79244 h 2.82843 l -3.07438,-6.06679 10.90382,-21.56168 v 27.62847 h 2.66446 v -28.69426 z"
         style="font-family:Nightfall;-inkscape-font-specification:Nightfall"
         id="path620" /><path
         d="m -177.45388,558.90273 c -5.82083,0 -10.53489,4.55009 -10.53489,10.16596 0,5.61588 4.71406,10.16597 10.53489,10.16597 5.82084,0 10.57589,-4.55009 10.57589,-10.16597 0,-5.61587 -4.75505,-10.16596 -10.57589,-10.16596 z m 6.88662,17.05259 c -3.32033,3.36132 -8.73125,2.58248 -12.54349,-1.22976 -3.81223,-3.81224 -4.59108,-9.22315 -1.22975,-12.54349 3.32033,-3.36133 8.73125,-2.58248 12.54349,1.22976 3.81224,3.81223 4.59108,9.22315 1.22975,12.54349 z"
         style="font-family:Nightfall;-inkscape-font-specification:Nightfall"
         id="path622" /><path
         d="m -153.47375,558.90273 c -3.64827,0 -6.39472,2.41851 -7.29654,5.04199 v -4.75505 h -2.62347 v 19.79904 h 2.62347 v -12.70746 c 0,-3.07438 2.74645,-6.84563 6.84563,-6.84563 3.40232,0 5.61588,2.58248 5.61588,6.68166 v 12.91242 h 2.62348 v -12.37952 c 0,-5.001 -3.07439,-7.74745 -7.78845,-7.74745 z"
         style="font-family:Nightfall;-inkscape-font-specification:Nightfall"
         id="path624" /><path
         d="m -138.01984,554.0247 -2.13158,-2.13157 -2.13157,2.13157 2.13157,2.13158 z m -0.81984,24.96401 v -19.79904 h -2.66447 v 19.79904 z"
         style="font-family:Nightfall;-inkscape-font-specification:Nightfall"
         id="path626" /><path
         d="m -118.30286,560.95232 0.57389,-1.76265 c -3.03339,0 -6.59968,1.18876 -13.28134,8.19836 l -0.73786,0.77884 v -17.83143 h -2.62347 v 28.65327 h 2.62347 v -10.37093 l 1.18877,-1.27074 c 0.36892,-0.40992 0.77884,-0.77885 1.10678,-1.14777 l 8.73125,12.83043 h 2.9924 l -9.92002,-14.4701 c 4.05819,-3.56629 6.23076,-3.60728 9.34613,-3.60728 z"
         style="font-family:Nightfall;-inkscape-font-specification:Nightfall"
         id="path628" /><path
         d="m -106.33327,578.00491 c -4.34513,-0.28695 -7.91142,-2.99241 -8.44431,-8.69027 -0.082,-1.06578 -0.041,-2.04959 0.082,-2.9924 h 16.027796 c 0,-4.4681 -3.484306,-7.41951 -7.952406,-7.41951 -5.77985,0 -10.69886,5.08298 -10.57589,11.19076 0.12298,5.61587 4.05819,9.14117 10.12498,9.14117 3.44331,0 6.02579,-1.5167 7.870423,-3.32034 l -0.245951,-0.24595 c -1.680662,1.43472 -3.894222,2.5005 -6.886622,2.33654 z m -0.9838,-18.65127 c 4.4681,0.041 6.23075,3.27934 6.06678,6.64067 h -13.36332 c 0.73785,-4.09918 3.64827,-6.68166 7.29654,-6.64067 z"
         style="font-family:Nightfall;-inkscape-font-specification:Nightfall"
         id="path630" /><path
         d="m -90.797449,560.78835 c -0.90182,1.22975 -1.557689,2.74645 -1.967607,4.22216 v -5.82084 h -2.582483 v 19.79904 h 2.582483 v -11.55969 c 0,-1.9676 0.696861,-4.87802 2.254549,-6.31274 1.721656,-1.63967 3.402319,-0.9838 5.328934,-0.041 l 0.860828,-2.0086 c -2.992402,-0.36892 -5.205959,0.041 -6.476704,1.72166 z"
         style="font-family:Nightfall;-inkscape-font-specification:Nightfall"
         id="path632" /><path
         d="m -75.999496,567.34704 c -2.746451,-1.18876 -5.287942,-2.0086 -5.287942,-4.30414 -0.04099,-2.54149 2.787442,-3.77125 4.960007,-3.68926 h 0.04099 c 0.983803,0.041 1.967607,0.45091 2.705459,1.06578 l 2.910418,2.5005 0.409918,-0.9838 0.368926,-0.9838 v 0 c -0.778844,-0.45091 -3.115377,-1.96761 -6.394721,-2.04959 -1.311737,-0.041 -6.066786,0.57388 -6.681663,4.18116 -0.573885,3.4843 2.090582,5.20596 6.517696,6.92761 3.935213,1.5167 6.59968,2.58249 6.435712,5.12398 -0.163967,2.62347 -3.238352,3.81224 -6.39472,3.64827 0,0 0,0 0,0 -1.35273,-0.041 -2.623475,-0.65587 -3.566287,-1.63967 l -2.254549,-2.33653 -0.532893,2.09058 c 1.270746,0.65587 3.64827,2.25455 6.84563,2.33653 3.853229,0.16397 7.337532,-1.55769 7.74745,-5.16497 0.45091,-4.05819 -4.673065,-5.36992 -7.829433,-6.72265 z"
         style="font-family:Nightfall;-inkscape-font-specification:Nightfall"
         id="path634" /></g><path
       id="rect2470-2-6"
       style="fill-opacity:0;stroke:#000000;stroke-width:0.420811;stroke-linecap:round;stroke-linejoin:round"
       d="m -226.58836,534.78598 h 165.522893 a 20.372917,20.372917 45 0 1 20.372917,20.37292 v 22.0637 a 20.372917,20.372917 135 0 1 -20.372917,20.37292 H -226.58836 a 20.372917,20.372917 45 0 1 -20.37292,-20.37292 v -22.0637 a 20.372917,20.372917 135 0 1 20.37292,-20.37292 z"
       inkscape:path-effect="#path-effect4084-3-36"
       inkscape:original-d="m -246.96128,534.78598 h 206.26873 v 62.80954 h -206.26873 z"
       sodipodi:nodetypes="ccccc" /><rect
       style="fill:#000000;fill-opacity:0;stroke:#000000;stroke-width:0.375;stroke-linecap:round;stroke-linejoin:round;stroke-dasharray:none;stroke-opacity:1"
       id="rect4358-2"
       width="8.4298487"
       height="8.4298487"
       x="345.74741"
       y="444.18777"
       transform="rotate(41.466711)" /><rect
       style="fill:#000000;fill-opacity:0;stroke:#000000;stroke-width:0.375;stroke-linecap:round;stroke-linejoin:round;stroke-dasharray:none;stroke-opacity:1"
       id="rect4362-9"
       width="8.4298487"
       height="8.4298487"
       x="182.37839"
       y="588.55493"
       transform="rotate(41.466711)" /></g></svg>
