<?xml version="1.0" encoding="UTF-8" standalone="no"?>
<!-- Created with Inkscape (http://www.inkscape.org/) -->

<svg
   width="28.807671mm"
   height="10.26588mm"
   viewBox="0 0 28.807671 10.26588"
   version="1.1"
   id="svg5"
   xmlns="http://www.w3.org/2000/svg"
   xmlns:svg="http://www.w3.org/2000/svg">
  <defs
     id="defs2" />
  <g
     id="layer1"
     transform="translate(-157.92445,-110.10595)">
    <path
       style="font-size:10.5833px;line-height:0;font-family:'Maigre DEMO';-inkscape-font-specification:'Maigre DEMO';text-align:end;letter-spacing:0px;word-spacing:5.29167px;text-anchor:end;fill:#070707;stroke-width:0.3;stroke-linecap:round;stroke-dasharray:0.3, 1.8"
       d="m 160.82427,110.26475 q -0.55033,0 -0.97366,0.10584 -0.41275,0.10583 -0.6985,0.28575 -0.27516,0.16933 -0.41275,0.41275 -0.13758,0.23283 -0.13758,0.48683 0,0.26458 0.17992,0.46566 0.1905,0.1905 0.508,0.34925 0.3175,0.15875 0.73024,0.28575 0.41275,0.127 0.85725,0.24342 0.39158,0.10583 0.80433,0.22225 0.41275,0.10583 0.79375,0.24341 0.39158,0.13758 0.73025,0.32808 0.34925,0.1905 0.60325,0.46567 0.26458,0.26458 0.41274,0.635 0.14817,0.37041 0.14817,0.86783 0,0.52916 -0.254,0.92074 -0.254,0.39159 -0.66675,0.64559 -0.41275,0.25399 -0.94191,0.38099 -0.52917,0.11642 -1.0795,0.11642 -0.98424,0 -1.65099,-0.254 -0.66675,-0.254 -1.0795,-0.64558 -0.41275,-0.40217 -0.59266,-0.87841 -0.17992,-0.48684 -0.17992,-0.9525 l 0.635,-0.39158 q 0,0.39158 0.10583,0.89958 0.10583,0.508 0.41275,0.97366 0.30692,0.45508 0.86783,0.77258 0.56092,0.3175 1.47108,0.3175 0.46566,0 0.93133,-0.10583 0.47625,-0.11642 0.85725,-0.33867 0.381,-0.22225 0.62441,-0.5715 0.24342,-0.34924 0.24342,-0.82549 0,-0.52917 -0.30692,-0.86783 -0.29633,-0.33867 -0.762,-0.56092 -0.46566,-0.22225 -1.02658,-0.35983 -0.56091,-0.13758 -1.07949,-0.26458 -0.70908,-0.16934 -1.2065,-0.34925 -0.49741,-0.17992 -0.81491,-0.40217 -0.3175,-0.23283 -0.46567,-0.52916 -0.13758,-0.29633 -0.13758,-0.68792 0,-0.40216 0.17992,-0.69849 0.1905,-0.30692 0.52916,-0.508 0.33867,-0.20109 0.80433,-0.29634 0.47625,-0.0953 1.03716,-0.0953 1.02658,0 1.79917,0.26459 0.77258,0.254 1.23824,0.85724 l -0.14816,0.73025 q -0.40217,-0.82549 -1.143,-1.25941 -0.74083,-0.43392 -1.74625,-0.43392 z m 6.50873,7.3554 -2.00024,-4.30741 q -0.11642,-0.24341 -0.24342,-0.42333 -0.11641,-0.1905 -0.21166,-0.3175 -0.11642,-0.13758 -0.23284,-0.24341 h 1.44992 q -0.0635,0.10583 -0.0847,0.24341 -0.0212,0.127 0,0.3175 0.0212,0.17992 0.13758,0.42333 l 1.8415,3.96874 q 0.0106,-0.29633 0.0423,-0.78316 0.0318,-0.49742 0.0952,-1.05833 0.0741,-0.56092 0.1905,-1.13242 0.11642,-0.57149 0.28575,-1.03716 0.17991,-0.46566 0.42333,-0.75141 0.254,-0.29634 0.58208,-0.29634 0.39158,0 0.68792,0.29634 0.30691,0.29633 0.52916,0.76199 0.22225,0.45509 0.381,1.03717 0.15875,0.5715 0.26458,1.14299 0.10584,0.56092 0.15875,1.04775 0.0635,0.48683 0.0952,0.78317 l 1.8415,-3.97933 q 0.11641,-0.24341 0.13758,-0.42333 0.0212,-0.1905 0,-0.3175 -0.0212,-0.13758 -0.0847,-0.24341 h 0.81492 q -0.11642,0.10583 -0.23284,0.24341 -0.0952,0.127 -0.22225,0.3175 -0.11641,0.17992 -0.23283,0.42333 l -2.00024,4.30741 h -0.70908 q -0.14817,-1.30175 -0.35983,-2.33891 -0.0953,-0.43392 -0.21167,-0.84667 -0.11642,-0.42333 -0.26458,-0.75141 -0.13759,-0.32808 -0.30692,-0.52916 -0.16933,-0.20109 -0.35983,-0.20109 -0.254,0 -0.45508,0.20109 -0.20109,0.20108 -0.34925,0.52916 -0.13758,0.32808 -0.24342,0.75141 -0.10583,0.41275 -0.16933,0.84667 -0.14817,1.03716 -0.16933,2.33891 z m 11.9168,-1.7145 q -0.24342,0.89958 -0.8255,1.36525 -0.58208,0.45508 -1.56633,0.45508 -0.99483,0 -1.56632,-0.39158 -0.5715,-0.39158 -0.5715,-1.0795 0,-0.46566 0.22225,-0.77258 0.23283,-0.3175 0.57149,-0.51858 0.34925,-0.21167 0.75142,-0.33867 0.40216,-0.127 0.74083,-0.21166 0.34925,-0.0847 0.5715,-0.14817 0.23283,-0.0741 0.23283,-0.15875 0,-0.127 -0.17992,-0.127 -0.11641,0 -0.30691,0.0423 -0.17992,0.0423 -0.40217,0.0953 -0.21166,0.0423 -0.46566,0.0847 -0.24342,0.0423 -0.48683,0.0423 -0.1905,0 -0.37042,-0.0212 -0.17992,-0.0212 -0.3175,-0.0847 -0.13758,-0.0635 -0.22225,-0.16933 -0.0741,-0.11642 -0.0741,-0.28575 0,-0.381 0.20108,-0.65616 0.21167,-0.27517 0.56092,-0.45509 0.34925,-0.17991 0.80433,-0.26458 0.45508,-0.0847 0.94191,-0.0847 0.59267,0 1.05833,0.10584 0.46567,0.10583 0.78317,0.37041 0.31749,0.254 0.48683,0.6985 0.16933,0.43392 0.16933,1.09008 v 2.14841 q 0,0.27517 0.0423,0.46567 0.0529,0.17991 0.11642,0.29633 0.0635,0.13758 0.14817,0.22225 -0.16934,0 -0.35984,-0.0318 -0.17991,-0.0423 -0.33866,-0.11642 -0.14817,-0.0847 -0.254,-0.21166 -0.0952,-0.127 -0.0952,-0.29634 z m -3.57716,-2.40241 q 0,0.28575 0.0952,0.43392 0.0952,0.14817 0.35984,0.14817 0.21166,0 0.48683,-0.0847 0.28575,-0.0952 0.58208,-0.1905 0.29633,-0.10583 0.58208,-0.1905 0.28575,-0.0952 0.49742,-0.0952 0.1905,0 0.30691,0.0952 0.11642,0.0953 0.11642,0.33867 0,0.30691 -0.24342,0.42333 -0.23283,0.11641 -0.59266,0.15875 -0.35984,0.0423 -0.78317,0.0741 -0.42333,0.0318 -0.78316,0.17992 -0.35983,0.14816 -0.60325,0.46566 -0.23283,0.3175 -0.23283,0.94192 0,0.67733 0.34925,1.02658 0.35983,0.33866 1.04774,0.33866 0.66675,0 1.12183,-0.22225 0.45509,-0.22225 0.74083,-0.62441 0.28575,-0.41275 0.40217,-0.97367 0.127,-0.57149 0.127,-1.25941 0,-0.53975 -0.0847,-0.93133 -0.0741,-0.40216 -0.27516,-0.65616 -0.1905,-0.26459 -0.52917,-0.39159 -0.33866,-0.127 -0.86783,-0.127 -0.60325,0 -0.96308,0.14817 -0.35983,0.13758 -0.55033,0.32808 -0.1905,0.17992 -0.254,0.37042 -0.0529,0.17991 -0.0529,0.27516 z m 7.56705,4.11691 -1.98966,-4.30741 q -0.11641,-0.24341 -0.24341,-0.42333 -0.11642,-0.1905 -0.21167,-0.3175 -0.11641,-0.13758 -0.23283,-0.24341 h 1.44991 q -0.0635,0.10583 -0.0847,0.24341 -0.0212,0.127 0,0.3175 0.0212,0.17992 0.13759,0.42333 l 1.89441,4.11691 1.90499,-4.11691 q 0.11642,-0.24341 0.13759,-0.42333 0.0212,-0.1905 0,-0.3175 -0.0212,-0.13758 -0.0847,-0.24341 h 0.81491 q -0.11641,0.10583 -0.23283,0.24341 -0.0952,0.127 -0.22225,0.3175 -0.11642,0.17992 -0.23283,0.42333 l -1.69333,3.67241 q 0.21167,-0.21167 0.51858,-0.381 0.30692,-0.16933 0.70908,-0.16933 0.13759,0 0.32809,0.0318 0.20108,0.0212 0.38099,0.0952 0.1905,0.0741 0.3175,0.21166 0.127,0.13759 0.127,0.37042 0,0.43391 -0.28575,0.66675 -0.27516,0.23283 -0.70908,0.32808 -0.43391,0.10583 -0.96308,0.11642 -0.51858,0.0212 -1.01599,0.0212 -0.4445,0 -0.94192,-0.0106 -0.49741,-0.0106 -0.91016,0.0423 -0.41275,0.0529 -0.68792,0.20108 -0.27516,0.15875 -0.27516,0.48684 0,0.26458 0.15875,0.45508 0.16933,0.20108 0.45508,0.32808 0.29633,0.13758 0.67733,0.20108 0.39158,0.0741 0.83608,0.0741 0.46567,0 0.83608,-0.0741 0.37042,-0.0635 0.66675,-0.17991 0.29633,-0.10584 0.508,-0.254 0.22225,-0.14817 0.381,-0.29633 0.37041,-0.34925 0.52916,-0.80433 -0.0953,0.53974 -0.4445,0.96308 -0.13758,0.17991 -0.35983,0.34924 -0.21166,0.17992 -0.51858,0.3175 -0.29633,0.13759 -0.6985,0.21167 -0.39158,0.0847 -0.89958,0.0847 -1.33349,0 -2.10608,-0.35984 -0.76199,-0.34925 -0.76199,-0.97366 0,-0.3175 0.13758,-0.51858 0.127,-0.20108 0.34925,-0.3175 0.23283,-0.10583 0.52916,-0.14817 0.30692,-0.0423 0.635,-0.0423 0.49742,0 0.99483,0.0423 0.49742,0.0529 0.889,0.0529 1.09008,0 1.67216,-0.20108 0.58208,-0.1905 0.58208,-0.762 0,-0.55033 -0.45508,-0.55033 -0.33867,0 -0.61383,0.15875 -0.27517,0.15875 -0.47625,0.34925 -0.22225,0.23283 -0.39158,0.51858 z"
       id="text4"
       aria-label="Sway&#10; " />
  </g>
</svg>
