<?xml version="1.0" encoding="UTF-8" standalone="no"?><!-- Generator: Gravit.io --><svg xmlns="http://www.w3.org/2000/svg" xmlns:xlink="http://www.w3.org/1999/xlink" style="isolation:isolate" viewBox="385.982 8.336 162 158" width="162pt" height="158pt"><defs><clipPath id="_clipPath_PFg0XOmoWeRbL7RmfA3cRqU7DMgR1oFA"><rect width="707.96" height="666.653"/></clipPath></defs><g clip-path="url(#_clipPath_PFg0XOmoWeRbL7RmfA3cRqU7DMgR1oFA)"><g><path d=" M 707.964 666.653 L 0 666.653 L 0 298.672 L 707.964 298.672 L 707.964 666.653 Z " fill="rgb(35,31,32)"/><path d=" M 203.477 73.927 C 191.485 73.927 181.76 83.651 181.76 95.647 C 181.76 105.241 187.983 113.383 196.613 116.256 C 197.7 116.455 198.096 115.784 198.096 115.208 C 198.096 114.692 198.077 113.327 198.067 111.515 C 192.025 112.827 190.751 108.603 190.751 108.603 C 189.763 106.093 188.339 105.425 188.339 105.425 C 186.367 104.079 188.488 104.105 188.488 104.105 C 190.668 104.259 191.815 106.344 191.815 106.344 C 193.752 109.663 196.899 108.704 198.136 108.148 C 198.333 106.745 198.895 105.788 199.515 105.245 C 194.692 104.696 189.621 102.833 189.621 94.511 C 189.621 92.139 190.468 90.201 191.857 88.683 C 191.633 88.133 190.888 85.925 192.071 82.935 C 192.071 82.935 193.893 82.351 198.043 85.16 C 199.775 84.679 201.633 84.439 203.48 84.429 C 205.325 84.439 207.183 84.679 208.917 85.16 C 213.064 82.351 214.884 82.935 214.884 82.935 C 216.069 85.925 215.324 88.133 215.101 88.683 C 216.493 90.201 217.333 92.139 217.333 94.511 C 217.333 102.855 212.255 104.691 207.417 105.228 C 208.196 105.899 208.891 107.224 208.891 109.251 C 208.891 112.153 208.864 114.496 208.864 115.208 C 208.864 115.789 209.256 116.465 210.357 116.253 C 218.981 113.375 225.199 105.24 225.199 95.647 C 225.199 83.651 215.473 73.927 203.477 73.927" fill-rule="evenodd" fill="rgb(27,24,23)"/><path d=" M 467.479 8.58 C 423.016 8.58 386.961 44.628 386.961 89.097 C 386.961 124.672 410.032 154.853 442.024 165.5 C 446.048 166.245 447.525 163.753 447.525 161.627 C 447.525 159.707 447.451 153.364 447.416 146.636 C 425.016 151.507 420.289 137.136 420.289 137.136 C 416.627 127.829 411.349 125.355 411.349 125.355 C 404.044 120.357 411.9 120.46 411.9 120.46 C 419.985 121.027 424.243 128.759 424.243 128.759 C 431.424 141.067 443.079 137.508 447.673 135.451 C 448.396 130.247 450.483 126.693 452.785 124.684 C 434.901 122.648 416.101 115.744 416.101 84.892 C 416.101 76.101 419.247 68.919 424.397 63.28 C 423.561 61.251 420.805 53.063 425.177 41.972 C 425.177 41.972 431.939 39.808 447.325 50.225 C 453.748 48.441 460.636 47.547 467.479 47.516 C 474.321 47.547 481.215 48.441 487.649 50.225 C 503.017 39.808 509.769 41.972 509.769 41.972 C 514.152 53.063 511.395 61.251 510.559 63.28 C 515.721 68.919 518.845 76.101 518.845 84.892 C 518.845 115.817 500.009 122.627 482.08 124.62 C 484.968 127.119 487.541 132.019 487.541 139.531 C 487.541 150.304 487.448 158.975 487.448 161.627 C 487.448 163.769 488.897 166.28 492.979 165.489 C 524.953 154.831 547.995 124.66 547.995 89.097 C 547.995 44.628 511.945 8.58 467.479 8.58" fill-rule="evenodd" fill="rgb(27,24,23)"/><path d=" M 417.457 124.185 C 417.28 124.587 416.651 124.705 416.077 124.431 C 415.493 124.168 415.165 123.623 415.355 123.221 C 415.528 122.811 416.159 122.696 416.741 122.969 C 417.327 123.233 417.66 123.784 417.457 124.185 L 417.457 124.185 Z " fill="rgb(27,24,23)"/><path d=" M 420.719 127.823 C 420.335 128.179 419.584 128.013 419.075 127.451 C 418.548 126.889 418.449 126.139 418.839 125.777 C 419.235 125.423 419.963 125.589 420.491 126.149 C 421.017 126.717 421.12 127.463 420.719 127.823 L 420.719 127.823 Z " fill="rgb(27,24,23)"/><path d=" M 423.893 132.46 C 423.4 132.803 422.593 132.481 422.095 131.765 C 421.601 131.049 421.601 130.191 422.105 129.847 C 422.605 129.503 423.4 129.813 423.905 130.523 C 424.397 131.251 424.397 132.109 423.893 132.46 L 423.893 132.46" fill="rgb(27,24,23)"/><path d=" M 428.243 136.94 C 427.801 137.427 426.861 137.296 426.173 136.632 C 425.469 135.983 425.273 135.061 425.716 134.575 C 426.163 134.087 427.108 134.224 427.801 134.883 C 428.5 135.531 428.713 136.459 428.243 136.94 L 428.243 136.94 Z " fill="rgb(27,24,23)"/><path d=" M 434.243 139.541 C 434.048 140.172 433.143 140.459 432.231 140.191 C 431.32 139.915 430.724 139.176 430.908 138.539 C 431.097 137.904 432.007 137.605 432.925 137.892 C 433.835 138.167 434.432 138.9 434.243 139.541 L 434.243 139.541 Z " fill="rgb(27,24,23)"/><path d=" M 440.832 140.024 C 440.855 140.688 440.081 141.239 439.124 141.251 C 438.161 141.272 437.383 140.735 437.372 140.081 C 437.372 139.411 438.128 138.865 439.091 138.849 C 440.048 138.831 440.832 139.364 440.832 140.024 L 440.832 140.024 Z " fill="rgb(27,24,23)"/><path d=" M 446.964 138.98 C 447.079 139.628 446.413 140.293 445.463 140.471 C 444.528 140.641 443.663 140.241 443.544 139.599 C 443.428 138.935 444.105 138.269 445.039 138.097 C 445.991 137.932 446.843 138.321 446.964 138.98 L 446.964 138.98" fill="rgb(27,24,23)"/><mask id="_mask_XEzvLNEoSpGdpswukyIgOgEXk5jhwVw3" x="-200%" y="-200%" width="400%" height="400%"><rect x="-200%" y="-200%" width="400%" height="400%" style="fill:white;"/><line x1="299.864" y1="0.669" x2="299.864" y2="1.336" fill="black" stroke="none"/></mask><line x1="299.864" y1="0.669" x2="299.864" y2="1.336" mask="url(#_mask_XEzvLNEoSpGdpswukyIgOgEXk5jhwVw3)" vector-effect="non-scaling-stroke" stroke-width="2.667" stroke="rgb(58,127,195)" stroke-linejoin="miter" stroke-linecap="round" stroke-miterlimit="10"/><mask id="_mask_vF58aGQPKBin0O3ZUJJQaoWMistt4s0c" x="-200%" y="-200%" width="400%" height="400%"><rect x="-200%" y="-200%" width="400%" height="400%" style="fill:white;"/><line x1="299.864" y1="4.003" x2="299.864" y2="182.66" fill="black" stroke="none"/></mask><line x1="299.864" y1="4.003" x2="299.864" y2="182.66" mask="url(#_mask_vF58aGQPKBin0O3ZUJJQaoWMistt4s0c)" vector-effect="non-scaling-stroke" stroke-width="2.667" stroke="rgb(58,127,195)" stroke-linejoin="miter" stroke-linecap="round" stroke-miterlimit="10"/><mask id="_mask_HjummrADG3cgwvomWmkCgFDdMbRS8A34" x="-200%" y="-200%" width="400%" height="400%"><rect x="-200%" y="-200%" width="400%" height="400%" style="fill:white;"/><line x1="299.864" y1="183.993" x2="299.864" y2="184.66" fill="black" stroke="none"/></mask><line x1="299.864" y1="183.993" x2="299.864" y2="184.66" mask="url(#_mask_HjummrADG3cgwvomWmkCgFDdMbRS8A34)" vector-effect="non-scaling-stroke" stroke-width="2.667" stroke="rgb(58,127,195)" stroke-linejoin="miter" stroke-linecap="round" stroke-miterlimit="10"/><path d=" M 177.701 203.348 C 177.193 202.979 176.547 202.796 175.757 202.796 C 175.437 202.796 175.123 202.828 174.813 202.891 C 174.503 202.956 174.229 203.063 173.989 203.211 C 173.749 203.363 173.557 203.561 173.412 203.812 C 173.269 204.063 173.197 204.375 173.197 204.748 C 173.197 205.099 173.3 205.385 173.509 205.604 C 173.716 205.823 173.995 206.001 174.341 206.139 C 174.688 206.279 175.079 206.393 175.517 206.484 C 175.955 206.575 176.4 206.673 176.853 206.779 C 177.307 206.885 177.751 207.012 178.189 207.156 C 178.627 207.3 179.019 207.495 179.365 207.74 C 179.712 207.984 179.989 208.295 180.197 208.667 C 180.405 209.041 180.509 209.511 180.509 210.076 C 180.509 210.684 180.373 211.203 180.101 211.636 C 179.828 212.068 179.48 212.42 179.053 212.692 C 178.627 212.964 178.149 213.161 177.621 213.284 C 177.093 213.407 176.568 213.468 176.045 213.468 C 175.405 213.468 174.8 213.388 174.229 213.228 C 173.659 213.068 173.157 212.825 172.725 212.5 C 172.293 212.175 171.952 211.757 171.701 211.251 C 171.451 210.745 171.325 210.145 171.325 209.452 L 172.765 209.452 C 172.765 209.932 172.857 210.345 173.045 210.692 C 173.232 211.039 173.477 211.323 173.781 211.547 C 174.085 211.771 174.439 211.937 174.845 212.044 C 175.251 212.151 175.665 212.203 176.093 212.203 C 176.435 212.203 176.779 212.172 177.125 212.107 C 177.472 212.044 177.784 211.935 178.061 211.779 C 178.339 211.625 178.563 211.415 178.733 211.148 C 178.904 210.88 178.989 210.539 178.989 210.124 C 178.989 209.729 178.884 209.409 178.677 209.164 C 178.469 208.92 178.191 208.719 177.845 208.564 C 177.497 208.409 177.105 208.284 176.669 208.188 C 176.232 208.091 175.787 207.992 175.333 207.891 C 174.88 207.791 174.435 207.673 173.997 207.539 C 173.56 207.407 173.167 207.231 172.821 207.012 C 172.475 206.793 172.197 206.511 171.989 206.164 C 171.781 205.817 171.677 205.383 171.677 204.86 C 171.677 204.284 171.795 203.785 172.029 203.363 C 172.264 202.943 172.576 202.596 172.965 202.323 C 173.355 202.052 173.797 201.849 174.293 201.716 C 174.789 201.581 175.299 201.516 175.821 201.516 C 176.408 201.516 176.952 201.587 177.453 201.724 C 177.955 201.863 178.395 202.081 178.772 202.38 C 179.152 202.679 179.451 203.055 179.669 203.508 C 179.887 203.961 180.008 204.503 180.029 205.132 L 178.589 205.132 C 178.503 204.309 178.208 203.716 177.701 203.348" fill="rgb(23,111,193)"/><path d=" M 183.405 204.94 L 183.405 206.156 L 183.437 206.156 C 184.055 205.216 184.945 204.748 186.108 204.748 C 186.621 204.748 187.084 204.855 187.5 205.068 C 187.917 205.281 188.211 205.643 188.381 206.156 C 188.659 205.708 189.024 205.363 189.477 205.116 C 189.931 204.869 190.429 204.748 190.972 204.748 C 191.388 204.748 191.765 204.793 192.101 204.883 C 192.437 204.975 192.724 205.116 192.965 205.308 C 193.205 205.5 193.391 205.748 193.524 206.052 C 193.659 206.356 193.724 206.721 193.724 207.148 L 193.724 213.211 L 192.365 213.211 L 192.365 207.788 C 192.365 207.531 192.343 207.292 192.3 207.068 C 192.259 206.844 192.179 206.648 192.061 206.484 C 191.943 206.317 191.78 206.188 191.573 206.091 C 191.365 205.995 191.096 205.948 190.765 205.948 C 190.093 205.948 189.565 206.139 189.181 206.524 C 188.797 206.908 188.605 207.42 188.605 208.06 L 188.605 213.211 L 187.244 213.211 L 187.244 207.788 C 187.244 207.521 187.22 207.276 187.173 207.052 C 187.125 206.828 187.043 206.633 186.925 206.468 C 186.807 206.303 186.651 206.175 186.453 206.084 C 186.255 205.992 186.001 205.948 185.693 205.948 C 185.299 205.948 184.96 206.027 184.677 206.188 C 184.393 206.348 184.164 206.539 183.989 206.763 C 183.813 206.987 183.685 207.219 183.605 207.46 C 183.524 207.7 183.485 207.9 183.485 208.06 L 183.485 213.211 L 182.125 213.211 L 182.125 204.94 L 183.405 204.94" fill="rgb(23,111,193)"/><path d=" M 200.22 209.219 C 199.943 209.279 199.653 209.325 199.349 209.363 C 199.045 209.401 198.737 209.443 198.428 209.492 C 198.119 209.539 197.841 209.617 197.597 209.724 C 197.351 209.831 197.151 209.981 196.996 210.18 C 196.841 210.377 196.765 210.645 196.765 210.987 C 196.765 211.211 196.809 211.401 196.9 211.555 C 196.991 211.711 197.108 211.836 197.252 211.932 C 197.396 212.027 197.567 212.096 197.765 212.139 C 197.963 212.183 198.161 212.203 198.364 212.203 C 198.812 212.203 199.196 212.143 199.517 212.02 C 199.836 211.897 200.097 211.743 200.3 211.555 C 200.503 211.369 200.653 211.167 200.748 210.948 C 200.844 210.729 200.892 210.524 200.892 210.331 L 200.892 208.94 C 200.721 209.068 200.497 209.161 200.22 209.219 L 200.22 209.219 Z  M 202.125 213.388 C 201.772 213.388 201.493 213.289 201.284 213.091 C 201.077 212.895 200.972 212.572 200.972 212.124 C 200.599 212.572 200.164 212.895 199.668 213.091 C 199.172 213.289 198.636 213.388 198.06 213.388 C 197.688 213.388 197.335 213.348 197.004 213.268 C 196.673 213.188 196.383 213.055 196.133 212.867 C 195.883 212.681 195.685 212.441 195.541 212.148 C 195.396 211.855 195.325 211.5 195.325 211.084 C 195.325 210.615 195.405 210.231 195.564 209.932 C 195.724 209.633 195.935 209.391 196.196 209.203 C 196.457 209.017 196.756 208.875 197.092 208.779 C 197.428 208.684 197.772 208.604 198.125 208.539 C 198.497 208.465 198.853 208.409 199.189 208.372 C 199.524 208.335 199.821 208.281 200.077 208.211 C 200.332 208.143 200.535 208.041 200.685 207.908 C 200.833 207.773 200.909 207.58 200.909 207.323 C 200.909 207.027 200.853 206.785 200.741 206.604 C 200.629 206.421 200.484 206.284 200.308 206.188 C 200.133 206.091 199.935 206.027 199.716 205.995 C 199.497 205.964 199.281 205.948 199.069 205.948 C 198.493 205.948 198.013 206.057 197.629 206.276 C 197.244 206.495 197.036 206.908 197.004 207.516 L 195.644 207.516 C 195.665 207.004 195.772 206.572 195.965 206.219 C 196.157 205.867 196.412 205.581 196.732 205.363 C 197.052 205.145 197.42 204.987 197.836 204.891 C 198.252 204.796 198.689 204.748 199.148 204.748 C 199.523 204.748 199.892 204.773 200.26 204.828 C 200.629 204.88 200.963 204.989 201.26 205.156 C 201.559 205.32 201.8 205.553 201.98 205.852 C 202.161 206.151 202.252 206.539 202.252 207.02 L 202.252 211.276 C 202.252 211.596 202.272 211.831 202.308 211.979 C 202.345 212.129 202.472 212.203 202.685 212.203 C 202.803 212.203 202.94 212.177 203.101 212.124 L 203.101 213.18 C 202.865 213.317 202.541 213.388 202.125 213.388" fill="rgb(23,111,193)"/><path d=" M 205.805 201.788 L 205.805 213.211 L 204.444 213.211 L 204.444 201.788 L 205.805 201.788 Z " fill="rgb(23,111,193)"/><path d=" M 209.356 201.788 L 209.356 213.211 L 207.996 213.211 L 207.996 201.788 L 209.356 201.788 Z " fill="rgb(23,111,193)"/><path d=" M 135.805 225.339 L 135.805 224.139 L 137.197 224.139 L 137.197 222.908 C 137.197 222.236 137.392 221.727 137.781 221.38 C 138.171 221.033 138.739 220.86 139.485 220.86 C 139.613 220.86 139.76 220.869 139.925 220.891 C 140.091 220.913 140.237 220.945 140.365 220.987 L 140.365 222.172 C 140.248 222.129 140.12 222.099 139.981 222.084 C 139.843 222.068 139.715 222.06 139.597 222.06 C 139.267 222.06 139.011 222.124 138.829 222.251 C 138.648 222.38 138.557 222.625 138.557 222.987 L 138.557 224.139 L 140.157 224.139 L 140.157 225.339 L 138.557 225.339 L 138.557 232.412 L 137.197 232.412 L 137.197 225.339 L 135.805 225.339" fill="rgb(23,111,193)"/><path d=" M 142.565 229.62 C 142.697 230.009 142.883 230.333 143.117 230.596 C 143.352 230.857 143.627 231.057 143.94 231.196 C 144.255 231.333 144.589 231.404 144.94 231.404 C 145.293 231.404 145.627 231.333 145.94 231.196 C 146.255 231.057 146.529 230.857 146.765 230.596 C 146.999 230.333 147.184 230.009 147.317 229.62 C 147.451 229.231 147.517 228.785 147.517 228.284 C 147.517 227.781 147.451 227.337 147.317 226.948 C 147.184 226.557 146.999 226.231 146.765 225.964 C 146.529 225.697 146.255 225.495 145.94 225.356 C 145.627 225.216 145.293 225.147 144.94 225.147 C 144.589 225.147 144.255 225.216 143.94 225.356 C 143.627 225.495 143.352 225.697 143.117 225.964 C 142.883 226.231 142.697 226.557 142.565 226.948 C 142.432 227.337 142.365 227.781 142.365 228.284 C 142.365 228.785 142.432 229.231 142.565 229.62 Z  M 141.181 226.58 C 141.352 226.052 141.607 225.593 141.949 225.203 C 142.291 224.815 142.712 224.508 143.213 224.284 C 143.715 224.06 144.291 223.948 144.94 223.948 C 145.603 223.948 146.181 224.06 146.677 224.284 C 147.173 224.508 147.591 224.815 147.933 225.203 C 148.273 225.593 148.529 226.052 148.701 226.58 C 148.872 227.107 148.957 227.676 148.957 228.284 C 148.957 228.891 148.872 229.457 148.701 229.979 C 148.529 230.503 148.273 230.959 147.933 231.348 C 147.591 231.737 147.173 232.041 146.677 232.26 C 146.181 232.477 145.603 232.587 144.94 232.587 C 144.291 232.587 143.715 232.477 143.213 232.26 C 142.712 232.041 142.291 231.737 141.949 231.348 C 141.607 230.959 141.352 230.503 141.181 229.979 C 141.011 229.457 140.925 228.891 140.925 228.284 C 140.925 227.676 141.011 227.107 141.181 226.58 Z " fill="rgb(23,111,193)"/><path d=" M 151.789 224.139 L 151.789 225.883 L 151.821 225.883 C 152.152 225.211 152.557 224.716 153.037 224.396 C 153.517 224.076 154.125 223.927 154.861 223.948 L 154.861 225.388 C 154.317 225.388 153.853 225.463 153.469 225.612 C 153.085 225.76 152.775 225.979 152.541 226.268 C 152.307 226.555 152.135 226.905 152.029 227.315 C 151.923 227.727 151.869 228.197 151.869 228.732 L 151.869 232.412 L 150.509 232.412 L 150.509 224.139 L 151.789 224.139" fill="rgb(23,111,193)"/><path d=" M 163.644 232.412 L 163.644 224.284 L 160.7 224.284 L 160.7 223.196 C 161.084 223.196 161.457 223.167 161.82 223.107 C 162.183 223.049 162.511 222.94 162.804 222.779 C 163.097 222.62 163.345 222.401 163.549 222.124 C 163.751 221.847 163.889 221.495 163.965 221.068 L 165.004 221.068 L 165.004 232.412 L 163.644 232.412 Z " fill="rgb(23,111,193)"/><path d=" M 171.772 226.516 C 171.485 226.648 171.24 226.831 171.037 227.06 C 170.835 227.289 170.683 227.561 170.581 227.875 C 170.48 228.191 170.429 228.524 170.429 228.875 C 170.429 229.227 170.483 229.557 170.589 229.867 C 170.695 230.177 170.848 230.443 171.045 230.667 C 171.243 230.891 171.488 231.071 171.781 231.203 C 172.075 231.337 172.408 231.404 172.781 231.404 C 173.155 231.404 173.483 231.337 173.765 231.203 C 174.048 231.071 174.285 230.885 174.477 230.651 C 174.669 230.417 174.816 230.147 174.917 229.844 C 175.019 229.539 175.069 229.221 175.069 228.891 C 175.069 228.539 175.024 228.205 174.933 227.891 C 174.843 227.577 174.701 227.305 174.509 227.076 C 174.317 226.847 174.077 226.661 173.789 226.524 C 173.501 226.385 173.165 226.315 172.781 226.315 C 172.397 226.315 172.061 226.383 171.772 226.516 Z  M 174.237 222.732 C 173.907 222.421 173.469 222.268 172.925 222.268 C 172.349 222.268 171.884 222.409 171.533 222.692 C 171.181 222.975 170.907 223.331 170.709 223.763 C 170.512 224.196 170.376 224.661 170.3 225.164 C 170.227 225.664 170.184 226.135 170.173 226.572 L 170.205 226.604 C 170.525 226.081 170.923 225.703 171.397 225.468 C 171.872 225.233 172.419 225.115 173.037 225.115 C 173.581 225.115 174.069 225.208 174.501 225.396 C 174.933 225.581 175.296 225.841 175.589 226.172 C 175.883 226.503 176.109 226.891 176.269 227.339 C 176.429 227.788 176.509 228.273 176.509 228.796 C 176.509 229.211 176.445 229.643 176.317 230.091 C 176.189 230.539 175.979 230.948 175.685 231.315 C 175.391 231.684 175.003 231.987 174.517 232.227 C 174.032 232.468 173.432 232.587 172.716 232.587 C 171.875 232.587 171.197 232.417 170.685 232.076 C 170.173 231.735 169.779 231.297 169.501 230.763 C 169.223 230.231 169.04 229.643 168.949 229.003 C 168.857 228.363 168.813 227.745 168.813 227.147 C 168.813 226.369 168.88 225.615 169.013 224.883 C 169.147 224.153 169.373 223.505 169.693 222.94 C 170.013 222.375 170.439 221.921 170.973 221.58 C 171.507 221.239 172.179 221.068 172.989 221.068 C 173.928 221.068 174.675 221.315 175.229 221.811 C 175.784 222.308 176.104 223.025 176.189 223.964 L 174.828 223.964 C 174.765 223.451 174.568 223.041 174.237 222.732" fill="rgb(23,111,193)"/><path d=" M 184.421 227.076 C 184.32 226.708 184.164 226.38 183.957 226.091 C 183.748 225.803 183.483 225.575 183.157 225.404 C 182.831 225.233 182.449 225.147 182.013 225.147 C 181.553 225.147 181.164 225.239 180.845 225.42 C 180.524 225.601 180.264 225.839 180.061 226.132 C 179.857 226.424 179.712 226.757 179.621 227.132 C 179.529 227.505 179.485 227.883 179.485 228.268 C 179.485 228.673 179.533 229.065 179.629 229.443 C 179.724 229.823 179.877 230.156 180.084 230.443 C 180.293 230.732 180.561 230.964 180.893 231.139 C 181.223 231.315 181.624 231.404 182.093 231.404 C 182.561 231.404 182.955 231.312 183.269 231.132 C 183.584 230.951 183.836 230.711 184.028 230.412 C 184.22 230.113 184.36 229.771 184.444 229.388 C 184.529 229.003 184.573 228.609 184.573 228.203 C 184.573 227.82 184.523 227.443 184.421 227.076 L 184.421 227.076 Z  M 179.533 224.139 L 179.533 225.26 L 179.565 225.26 C 179.789 224.801 180.14 224.468 180.621 224.26 C 181.101 224.052 181.629 223.948 182.205 223.948 C 182.845 223.948 183.403 224.065 183.877 224.3 C 184.352 224.533 184.745 224.852 185.061 225.251 C 185.376 225.651 185.612 226.113 185.772 226.636 C 185.933 227.159 186.013 227.713 186.013 228.3 C 186.013 228.885 185.936 229.44 185.78 229.964 C 185.627 230.487 185.391 230.943 185.077 231.331 C 184.763 231.721 184.367 232.027 183.893 232.251 C 183.417 232.475 182.865 232.587 182.237 232.587 C 182.033 232.587 181.807 232.565 181.556 232.524 C 181.305 232.48 181.057 232.412 180.813 232.315 C 180.568 232.219 180.335 232.088 180.117 231.923 C 179.899 231.757 179.715 231.552 179.565 231.308 L 179.533 231.308 L 179.533 235.563 L 178.173 235.563 L 178.173 224.139 L 179.533 224.139" fill="rgb(23,111,193)"/><path d=" M 186.956 224.139 L 188.7 224.139 L 190.684 227.035 L 192.748 224.139 L 194.381 224.139 L 191.532 227.948 L 194.732 232.412 L 192.988 232.412 L 190.684 228.987 L 188.381 232.412 L 186.732 232.412 L 189.836 228.06 L 186.956 224.139" fill="rgb(23,111,193)"/><path d=" M 200.3 227.323 L 200.3 228.604 L 195.676 228.604 L 195.676 227.323 L 200.3 227.323 Z " fill="rgb(23,111,193)"/><path d=" M 205.436 232.412 L 205.436 224.284 L 202.492 224.284 L 202.492 223.196 C 202.876 223.196 203.249 223.167 203.612 223.107 C 203.975 223.049 204.303 222.94 204.596 222.779 C 204.889 222.62 205.137 222.401 205.34 222.124 C 205.543 221.847 205.681 221.495 205.756 221.068 L 206.796 221.068 L 206.796 232.412 L 205.436 232.412 Z " fill="rgb(23,111,193)"/><path d=" M 210.876 223.484 C 211.025 222.992 211.257 222.569 211.572 222.211 C 211.887 221.855 212.279 221.575 212.748 221.372 C 213.217 221.169 213.751 221.068 214.348 221.068 C 214.839 221.068 215.3 221.139 215.732 221.284 C 216.164 221.427 216.54 221.636 216.86 221.908 C 217.18 222.18 217.433 222.519 217.62 222.923 C 217.807 223.328 217.9 223.799 217.9 224.331 C 217.9 224.833 217.823 225.276 217.668 225.659 C 217.513 226.044 217.308 226.388 217.052 226.692 C 216.796 226.995 216.503 227.271 216.172 227.516 C 215.841 227.76 215.5 227.995 215.148 228.219 C 214.796 228.432 214.444 228.643 214.092 228.852 C 213.74 229.06 213.417 229.281 213.124 229.516 C 212.831 229.751 212.58 230.003 212.372 230.276 C 212.164 230.547 212.028 230.86 211.964 231.211 L 217.788 231.211 L 217.788 232.412 L 210.38 232.412 C 210.433 231.74 210.553 231.167 210.74 230.692 C 210.927 230.216 211.164 229.803 211.452 229.451 C 211.74 229.099 212.065 228.791 212.428 228.524 C 212.791 228.257 213.169 228.007 213.564 227.771 C 214.044 227.472 214.465 227.197 214.828 226.948 C 215.191 226.697 215.492 226.443 215.732 226.188 C 215.972 225.932 216.153 225.653 216.276 225.356 C 216.399 225.057 216.46 224.711 216.46 224.315 C 216.46 224.007 216.401 223.727 216.284 223.475 C 216.167 223.225 216.009 223.009 215.812 222.828 C 215.615 222.645 215.383 222.508 215.116 222.412 C 214.849 222.315 214.567 222.268 214.268 222.268 C 213.873 222.268 213.535 222.351 213.252 222.516 C 212.969 222.681 212.737 222.897 212.556 223.164 C 212.375 223.429 212.244 223.732 212.164 224.068 C 212.084 224.404 212.049 224.743 212.06 225.084 L 210.7 225.084 C 210.668 224.508 210.727 223.975 210.876 223.484" fill="rgb(23,111,193)"/><path d=" M 221.044 228.26 C 221.071 228.788 221.157 229.284 221.3 229.748 C 221.444 230.211 221.676 230.604 221.996 230.923 C 222.316 231.244 222.764 231.404 223.34 231.404 C 223.917 231.404 224.364 231.244 224.685 230.923 C 225.004 230.604 225.236 230.211 225.381 229.748 C 225.524 229.284 225.609 228.788 225.636 228.26 C 225.663 227.732 225.676 227.253 225.676 226.828 C 225.676 226.549 225.673 226.244 225.668 225.908 C 225.663 225.572 225.636 225.236 225.588 224.9 C 225.54 224.563 225.472 224.236 225.381 223.915 C 225.289 223.596 225.157 223.315 224.98 223.076 C 224.805 222.836 224.584 222.641 224.316 222.492 C 224.049 222.343 223.724 222.268 223.34 222.268 C 222.956 222.268 222.631 222.343 222.364 222.492 C 222.097 222.641 221.876 222.836 221.7 223.076 C 221.524 223.315 221.391 223.596 221.3 223.915 C 221.209 224.236 221.14 224.563 221.092 224.9 C 221.044 225.236 221.017 225.572 221.012 225.908 C 221.007 226.244 221.004 226.549 221.004 226.828 C 221.004 227.253 221.017 227.732 221.044 228.26 L 221.044 228.26 Z  M 219.596 225.547 C 219.617 225.099 219.671 224.661 219.756 224.236 C 219.841 223.809 219.965 223.404 220.124 223.02 C 220.284 222.636 220.503 222.3 220.78 222.012 C 221.057 221.724 221.407 221.495 221.828 221.323 C 222.251 221.153 222.753 221.068 223.34 221.068 C 223.927 221.068 224.431 221.153 224.853 221.323 C 225.273 221.495 225.623 221.724 225.9 222.012 C 226.177 222.3 226.396 222.636 226.556 223.02 C 226.716 223.404 226.839 223.809 226.924 224.236 C 227.009 224.661 227.063 225.099 227.084 225.547 C 227.105 225.995 227.116 226.427 227.116 226.844 C 227.116 227.26 227.105 227.692 227.084 228.139 C 227.063 228.587 227.009 229.025 226.924 229.451 C 226.839 229.877 226.716 230.281 226.556 230.659 C 226.396 231.039 226.177 231.372 225.9 231.659 C 225.623 231.948 225.276 232.175 224.86 232.339 C 224.444 232.505 223.939 232.587 223.34 232.587 C 222.753 232.587 222.251 232.505 221.828 232.339 C 221.407 232.175 221.057 231.948 220.78 231.659 C 220.503 231.372 220.284 231.039 220.124 230.659 C 219.965 230.281 219.841 229.877 219.756 229.451 C 219.671 229.025 219.617 228.587 219.596 228.139 C 219.575 227.692 219.564 227.26 219.564 226.844 C 219.564 226.427 219.575 225.995 219.596 225.547" fill="rgb(23,111,193)"/><path d=" M 235.108 227.076 C 235.007 226.708 234.852 226.38 234.644 226.091 C 234.436 225.803 234.169 225.575 233.844 225.404 C 233.519 225.233 233.137 225.147 232.7 225.147 C 232.241 225.147 231.852 225.239 231.532 225.42 C 231.212 225.601 230.951 225.839 230.748 226.132 C 230.545 226.424 230.399 226.757 230.308 227.132 C 230.217 227.505 230.172 227.883 230.172 228.268 C 230.172 228.673 230.22 229.065 230.316 229.443 C 230.412 229.823 230.564 230.156 230.772 230.443 C 230.98 230.732 231.249 230.964 231.581 231.139 C 231.911 231.315 232.311 231.404 232.78 231.404 C 233.249 231.404 233.641 231.312 233.956 231.132 C 234.271 230.951 234.524 230.711 234.716 230.412 C 234.908 230.113 235.047 229.771 235.132 229.388 C 235.217 229.003 235.26 228.609 235.26 228.203 C 235.26 227.82 235.209 227.443 235.108 227.076 L 235.108 227.076 Z  M 230.22 224.139 L 230.22 225.26 L 230.252 225.26 C 230.476 224.801 230.828 224.468 231.308 224.26 C 231.788 224.052 232.316 223.948 232.892 223.948 C 233.532 223.948 234.089 224.065 234.564 224.3 C 235.039 224.533 235.433 224.852 235.748 225.251 C 236.063 225.651 236.3 226.113 236.46 226.636 C 236.62 227.159 236.7 227.713 236.7 228.3 C 236.7 228.885 236.623 229.44 236.468 229.964 C 236.313 230.487 236.079 230.943 235.764 231.331 C 235.449 231.721 235.055 232.027 234.581 232.251 C 234.105 232.475 233.553 232.587 232.924 232.587 C 232.721 232.587 232.495 232.565 232.244 232.524 C 231.993 232.48 231.745 232.412 231.5 232.315 C 231.255 232.219 231.023 232.088 230.805 231.923 C 230.585 231.757 230.401 231.552 230.252 231.308 L 230.22 231.308 L 230.22 235.563 L 228.86 235.563 L 228.86 224.139 L 230.22 224.139" fill="rgb(23,111,193)"/><path d=" M 237.644 224.139 L 239.388 224.139 L 241.372 227.035 L 243.436 224.139 L 245.068 224.139 L 242.22 227.948 L 245.42 232.412 L 243.676 232.412 L 241.372 228.987 L 239.068 232.412 L 237.42 232.412 L 240.524 228.06 L 237.644 224.139" fill="rgb(23,111,193)"/><path d=" M 447.511 201.787 L 447.511 211.929 L 453.559 211.929 L 453.559 213.211 L 445.992 213.211 L 445.992 201.787 L 447.511 201.787" fill="rgb(23,111,193)"/><path d=" M 459.111 209.219 C 458.832 209.277 458.544 209.325 458.239 209.363 C 457.935 209.4 457.627 209.443 457.319 209.489 C 457.009 209.539 456.731 209.616 456.487 209.721 C 456.241 209.828 456.041 209.981 455.887 210.179 C 455.731 210.375 455.656 210.645 455.656 210.987 C 455.656 211.211 455.7 211.4 455.791 211.555 C 455.881 211.708 455.999 211.833 456.143 211.929 C 456.285 212.027 456.457 212.096 456.656 212.139 C 456.852 212.181 457.051 212.203 457.255 212.203 C 457.703 212.203 458.087 212.141 458.407 212.019 C 458.725 211.896 458.988 211.741 459.191 211.555 C 459.392 211.367 459.544 211.164 459.639 210.945 C 459.733 210.728 459.783 210.523 459.783 210.331 L 459.783 208.937 C 459.611 209.067 459.387 209.159 459.111 209.219 L 459.111 209.219 Z  M 461.015 213.385 C 460.663 213.385 460.383 213.288 460.173 213.091 C 459.967 212.893 459.863 212.571 459.863 212.123 C 459.489 212.571 459.053 212.893 458.559 213.091 C 458.061 213.288 457.527 213.385 456.949 213.385 C 456.577 213.385 456.225 213.347 455.895 213.265 C 455.564 213.187 455.272 213.052 455.023 212.867 C 454.772 212.68 454.575 212.44 454.432 212.145 C 454.285 211.853 454.216 211.497 454.216 211.081 C 454.216 210.613 454.295 210.229 454.455 209.929 C 454.613 209.632 454.825 209.389 455.087 209.203 C 455.348 209.016 455.647 208.875 455.983 208.779 C 456.319 208.683 456.663 208.601 457.015 208.539 C 457.387 208.464 457.743 208.408 458.079 208.369 C 458.415 208.333 458.711 208.28 458.967 208.211 C 459.223 208.141 459.425 208.039 459.575 207.907 C 459.723 207.773 459.799 207.579 459.799 207.323 C 459.799 207.024 459.743 206.784 459.631 206.601 C 459.519 206.421 459.375 206.283 459.199 206.187 C 459.023 206.091 458.825 206.027 458.605 205.995 C 458.387 205.963 458.171 205.945 457.959 205.945 C 457.383 205.945 456.903 206.056 456.519 206.273 C 456.135 206.492 455.927 206.907 455.895 207.515 L 454.535 207.515 C 454.556 207.003 454.663 206.571 454.855 206.219 C 455.047 205.867 455.303 205.581 455.621 205.363 C 455.941 205.143 456.311 204.987 456.725 204.891 C 457.143 204.795 457.58 204.747 458.039 204.747 C 458.412 204.747 458.783 204.773 459.151 204.825 C 459.519 204.88 459.852 204.989 460.151 205.153 C 460.449 205.32 460.689 205.552 460.871 205.851 C 461.051 206.148 461.143 206.539 461.143 207.019 L 461.143 211.273 C 461.143 211.593 461.161 211.828 461.199 211.979 C 461.236 212.128 461.361 212.203 461.575 212.203 C 461.692 212.203 461.829 212.176 461.992 212.123 L 461.992 213.179 C 461.756 213.317 461.432 213.385 461.015 213.385" fill="rgb(23,111,193)"/><path d=" M 464.487 204.937 L 464.487 206.683 L 464.517 206.683 C 464.848 206.011 465.255 205.515 465.733 205.193 C 466.215 204.875 466.823 204.725 467.559 204.747 L 467.559 206.187 C 467.015 206.187 466.551 206.26 466.165 206.411 C 465.783 206.56 465.473 206.779 465.239 207.067 C 465.004 207.355 464.832 207.703 464.725 208.115 C 464.619 208.525 464.567 208.997 464.567 209.531 L 464.567 213.211 L 463.207 213.211 L 463.207 204.937 L 464.487 204.937" fill="rgb(23,111,193)"/><path d=" M 472.605 211.825 C 472.921 211.641 473.173 211.395 473.367 211.091 C 473.559 210.787 473.7 210.443 473.791 210.059 C 473.881 209.675 473.927 209.291 473.927 208.907 C 473.927 208.544 473.884 208.187 473.799 207.833 C 473.713 207.481 473.577 207.164 473.389 206.883 C 473.204 206.599 472.96 206.372 472.663 206.203 C 472.364 206.031 472.001 205.945 471.575 205.945 C 471.137 205.945 470.764 206.029 470.455 206.193 C 470.145 206.36 469.892 206.581 469.695 206.859 C 469.496 207.136 469.353 207.456 469.263 207.817 C 469.171 208.181 469.127 208.56 469.127 208.955 C 469.127 209.328 469.163 209.7 469.239 210.075 C 469.313 210.448 469.441 210.787 469.621 211.091 C 469.804 211.395 470.044 211.641 470.343 211.825 C 470.641 212.013 471.015 212.107 471.463 212.107 C 471.911 212.107 472.291 212.013 472.605 211.825 L 472.605 211.825 Z  M 474.343 215.547 C 473.723 216.219 472.753 216.555 471.432 216.555 C 471.047 216.555 470.656 216.512 470.255 216.427 C 469.855 216.341 469.492 216.203 469.165 216.011 C 468.84 215.817 468.572 215.568 468.359 215.257 C 468.145 214.948 468.028 214.571 468.007 214.123 L 469.367 214.123 C 469.377 214.367 469.455 214.576 469.599 214.747 C 469.743 214.917 469.919 215.055 470.127 215.161 C 470.335 215.268 470.561 215.347 470.807 215.395 C 471.051 215.443 471.285 215.467 471.509 215.467 C 471.959 215.467 472.337 215.388 472.647 215.235 C 472.955 215.08 473.213 214.867 473.415 214.593 C 473.616 214.323 473.764 213.995 473.855 213.609 C 473.944 213.227 473.992 212.805 473.992 212.347 L 473.992 211.803 L 473.959 211.803 C 473.723 212.315 473.369 212.691 472.895 212.929 C 472.42 213.171 471.916 213.291 471.383 213.291 C 470.764 213.291 470.225 213.179 469.768 212.955 C 469.308 212.731 468.924 212.429 468.613 212.049 C 468.305 211.672 468.072 211.229 467.919 210.721 C 467.764 210.216 467.687 209.68 467.687 209.115 C 467.687 208.624 467.751 208.12 467.88 207.601 C 468.007 207.087 468.22 206.616 468.519 206.193 C 468.817 205.773 469.213 205.427 469.703 205.153 C 470.193 204.883 470.796 204.747 471.509 204.747 C 472.033 204.747 472.512 204.863 472.949 205.091 C 473.387 205.32 473.728 205.664 473.975 206.123 L 473.992 206.123 L 473.992 204.937 L 475.271 204.937 L 475.271 212.507 C 475.271 213.86 474.96 214.875 474.343 215.547" fill="rgb(23,111,193)"/><path d=" M 482.845 207.369 C 482.723 207.081 482.559 206.833 482.351 206.627 C 482.143 206.417 481.896 206.253 481.613 206.131 C 481.331 206.008 481.02 205.945 480.679 205.945 C 480.327 205.945 480.008 206.008 479.725 206.131 C 479.443 206.253 479.2 206.421 478.997 206.635 C 478.796 206.848 478.635 207.096 478.517 207.377 C 478.4 207.661 478.331 207.963 478.311 208.283 L 483.061 208.283 C 483.041 207.963 482.968 207.659 482.845 207.369 L 482.845 207.369 Z  M 483.173 212.683 C 482.556 213.151 481.776 213.385 480.837 213.385 C 480.176 213.385 479.604 213.279 479.119 213.067 C 478.632 212.853 478.224 212.555 477.895 212.171 C 477.564 211.787 477.316 211.328 477.151 210.795 C 476.985 210.26 476.891 209.68 476.871 209.049 C 476.871 208.421 476.965 207.845 477.159 207.323 C 477.351 206.8 477.619 206.347 477.965 205.963 C 478.312 205.579 478.723 205.28 479.199 205.067 C 479.672 204.853 480.192 204.747 480.759 204.747 C 481.495 204.747 482.105 204.899 482.591 205.203 C 483.075 205.507 483.465 205.893 483.759 206.363 C 484.051 206.832 484.255 207.344 484.367 207.899 C 484.479 208.453 484.523 208.981 484.501 209.481 L 478.311 209.481 C 478.299 209.845 478.343 210.189 478.439 210.515 C 478.535 210.84 478.689 211.128 478.903 211.377 C 479.115 211.629 479.387 211.828 479.717 211.979 C 480.049 212.128 480.439 212.203 480.885 212.203 C 481.463 212.203 481.935 212.069 482.301 211.803 C 482.671 211.536 482.913 211.131 483.031 210.587 L 484.375 210.587 C 484.192 211.515 483.793 212.213 483.173 212.683" fill="rgb(23,111,193)"/><path d=" M 487.143 204.937 L 487.143 206.683 L 487.173 206.683 C 487.504 206.011 487.911 205.515 488.389 205.193 C 488.869 204.875 489.479 204.725 490.215 204.747 L 490.215 206.187 C 489.669 206.187 489.207 206.26 488.823 206.411 C 488.439 206.56 488.128 206.779 487.893 207.067 C 487.66 207.355 487.489 207.703 487.383 208.115 C 487.275 208.525 487.223 208.997 487.223 209.531 L 487.223 213.211 L 485.861 213.211 L 485.861 204.937 L 487.143 204.937" fill="rgb(23,111,193)"/><path d=" M 424.343 225.339 L 424.343 224.139 L 425.735 224.139 L 425.735 222.907 C 425.735 222.235 425.929 221.724 426.32 221.377 C 426.708 221.031 427.275 220.859 428.023 220.859 C 428.151 220.859 428.297 220.869 428.463 220.891 C 428.628 220.912 428.775 220.943 428.903 220.987 L 428.903 222.169 C 428.785 222.128 428.659 222.099 428.519 222.081 C 428.38 222.067 428.252 222.057 428.135 222.057 C 427.804 222.057 427.549 222.123 427.367 222.251 C 427.185 222.377 427.096 222.624 427.096 222.987 L 427.096 224.139 L 428.695 224.139 L 428.695 225.339 L 427.096 225.339 L 427.096 232.411 L 425.735 232.411 L 425.735 225.339 L 424.343 225.339" fill="rgb(23,111,193)"/><path d=" M 431.104 229.617 C 431.236 230.008 431.42 230.333 431.656 230.593 C 431.889 230.856 432.163 231.055 432.479 231.193 C 432.793 231.333 433.127 231.403 433.479 231.403 C 433.829 231.403 434.163 231.333 434.479 231.193 C 434.793 231.055 435.067 230.856 435.303 230.593 C 435.537 230.333 435.72 230.008 435.855 229.617 C 435.989 229.229 436.053 228.784 436.053 228.281 C 436.053 227.781 435.989 227.336 435.855 226.945 C 435.72 226.557 435.537 226.229 435.303 225.963 C 435.067 225.696 434.793 225.492 434.479 225.355 C 434.163 225.216 433.829 225.145 433.479 225.145 C 433.127 225.145 432.793 225.216 432.479 225.355 C 432.163 225.492 431.889 225.696 431.656 225.963 C 431.42 226.229 431.236 226.557 431.104 226.945 C 430.969 227.336 430.903 227.781 430.903 228.281 C 430.903 228.784 430.969 229.229 431.104 229.617 Z  M 429.717 226.579 C 429.889 226.049 430.145 225.591 430.487 225.203 C 430.828 224.812 431.249 224.505 431.751 224.281 C 432.252 224.057 432.828 223.945 433.479 223.945 C 434.14 223.945 434.717 224.057 435.216 224.281 C 435.711 224.505 436.129 224.812 436.471 225.203 C 436.812 225.591 437.067 226.049 437.239 226.579 C 437.409 227.107 437.495 227.675 437.495 228.281 C 437.495 228.891 437.409 229.456 437.239 229.977 C 437.067 230.5 436.812 230.957 436.471 231.347 C 436.129 231.736 435.711 232.039 435.216 232.257 C 434.717 232.476 434.14 232.587 433.479 232.587 C 432.828 232.587 432.252 232.476 431.751 232.257 C 431.249 232.039 430.828 231.736 430.487 231.347 C 430.145 230.957 429.889 230.5 429.717 229.977 C 429.549 229.456 429.463 228.891 429.463 228.281 C 429.463 227.675 429.549 227.107 429.717 226.579 Z " fill="rgb(23,111,193)"/><path d=" M 440.328 224.139 L 440.328 225.883 L 440.359 225.883 C 440.689 225.211 441.096 224.713 441.575 224.393 C 442.053 224.075 442.663 223.924 443.399 223.945 L 443.399 225.385 C 442.855 225.385 442.391 225.461 442.007 225.609 C 441.623 225.76 441.313 225.977 441.079 226.265 C 440.844 226.555 440.673 226.904 440.567 227.315 C 440.46 227.724 440.407 228.196 440.407 228.731 L 440.407 232.411 L 439.047 232.411 L 439.047 224.139 L 440.328 224.139" fill="rgb(23,111,193)"/><path d=" M 452.181 232.411 L 452.181 224.281 L 449.239 224.281 L 449.239 223.193 C 449.621 223.193 449.995 223.164 450.359 223.107 C 450.72 223.047 451.049 222.937 451.343 222.779 C 451.635 222.617 451.883 222.4 452.087 222.123 C 452.288 221.845 452.428 221.492 452.501 221.067 L 453.543 221.067 L 453.543 232.411 L 452.181 232.411 Z " fill="rgb(23,111,193)"/><path d=" M 457.623 223.481 C 457.772 222.992 458.004 222.568 458.32 222.211 C 458.633 221.853 459.025 221.573 459.495 221.369 C 459.964 221.168 460.496 221.067 461.096 221.067 C 461.585 221.067 462.047 221.139 462.479 221.281 C 462.911 221.427 463.287 221.635 463.605 221.907 C 463.927 222.179 464.18 222.517 464.367 222.921 C 464.553 223.328 464.648 223.797 464.648 224.331 C 464.648 224.831 464.569 225.273 464.415 225.659 C 464.26 226.041 464.053 226.385 463.799 226.691 C 463.544 226.995 463.249 227.268 462.919 227.515 C 462.588 227.76 462.247 227.995 461.895 228.219 C 461.544 228.432 461.191 228.641 460.837 228.851 C 460.487 229.057 460.163 229.28 459.872 229.515 C 459.577 229.748 459.328 230.003 459.119 230.273 C 458.911 230.547 458.775 230.859 458.711 231.211 L 464.536 231.211 L 464.536 232.411 L 457.127 232.411 C 457.18 231.739 457.3 231.164 457.487 230.691 C 457.673 230.216 457.911 229.803 458.199 229.451 C 458.487 229.099 458.812 228.789 459.175 228.523 C 459.537 228.255 459.916 228.005 460.311 227.771 C 460.791 227.472 461.213 227.196 461.575 226.945 C 461.937 226.696 462.239 226.443 462.479 226.187 C 462.717 225.929 462.9 225.653 463.023 225.355 C 463.145 225.055 463.208 224.708 463.208 224.315 C 463.208 224.005 463.148 223.724 463.031 223.475 C 462.913 223.224 462.756 223.008 462.559 222.825 C 462.361 222.645 462.129 222.505 461.863 222.411 C 461.596 222.315 461.313 222.265 461.015 222.265 C 460.619 222.265 460.28 222.349 459.999 222.515 C 459.716 222.68 459.484 222.896 459.303 223.161 C 459.121 223.429 458.992 223.731 458.911 224.067 C 458.829 224.403 458.796 224.741 458.807 225.081 L 457.447 225.081 C 457.415 224.505 457.473 223.972 457.623 223.481" fill="rgb(23,111,193)"/><path d=" M 467.791 228.257 C 467.817 228.787 467.903 229.281 468.047 229.747 C 468.191 230.211 468.423 230.601 468.743 230.921 C 469.061 231.243 469.509 231.403 470.087 231.403 C 470.663 231.403 471.111 231.243 471.432 230.921 C 471.751 230.601 471.983 230.211 472.127 229.747 C 472.271 229.281 472.356 228.787 472.383 228.257 C 472.408 227.731 472.423 227.253 472.423 226.825 C 472.423 226.549 472.42 226.243 472.415 225.907 C 472.408 225.571 472.383 225.235 472.335 224.899 C 472.285 224.563 472.217 224.235 472.127 223.915 C 472.036 223.593 471.903 223.315 471.725 223.075 C 471.551 222.833 471.329 222.641 471.061 222.489 C 470.796 222.341 470.471 222.265 470.087 222.265 C 469.703 222.265 469.377 222.341 469.111 222.489 C 468.843 222.641 468.621 222.833 468.447 223.075 C 468.271 223.315 468.137 223.593 468.047 223.915 C 467.955 224.235 467.887 224.563 467.837 224.899 C 467.791 225.235 467.764 225.571 467.759 225.907 C 467.753 226.243 467.751 226.549 467.751 226.825 C 467.751 227.253 467.764 227.731 467.791 228.257 Z  M 466.343 225.547 C 466.364 225.099 466.417 224.661 466.501 224.235 C 466.588 223.808 466.711 223.403 466.871 223.019 C 467.031 222.635 467.249 222.299 467.527 222.011 C 467.804 221.721 468.153 221.492 468.575 221.323 C 468.996 221.151 469.499 221.067 470.087 221.067 C 470.673 221.067 471.176 221.151 471.599 221.323 C 472.02 221.492 472.369 221.721 472.647 222.011 C 472.924 222.299 473.143 222.635 473.303 223.019 C 473.463 223.403 473.585 223.808 473.671 224.235 C 473.756 224.661 473.809 225.099 473.829 225.547 C 473.852 225.995 473.863 226.427 473.863 226.843 C 473.863 227.257 473.852 227.691 473.829 228.139 C 473.809 228.587 473.756 229.024 473.671 229.451 C 473.585 229.877 473.463 230.28 473.303 230.659 C 473.143 231.036 472.924 231.369 472.647 231.659 C 472.369 231.945 472.023 232.173 471.605 232.339 C 471.191 232.503 470.684 232.587 470.087 232.587 C 469.499 232.587 468.996 232.503 468.575 232.339 C 468.153 232.173 467.804 231.945 467.527 231.659 C 467.249 231.369 467.031 231.036 466.871 230.659 C 466.711 230.28 466.588 229.877 466.501 229.451 C 466.417 229.024 466.364 228.587 466.343 228.139 C 466.321 227.691 466.311 227.257 466.311 226.843 C 466.311 226.427 466.321 225.995 466.343 225.547" fill="rgb(23,111,193)"/><path d=" M 481.855 227.075 C 481.753 226.705 481.599 226.377 481.389 226.089 C 481.181 225.803 480.916 225.573 480.591 225.403 C 480.265 225.232 479.883 225.145 479.447 225.145 C 478.988 225.145 478.599 225.237 478.277 225.417 C 477.957 225.599 477.697 225.836 477.495 226.131 C 477.291 226.424 477.145 226.757 477.053 227.131 C 476.963 227.504 476.919 227.883 476.919 228.265 C 476.919 228.672 476.967 229.064 477.061 229.443 C 477.159 229.82 477.311 230.153 477.517 230.443 C 477.725 230.731 477.995 230.963 478.328 231.139 C 478.657 231.315 479.056 231.403 479.527 231.403 C 479.995 231.403 480.387 231.312 480.703 231.131 C 481.017 230.949 481.271 230.708 481.463 230.411 C 481.655 230.112 481.793 229.771 481.879 229.385 C 481.963 229.003 482.007 228.607 482.007 228.203 C 482.007 227.817 481.955 227.443 481.855 227.075 L 481.855 227.075 Z  M 476.967 224.139 L 476.967 225.257 L 476.999 225.257 C 477.223 224.8 477.575 224.467 478.053 224.257 C 478.535 224.049 479.061 223.945 479.639 223.945 C 480.277 223.945 480.835 224.064 481.311 224.299 C 481.785 224.533 482.179 224.851 482.495 225.251 C 482.809 225.651 483.047 226.112 483.207 226.635 C 483.367 227.156 483.447 227.711 483.447 228.299 C 483.447 228.885 483.369 229.44 483.215 229.963 C 483.059 230.484 482.825 230.94 482.509 231.331 C 482.196 231.719 481.801 232.027 481.328 232.251 C 480.851 232.475 480.299 232.587 479.671 232.587 C 479.468 232.587 479.241 232.565 478.991 232.523 C 478.739 232.479 478.492 232.411 478.247 232.315 C 478.001 232.219 477.769 232.088 477.551 231.921 C 477.332 231.757 477.148 231.552 476.999 231.305 L 476.967 231.305 L 476.967 235.563 L 475.605 235.563 L 475.605 224.139 L 476.967 224.139" fill="rgb(23,111,193)"/><path d=" M 484.389 224.139 L 486.135 224.139 L 488.117 227.033 L 490.181 224.139 L 491.815 224.139 L 488.965 227.945 L 492.165 232.411 L 490.421 232.411 L 488.117 228.987 L 485.815 232.411 L 484.165 232.411 L 487.271 228.057 L 484.389 224.139 Z " fill="rgb(23,111,193)"/><path d=" M 505.591 227.817 L 505.591 228.907 L 502.103 228.907 L 502.103 232.411 L 501.015 232.411 L 501.015 228.907 L 497.527 228.907 L 497.527 227.817 L 501.015 227.817 L 501.015 224.315 L 502.103 224.315 L 502.103 227.817 L 505.591 227.817 Z " fill="rgb(23,111,193)"/><path d=" M 203.477 441.927 C 191.485 441.927 181.76 451.651 181.76 463.647 C 181.76 473.243 187.983 481.383 196.613 484.255 C 197.7 484.455 198.096 483.784 198.096 483.208 C 198.096 482.692 198.077 481.327 198.067 479.515 C 192.025 480.827 190.751 476.603 190.751 476.603 C 189.763 474.093 188.339 473.425 188.339 473.425 C 186.367 472.079 188.488 472.105 188.488 472.105 C 190.668 472.259 191.815 474.344 191.815 474.344 C 193.752 477.663 196.899 476.704 198.136 476.148 C 198.333 474.745 198.895 473.788 199.515 473.245 C 194.692 472.697 189.621 470.833 189.621 462.511 C 189.621 460.14 190.468 458.2 191.857 456.683 C 191.633 456.133 190.888 453.924 192.071 450.935 C 192.071 450.935 193.893 450.351 198.043 453.161 C 199.775 452.679 201.633 452.439 203.48 452.429 C 205.325 452.439 207.183 452.679 208.917 453.161 C 213.064 450.351 214.884 450.935 214.884 450.935 C 216.069 453.924 215.324 456.133 215.101 456.683 C 216.493 458.2 217.333 460.14 217.333 462.511 C 217.333 470.855 212.255 472.691 207.417 473.228 C 208.196 473.899 208.891 475.224 208.891 477.249 C 208.891 480.153 208.864 482.496 208.864 483.208 C 208.864 483.789 209.256 484.465 210.357 484.253 C 218.981 481.375 225.199 473.24 225.199 463.647 C 225.199 451.651 215.473 441.927 203.477 441.927" fill-rule="evenodd" fill="rgb(255,255,255)"/><path d=" M 467.479 376.581 C 423.016 376.581 386.961 412.628 386.961 457.097 C 386.961 492.672 410.032 522.853 442.024 533.5 C 446.048 534.245 447.525 531.753 447.525 529.627 C 447.525 527.707 447.451 521.364 447.416 514.636 C 425.016 519.507 420.289 505.136 420.289 505.136 C 416.627 495.829 411.349 493.355 411.349 493.355 C 404.044 488.357 411.9 488.46 411.9 488.46 C 419.985 489.027 424.243 496.757 424.243 496.757 C 431.424 509.067 443.079 505.508 447.673 503.451 C 448.396 498.248 450.483 494.693 452.785 492.684 C 434.901 490.648 416.101 483.744 416.101 452.892 C 416.101 444.101 419.247 436.919 424.397 431.28 C 423.561 429.251 420.805 421.063 425.177 409.972 C 425.177 409.972 431.939 407.808 447.325 418.225 C 453.748 416.441 460.636 415.547 467.479 415.516 C 474.321 415.547 481.215 416.441 487.649 418.225 C 503.017 407.808 509.769 409.972 509.769 409.972 C 514.152 421.063 511.395 429.251 510.559 431.28 C 515.721 436.919 518.845 444.101 518.845 452.892 C 518.845 483.817 500.009 490.627 482.08 492.62 C 484.968 495.119 487.541 500.019 487.541 507.531 C 487.541 518.303 487.448 526.973 487.448 529.627 C 487.448 531.769 488.897 534.28 492.979 533.489 C 524.953 522.831 547.995 492.66 547.995 457.097 C 547.995 412.628 511.945 376.581 467.479 376.581" fill-rule="evenodd" fill="rgb(255,255,255)"/><path d=" M 417.457 492.185 C 417.28 492.587 416.651 492.705 416.077 492.431 C 415.493 492.168 415.165 491.623 415.355 491.221 C 415.528 490.809 416.159 490.696 416.741 490.969 C 417.327 491.233 417.66 491.784 417.457 492.185 L 417.457 492.185" fill="rgb(255,255,255)"/><path d=" M 420.719 495.823 C 420.335 496.179 419.584 496.013 419.075 495.451 C 418.548 494.889 418.449 494.139 418.839 493.777 C 419.235 493.421 419.963 493.588 420.491 494.149 C 421.017 494.717 421.12 495.463 420.719 495.823 L 420.719 495.823 Z " fill="rgb(255,255,255)"/><path d=" M 423.893 500.46 C 423.4 500.803 422.593 500.481 422.095 499.765 C 421.601 499.049 421.601 498.191 422.105 497.847 C 422.605 497.503 423.4 497.812 423.905 498.523 C 424.397 499.249 424.397 500.109 423.893 500.46 L 423.893 500.46" fill="rgb(255,255,255)"/><path d=" M 428.243 504.94 C 427.801 505.427 426.861 505.296 426.173 504.632 C 425.469 503.983 425.273 503.061 425.716 502.575 C 426.163 502.087 427.108 502.224 427.801 502.883 C 428.5 503.531 428.713 504.459 428.243 504.94 L 428.243 504.94 Z " fill="rgb(255,255,255)"/><path d=" M 434.243 507.541 C 434.048 508.172 433.143 508.459 432.231 508.191 C 431.32 507.915 430.724 507.176 430.908 506.539 C 431.097 505.904 432.007 505.605 432.925 505.892 C 433.835 506.167 434.432 506.9 434.243 507.541 L 434.243 507.541" fill="rgb(255,255,255)"/><path d=" M 440.832 508.024 C 440.855 508.688 440.081 509.239 439.124 509.249 C 438.161 509.272 437.383 508.735 437.372 508.081 C 437.372 507.411 438.128 506.865 439.091 506.849 C 440.048 506.831 440.832 507.364 440.832 508.024 L 440.832 508.024 Z " fill="rgb(255,255,255)"/><path d=" M 446.964 506.98 C 447.079 507.628 446.413 508.293 445.463 508.469 C 444.528 508.641 443.663 508.241 443.544 507.599 C 443.428 506.935 444.105 506.269 445.039 506.097 C 445.991 505.932 446.843 506.321 446.964 506.98 L 446.964 506.98 Z " fill="rgb(255,255,255)"/><mask id="_mask_OKaWVrvY9elQw3nLKrizkDre1QirjUmt" x="-200%" y="-200%" width="400%" height="400%"><rect x="-200%" y="-200%" width="400%" height="400%" style="fill:white;"/><line x1="299.864" y1="368.669" x2="299.864" y2="369.336" fill="black" stroke="none"/></mask><line x1="299.864" y1="368.669" x2="299.864" y2="369.336" mask="url(#_mask_OKaWVrvY9elQw3nLKrizkDre1QirjUmt)" vector-effect="non-scaling-stroke" stroke-width="2.667" stroke="rgb(58,127,195)" stroke-linejoin="miter" stroke-linecap="round" stroke-miterlimit="10"/><mask id="_mask_Bp3SFhdPzMJ4J8L2zTJCPXMECILaRwcx" x="-200%" y="-200%" width="400%" height="400%"><rect x="-200%" y="-200%" width="400%" height="400%" style="fill:white;"/><line x1="299.864" y1="372.003" x2="299.864" y2="550.66" fill="black" stroke="none"/></mask><line x1="299.864" y1="372.003" x2="299.864" y2="550.66" mask="url(#_mask_Bp3SFhdPzMJ4J8L2zTJCPXMECILaRwcx)" vector-effect="non-scaling-stroke" stroke-width="2.667" stroke="rgb(58,127,195)" stroke-linejoin="miter" stroke-linecap="round" stroke-miterlimit="10"/><mask id="_mask_ywLxDUumYutUez1DgUX5LaGgy4ig9wS5" x="-200%" y="-200%" width="400%" height="400%"><rect x="-200%" y="-200%" width="400%" height="400%" style="fill:white;"/><line x1="299.864" y1="551.993" x2="299.864" y2="552.66" fill="black" stroke="none"/></mask><line x1="299.864" y1="551.993" x2="299.864" y2="552.66" mask="url(#_mask_ywLxDUumYutUez1DgUX5LaGgy4ig9wS5)" vector-effect="non-scaling-stroke" stroke-width="2.667" stroke="rgb(58,127,195)" stroke-linejoin="miter" stroke-linecap="round" stroke-miterlimit="10"/><path d=" M 177.701 571.348 C 177.193 570.979 176.547 570.796 175.757 570.796 C 175.437 570.796 175.123 570.828 174.813 570.891 C 174.503 570.956 174.229 571.063 173.989 571.211 C 173.749 571.363 173.557 571.561 173.412 571.812 C 173.269 572.063 173.197 572.375 173.197 572.748 C 173.197 573.099 173.3 573.385 173.509 573.604 C 173.716 573.823 173.995 574.001 174.341 574.14 C 174.688 574.279 175.079 574.393 175.517 574.484 C 175.955 574.575 176.4 574.673 176.853 574.779 C 177.307 574.885 177.751 575.012 178.189 575.156 C 178.627 575.3 179.019 575.495 179.365 575.74 C 179.712 575.984 179.989 576.295 180.197 576.667 C 180.405 577.041 180.509 577.511 180.509 578.076 C 180.509 578.684 180.373 579.203 180.101 579.636 C 179.828 580.068 179.48 580.42 179.053 580.692 C 178.627 580.964 178.149 581.161 177.621 581.284 C 177.093 581.406 176.568 581.468 176.045 581.468 C 175.405 581.468 174.8 581.388 174.229 581.228 C 173.659 581.068 173.157 580.825 172.725 580.5 C 172.293 580.175 171.952 579.757 171.701 579.251 C 171.451 578.745 171.325 578.145 171.325 577.452 L 172.765 577.452 C 172.765 577.932 172.857 578.345 173.045 578.692 C 173.232 579.039 173.477 579.323 173.781 579.547 C 174.085 579.771 174.439 579.937 174.845 580.044 C 175.251 580.151 175.665 580.203 176.093 580.203 C 176.435 580.203 176.779 580.172 177.125 580.106 C 177.472 580.044 177.784 579.935 178.061 579.779 C 178.339 579.625 178.563 579.415 178.733 579.148 C 178.904 578.88 178.989 578.539 178.989 578.124 C 178.989 577.729 178.884 577.409 178.677 577.164 C 178.469 576.92 178.191 576.718 177.845 576.564 C 177.497 576.409 177.105 576.284 176.669 576.188 C 176.232 576.091 175.787 575.992 175.333 575.891 C 174.88 575.791 174.435 575.673 173.997 575.539 C 173.56 575.406 173.167 575.23 172.821 575.012 C 172.475 574.793 172.197 574.511 171.989 574.164 C 171.781 573.817 171.677 573.383 171.677 572.859 C 171.677 572.284 171.795 571.785 172.029 571.364 C 172.264 570.942 172.576 570.596 172.965 570.323 C 173.355 570.052 173.797 569.849 174.293 569.716 C 174.789 569.583 175.299 569.516 175.821 569.516 C 176.408 569.516 176.952 569.587 177.453 569.724 C 177.955 569.863 178.395 570.081 178.772 570.38 C 179.152 570.679 179.451 571.055 179.669 571.508 C 179.887 571.961 180.008 572.503 180.029 573.132 L 178.589 573.132 C 178.503 572.31 178.208 571.716 177.701 571.348" fill="rgb(23,111,193)"/><path d=" M 183.405 572.94 L 183.405 574.156 L 183.437 574.156 C 184.055 573.216 184.945 572.748 186.108 572.748 C 186.621 572.748 187.084 572.855 187.5 573.068 C 187.917 573.281 188.211 573.643 188.381 574.156 C 188.659 573.708 189.024 573.363 189.477 573.116 C 189.931 572.869 190.429 572.748 190.972 572.748 C 191.388 572.748 191.765 572.793 192.101 572.883 C 192.437 572.973 192.724 573.116 192.965 573.306 C 193.205 573.5 193.391 573.748 193.524 574.052 C 193.659 574.356 193.724 574.722 193.724 575.148 L 193.724 581.211 L 192.365 581.211 L 192.365 575.788 C 192.365 575.53 192.343 575.292 192.3 575.068 C 192.259 574.844 192.179 574.648 192.061 574.484 C 191.943 574.317 191.78 574.188 191.573 574.091 C 191.365 573.995 191.096 573.948 190.765 573.948 C 190.093 573.948 189.565 574.14 189.181 574.524 C 188.797 574.908 188.605 575.42 188.605 576.06 L 188.605 581.211 L 187.244 581.211 L 187.244 575.788 C 187.244 575.522 187.22 575.276 187.173 575.052 C 187.125 574.828 187.043 574.634 186.925 574.468 C 186.807 574.303 186.651 574.175 186.453 574.083 C 186.255 573.992 186.001 573.948 185.693 573.948 C 185.299 573.948 184.96 574.027 184.677 574.188 C 184.393 574.348 184.164 574.539 183.989 574.763 C 183.813 574.987 183.685 575.218 183.605 575.46 C 183.524 575.7 183.485 575.9 183.485 576.06 L 183.485 581.211 L 182.125 581.211 L 182.125 572.94 L 183.405 572.94" fill="rgb(23,111,193)"/><path d=" M 200.22 577.218 C 199.943 577.279 199.653 577.325 199.349 577.364 C 199.045 577.401 198.737 577.442 198.428 577.492 C 198.119 577.539 197.841 577.617 197.597 577.724 C 197.351 577.83 197.151 577.981 196.996 578.18 C 196.841 578.377 196.765 578.645 196.765 578.987 C 196.765 579.211 196.809 579.401 196.9 579.555 C 196.991 579.711 197.108 579.836 197.252 579.932 C 197.396 580.027 197.567 580.096 197.765 580.14 C 197.963 580.183 198.161 580.203 198.364 580.203 C 198.812 580.203 199.196 580.143 199.517 580.02 C 199.836 579.897 200.097 579.742 200.3 579.555 C 200.503 579.369 200.653 579.167 200.748 578.948 C 200.844 578.729 200.892 578.524 200.892 578.33 L 200.892 576.94 C 200.721 577.068 200.497 577.161 200.22 577.218 L 200.22 577.218 Z  M 202.125 581.388 C 201.772 581.388 201.493 581.289 201.284 581.091 C 201.077 580.895 200.972 580.572 200.972 580.124 C 200.599 580.572 200.164 580.895 199.668 581.091 C 199.172 581.289 198.636 581.388 198.06 581.388 C 197.688 581.388 197.335 581.348 197.004 581.268 C 196.673 581.188 196.383 581.055 196.133 580.867 C 195.883 580.681 195.685 580.441 195.541 580.148 C 195.396 579.855 195.325 579.5 195.325 579.083 C 195.325 578.615 195.405 578.23 195.564 577.932 C 195.724 577.634 195.935 577.391 196.196 577.203 C 196.457 577.017 196.756 576.875 197.092 576.779 C 197.428 576.684 197.772 576.604 198.125 576.539 C 198.497 576.465 198.853 576.409 199.189 576.372 C 199.524 576.335 199.821 576.281 200.077 576.211 C 200.332 576.143 200.535 576.041 200.685 575.908 C 200.833 575.773 200.909 575.58 200.909 575.323 C 200.909 575.025 200.853 574.785 200.741 574.604 C 200.629 574.422 200.484 574.284 200.308 574.188 C 200.133 574.091 199.935 574.027 199.716 573.995 C 199.497 573.964 199.281 573.948 199.069 573.948 C 198.493 573.948 198.013 574.057 197.629 574.276 C 197.244 574.495 197.036 574.908 197.004 575.516 L 195.644 575.516 C 195.665 575.004 195.772 574.572 195.965 574.218 C 196.157 573.867 196.412 573.583 196.732 573.364 C 197.052 573.145 197.42 572.987 197.836 572.891 C 198.252 572.796 198.689 572.748 199.148 572.748 C 199.523 572.748 199.892 572.773 200.26 572.828 C 200.629 572.88 200.963 572.989 201.26 573.156 C 201.559 573.32 201.8 573.553 201.98 573.852 C 202.161 574.151 202.252 574.539 202.252 575.02 L 202.252 579.276 C 202.252 579.596 202.272 579.83 202.308 579.979 C 202.345 580.129 202.472 580.203 202.685 580.203 C 202.803 580.203 202.94 580.177 203.101 580.124 L 203.101 581.18 C 202.865 581.317 202.541 581.388 202.125 581.388" fill="rgb(23,111,193)"/><path d=" M 205.805 569.788 L 205.805 581.211 L 204.444 581.211 L 204.444 569.788 L 205.805 569.788" fill="rgb(23,111,193)"/><path d=" M 209.356 569.788 L 209.356 581.211 L 207.996 581.211 L 207.996 569.788 L 209.356 569.788" fill="rgb(23,111,193)"/><path d=" M 135.805 593.339 L 135.805 592.14 L 137.197 592.14 L 137.197 590.908 C 137.197 590.236 137.392 589.727 137.781 589.38 C 138.171 589.034 138.739 588.859 139.485 588.859 C 139.613 588.859 139.76 588.869 139.925 588.891 C 140.091 588.913 140.237 588.945 140.365 588.987 L 140.365 590.172 C 140.248 590.129 140.12 590.099 139.981 590.083 C 139.843 590.068 139.715 590.06 139.597 590.06 C 139.267 590.06 139.011 590.124 138.829 590.251 C 138.648 590.38 138.557 590.625 138.557 590.987 L 138.557 592.14 L 140.157 592.14 L 140.157 593.339 L 138.557 593.339 L 138.557 600.412 L 137.197 600.412 L 137.197 593.339 L 135.805 593.339" fill="rgb(23,111,193)"/><path d=" M 142.565 597.62 C 142.697 598.009 142.883 598.334 143.117 598.596 C 143.352 598.857 143.627 599.057 143.94 599.196 C 144.255 599.334 144.589 599.404 144.94 599.404 C 145.293 599.404 145.627 599.334 145.94 599.196 C 146.255 599.057 146.529 598.857 146.765 598.596 C 146.999 598.334 147.184 598.009 147.317 597.62 C 147.451 597.23 147.517 596.785 147.517 596.284 C 147.517 595.781 147.451 595.337 147.317 594.948 C 147.184 594.557 146.999 594.23 146.765 593.964 C 146.529 593.697 146.255 593.495 145.94 593.356 C 145.627 593.216 145.293 593.147 144.94 593.147 C 144.589 593.147 144.255 593.216 143.94 593.356 C 143.627 593.495 143.352 593.697 143.117 593.964 C 142.883 594.23 142.697 594.557 142.565 594.948 C 142.432 595.337 142.365 595.781 142.365 596.284 C 142.365 596.785 142.432 597.23 142.565 597.62 Z  M 141.181 594.58 C 141.352 594.052 141.607 593.593 141.949 593.203 C 142.291 592.815 142.712 592.508 143.213 592.284 C 143.715 592.06 144.291 591.948 144.94 591.948 C 145.603 591.948 146.181 592.06 146.677 592.284 C 147.173 592.508 147.591 592.815 147.933 593.203 C 148.273 593.593 148.529 594.052 148.701 594.58 C 148.872 595.106 148.957 595.676 148.957 596.284 C 148.957 596.891 148.872 597.457 148.701 597.979 C 148.529 598.503 148.273 598.959 147.933 599.348 C 147.591 599.737 147.173 600.041 146.677 600.26 C 146.181 600.477 145.603 600.587 144.94 600.587 C 144.291 600.587 143.715 600.477 143.213 600.26 C 142.712 600.041 142.291 599.737 141.949 599.348 C 141.607 598.959 141.352 598.503 141.181 597.979 C 141.011 597.457 140.925 596.891 140.925 596.284 C 140.925 595.676 141.011 595.106 141.181 594.58 Z " fill="rgb(23,111,193)"/><path d=" M 151.789 592.14 L 151.789 593.883 L 151.821 593.883 C 152.152 593.211 152.557 592.716 153.037 592.396 C 153.517 592.076 154.125 591.927 154.861 591.948 L 154.861 593.388 C 154.317 593.388 153.853 593.463 153.469 593.612 C 153.085 593.76 152.775 593.979 152.541 594.268 C 152.307 594.555 152.135 594.905 152.029 595.315 C 151.923 595.727 151.869 596.197 151.869 596.732 L 151.869 600.412 L 150.509 600.412 L 150.509 592.14 L 151.789 592.14" fill="rgb(23,111,193)"/><path d=" M 163.644 600.412 L 163.644 592.284 L 160.7 592.284 L 160.7 591.196 C 161.084 591.196 161.457 591.167 161.82 591.106 C 162.183 591.049 162.511 590.94 162.804 590.779 C 163.097 590.62 163.345 590.401 163.549 590.124 C 163.751 589.847 163.889 589.495 163.965 589.068 L 165.004 589.068 L 165.004 600.412 L 163.644 600.412" fill="rgb(23,111,193)"/><path d=" M 171.772 594.516 C 171.485 594.648 171.24 594.83 171.037 595.06 C 170.835 595.289 170.683 595.561 170.581 595.875 C 170.48 596.191 170.429 596.524 170.429 596.875 C 170.429 597.227 170.483 597.557 170.589 597.867 C 170.695 598.177 170.848 598.442 171.045 598.667 C 171.243 598.891 171.488 599.071 171.781 599.203 C 172.075 599.337 172.408 599.404 172.781 599.404 C 173.155 599.404 173.483 599.337 173.765 599.203 C 174.048 599.071 174.285 598.885 174.477 598.651 C 174.669 598.416 174.816 598.147 174.917 597.844 C 175.019 597.539 175.069 597.222 175.069 596.891 C 175.069 596.539 175.024 596.205 174.933 595.891 C 174.843 595.577 174.701 595.305 174.509 595.076 C 174.317 594.847 174.077 594.661 173.789 594.524 C 173.501 594.385 173.165 594.315 172.781 594.315 C 172.397 594.315 172.061 594.383 171.772 594.516 Z  M 174.237 590.732 C 173.907 590.422 173.469 590.268 172.925 590.268 C 172.349 590.268 171.884 590.409 171.533 590.692 C 171.181 590.973 170.907 591.33 170.709 591.763 C 170.512 592.196 170.376 592.661 170.3 593.164 C 170.227 593.664 170.184 594.135 170.173 594.572 L 170.205 594.604 C 170.525 594.081 170.923 593.703 171.397 593.468 C 171.872 593.234 172.419 593.115 173.037 593.115 C 173.581 593.115 174.069 593.208 174.501 593.396 C 174.933 593.583 175.296 593.841 175.589 594.172 C 175.883 594.503 176.109 594.891 176.269 595.339 C 176.429 595.788 176.509 596.273 176.509 596.796 C 176.509 597.211 176.445 597.643 176.317 598.091 C 176.189 598.539 175.979 598.948 175.685 599.315 C 175.391 599.684 175.003 599.987 174.517 600.227 C 174.032 600.468 173.432 600.587 172.716 600.587 C 171.875 600.587 171.197 600.416 170.685 600.076 C 170.173 599.735 169.779 599.297 169.501 598.763 C 169.223 598.23 169.04 597.643 168.949 597.003 C 168.857 596.364 168.813 595.745 168.813 595.147 C 168.813 594.369 168.88 593.615 169.013 592.883 C 169.147 592.153 169.373 591.505 169.693 590.94 C 170.013 590.375 170.439 589.922 170.973 589.58 C 171.507 589.239 172.179 589.068 172.989 589.068 C 173.928 589.068 174.675 589.315 175.229 589.811 C 175.784 590.306 176.104 591.025 176.189 591.964 L 174.828 591.964 C 174.765 591.451 174.568 591.041 174.237 590.732" fill="rgb(23,111,193)"/><path d=" M 184.421 595.076 C 184.32 594.708 184.164 594.38 183.957 594.091 C 183.748 593.803 183.483 593.575 183.157 593.404 C 182.831 593.234 182.449 593.147 182.013 593.147 C 181.553 593.147 181.164 593.239 180.845 593.42 C 180.524 593.601 180.264 593.839 180.061 594.132 C 179.857 594.424 179.712 594.757 179.621 595.132 C 179.529 595.505 179.485 595.883 179.485 596.268 C 179.485 596.673 179.533 597.065 179.629 597.442 C 179.724 597.823 179.877 598.156 180.084 598.442 C 180.293 598.732 180.561 598.964 180.893 599.14 C 181.223 599.315 181.624 599.404 182.093 599.404 C 182.561 599.404 182.955 599.312 183.269 599.132 C 183.584 598.951 183.836 598.711 184.028 598.412 C 184.22 598.113 184.36 597.771 184.444 597.388 C 184.529 597.003 184.573 596.609 184.573 596.203 C 184.573 595.82 184.523 595.442 184.421 595.076 L 184.421 595.076 Z  M 179.533 592.14 L 179.533 593.26 L 179.565 593.26 C 179.789 592.801 180.14 592.468 180.621 592.26 C 181.101 592.052 181.629 591.948 182.205 591.948 C 182.845 591.948 183.403 592.065 183.877 592.3 C 184.352 592.534 184.745 592.852 185.061 593.251 C 185.376 593.651 185.612 594.113 185.772 594.636 C 185.933 595.159 186.013 595.713 186.013 596.3 C 186.013 596.885 185.936 597.44 185.78 597.964 C 185.627 598.487 185.391 598.942 185.077 599.33 C 184.763 599.722 184.367 600.027 183.893 600.251 C 183.417 600.475 182.865 600.587 182.237 600.587 C 182.033 600.587 181.807 600.565 181.556 600.524 C 181.305 600.48 181.057 600.412 180.813 600.315 C 180.568 600.218 180.335 600.088 180.117 599.923 C 179.899 599.757 179.715 599.552 179.565 599.306 L 179.533 599.306 L 179.533 603.563 L 178.173 603.563 L 178.173 592.14 L 179.533 592.14 Z " fill="rgb(23,111,193)"/><path d=" M 186.956 592.14 L 188.7 592.14 L 190.684 595.035 L 192.748 592.14 L 194.381 592.14 L 191.532 595.948 L 194.732 600.412 L 192.988 600.412 L 190.684 596.987 L 188.381 600.412 L 186.732 600.412 L 189.836 596.06 L 186.956 592.14" fill="rgb(23,111,193)"/><path d=" M 200.3 595.323 L 200.3 596.604 L 195.676 596.604 L 195.676 595.323 L 200.3 595.323 Z " fill="rgb(23,111,193)"/><path d=" M 205.436 600.412 L 205.436 592.284 L 202.492 592.284 L 202.492 591.196 C 202.876 591.196 203.249 591.167 203.612 591.106 C 203.975 591.049 204.303 590.94 204.596 590.779 C 204.889 590.62 205.137 590.401 205.34 590.124 C 205.543 589.847 205.681 589.495 205.756 589.068 L 206.796 589.068 L 206.796 600.412 L 205.436 600.412" fill="rgb(23,111,193)"/><path d=" M 210.876 591.484 C 211.025 590.992 211.257 590.569 211.572 590.211 C 211.887 589.855 212.279 589.575 212.748 589.372 C 213.217 589.169 213.751 589.068 214.348 589.068 C 214.839 589.068 215.3 589.14 215.732 589.284 C 216.164 589.427 216.54 589.636 216.86 589.908 C 217.18 590.18 217.433 590.518 217.62 590.923 C 217.807 591.328 217.9 591.799 217.9 592.33 C 217.9 592.834 217.823 593.276 217.668 593.659 C 217.513 594.044 217.308 594.388 217.052 594.692 C 216.796 594.995 216.503 595.271 216.172 595.516 C 215.841 595.76 215.5 595.995 215.148 596.218 C 214.796 596.432 214.444 596.643 214.092 596.852 C 213.74 597.06 213.417 597.281 213.124 597.516 C 212.831 597.749 212.58 598.003 212.372 598.276 C 212.164 598.547 212.028 598.859 211.964 599.211 L 217.788 599.211 L 217.788 600.412 L 210.38 600.412 C 210.433 599.74 210.553 599.167 210.74 598.692 C 210.927 598.216 211.164 597.803 211.452 597.451 C 211.74 597.099 212.065 596.791 212.428 596.524 C 212.791 596.257 213.169 596.006 213.564 595.771 C 214.044 595.473 214.465 595.197 214.828 594.948 C 215.191 594.697 215.492 594.442 215.732 594.188 C 215.972 593.932 216.153 593.653 216.276 593.356 C 216.399 593.057 216.46 592.711 216.46 592.315 C 216.46 592.006 216.401 591.727 216.284 591.475 C 216.167 591.225 216.009 591.009 215.812 590.828 C 215.615 590.645 215.383 590.508 215.116 590.412 C 214.849 590.315 214.567 590.268 214.268 590.268 C 213.873 590.268 213.535 590.351 213.252 590.516 C 212.969 590.681 212.737 590.897 212.556 591.164 C 212.375 591.429 212.244 591.732 212.164 592.068 C 212.084 592.404 212.049 592.742 212.06 593.083 L 210.7 593.083 C 210.668 592.508 210.727 591.973 210.876 591.484" fill="rgb(23,111,193)"/><path d=" M 221.044 596.26 C 221.071 596.788 221.157 597.284 221.3 597.748 C 221.444 598.211 221.676 598.604 221.996 598.923 C 222.316 599.244 222.764 599.404 223.34 599.404 C 223.917 599.404 224.364 599.244 224.685 598.923 C 225.004 598.604 225.236 598.211 225.381 597.748 C 225.524 597.284 225.609 596.788 225.636 596.26 C 225.663 595.732 225.676 595.253 225.676 594.828 C 225.676 594.549 225.673 594.244 225.668 593.908 C 225.663 593.572 225.636 593.236 225.588 592.9 C 225.54 592.563 225.472 592.236 225.381 591.916 C 225.289 591.596 225.157 591.315 224.98 591.076 C 224.805 590.836 224.584 590.64 224.316 590.492 C 224.049 590.342 223.724 590.268 223.34 590.268 C 222.956 590.268 222.631 590.342 222.364 590.492 C 222.097 590.64 221.876 590.836 221.7 591.076 C 221.524 591.315 221.391 591.596 221.3 591.916 C 221.209 592.236 221.14 592.563 221.092 592.9 C 221.044 593.236 221.017 593.572 221.012 593.908 C 221.007 594.244 221.004 594.549 221.004 594.828 C 221.004 595.253 221.017 595.732 221.044 596.26 L 221.044 596.26 Z  M 219.596 593.547 C 219.617 593.099 219.671 592.661 219.756 592.236 C 219.841 591.81 219.965 591.404 220.124 591.02 C 220.284 590.636 220.503 590.3 220.78 590.012 C 221.057 589.724 221.407 589.495 221.828 589.323 C 222.251 589.153 222.753 589.068 223.34 589.068 C 223.927 589.068 224.431 589.153 224.853 589.323 C 225.273 589.495 225.623 589.724 225.9 590.012 C 226.177 590.3 226.396 590.636 226.556 591.02 C 226.716 591.404 226.839 591.81 226.924 592.236 C 227.009 592.661 227.063 593.099 227.084 593.547 C 227.105 593.995 227.116 594.427 227.116 594.844 C 227.116 595.26 227.105 595.692 227.084 596.14 C 227.063 596.587 227.009 597.025 226.924 597.451 C 226.839 597.877 226.716 598.281 226.556 598.659 C 226.396 599.039 226.177 599.372 225.9 599.659 C 225.623 599.948 225.276 600.175 224.86 600.339 C 224.444 600.505 223.939 600.587 223.34 600.587 C 222.753 600.587 222.251 600.505 221.828 600.339 C 221.407 600.175 221.057 599.948 220.78 599.659 C 220.503 599.372 220.284 599.039 220.124 598.659 C 219.965 598.281 219.841 597.877 219.756 597.451 C 219.671 597.025 219.617 596.587 219.596 596.14 C 219.575 595.692 219.564 595.26 219.564 594.844 C 219.564 594.427 219.575 593.995 219.596 593.547" fill="rgb(23,111,193)"/><path d=" M 235.108 595.076 C 235.007 594.708 234.852 594.38 234.644 594.091 C 234.436 593.803 234.169 593.575 233.844 593.404 C 233.519 593.234 233.137 593.147 232.7 593.147 C 232.241 593.147 231.852 593.239 231.532 593.42 C 231.212 593.601 230.951 593.839 230.748 594.132 C 230.545 594.424 230.399 594.757 230.308 595.132 C 230.217 595.505 230.172 595.883 230.172 596.268 C 230.172 596.673 230.22 597.065 230.316 597.442 C 230.412 597.823 230.564 598.156 230.772 598.442 C 230.98 598.732 231.249 598.964 231.581 599.14 C 231.911 599.315 232.311 599.404 232.78 599.404 C 233.249 599.404 233.641 599.312 233.956 599.132 C 234.271 598.951 234.524 598.711 234.716 598.412 C 234.908 598.113 235.047 597.771 235.132 597.388 C 235.217 597.003 235.26 596.609 235.26 596.203 C 235.26 595.82 235.209 595.442 235.108 595.076 L 235.108 595.076 Z  M 230.22 592.14 L 230.22 593.26 L 230.252 593.26 C 230.476 592.801 230.828 592.468 231.308 592.26 C 231.788 592.052 232.316 591.948 232.892 591.948 C 233.532 591.948 234.089 592.065 234.564 592.3 C 235.039 592.534 235.433 592.852 235.748 593.251 C 236.063 593.651 236.3 594.113 236.46 594.636 C 236.62 595.159 236.7 595.713 236.7 596.3 C 236.7 596.885 236.623 597.44 236.468 597.964 C 236.313 598.487 236.079 598.942 235.764 599.33 C 235.449 599.722 235.055 600.027 234.581 600.251 C 234.105 600.475 233.553 600.587 232.924 600.587 C 232.721 600.587 232.495 600.565 232.244 600.524 C 231.993 600.48 231.745 600.412 231.5 600.315 C 231.255 600.218 231.023 600.088 230.805 599.923 C 230.585 599.757 230.401 599.552 230.252 599.306 L 230.22 599.306 L 230.22 603.563 L 228.86 603.563 L 228.86 592.14 L 230.22 592.14" fill="rgb(23,111,193)"/><path d=" M 237.644 592.14 L 239.388 592.14 L 241.372 595.035 L 243.436 592.14 L 245.068 592.14 L 242.22 595.948 L 245.42 600.412 L 243.676 600.412 L 241.372 596.987 L 239.068 600.412 L 237.42 600.412 L 240.524 596.06 L 237.644 592.14" fill="rgb(23,111,193)"/><path d=" M 447.511 569.787 L 447.511 579.929 L 453.559 579.929 L 453.559 581.211 L 445.992 581.211 L 445.992 569.787 L 447.511 569.787 Z " fill="rgb(23,111,193)"/><path d=" M 459.111 577.218 C 458.832 577.277 458.544 577.325 458.239 577.363 C 457.935 577.4 457.627 577.442 457.319 577.489 C 457.009 577.539 456.731 577.616 456.487 577.722 C 456.241 577.828 456.041 577.981 455.887 578.179 C 455.731 578.375 455.656 578.645 455.656 578.987 C 455.656 579.211 455.7 579.4 455.791 579.555 C 455.881 579.708 455.999 579.834 456.143 579.929 C 456.285 580.025 456.457 580.096 456.656 580.139 C 456.852 580.181 457.051 580.203 457.255 580.203 C 457.703 580.203 458.087 580.14 458.407 580.018 C 458.725 579.896 458.988 579.741 459.191 579.555 C 459.392 579.367 459.544 579.164 459.639 578.945 C 459.733 578.728 459.783 578.523 459.783 578.33 L 459.783 576.937 C 459.611 577.067 459.387 577.159 459.111 577.218 L 459.111 577.218 Z  M 461.015 581.385 C 460.663 581.385 460.383 581.288 460.173 581.091 C 459.967 580.893 459.863 580.571 459.863 580.123 C 459.489 580.571 459.053 580.893 458.559 581.091 C 458.061 581.288 457.527 581.385 456.949 581.385 C 456.577 581.385 456.225 581.347 455.895 581.265 C 455.564 581.187 455.272 581.052 455.023 580.867 C 454.772 580.68 454.575 580.44 454.432 580.145 C 454.285 579.853 454.216 579.497 454.216 579.083 C 454.216 578.613 454.295 578.229 454.455 577.929 C 454.613 577.632 454.825 577.389 455.087 577.203 C 455.348 577.016 455.647 576.875 455.983 576.779 C 456.319 576.683 456.663 576.601 457.015 576.539 C 457.387 576.464 457.743 576.408 458.079 576.369 C 458.415 576.334 458.711 576.28 458.967 576.211 C 459.223 576.14 459.425 576.039 459.575 575.906 C 459.723 575.773 459.799 575.579 459.799 575.323 C 459.799 575.024 459.743 574.784 459.631 574.601 C 459.519 574.422 459.375 574.283 459.199 574.187 C 459.023 574.091 458.825 574.025 458.605 573.995 C 458.387 573.963 458.171 573.945 457.959 573.945 C 457.383 573.945 456.903 574.056 456.519 574.273 C 456.135 574.492 455.927 574.906 455.895 575.515 L 454.535 575.515 C 454.556 575.003 454.663 574.571 454.855 574.218 C 455.047 573.867 455.303 573.581 455.621 573.363 C 455.941 573.143 456.311 572.987 456.725 572.891 C 457.143 572.795 457.58 572.747 458.039 572.747 C 458.412 572.747 458.783 572.773 459.151 572.825 C 459.519 572.88 459.852 572.989 460.151 573.153 C 460.449 573.32 460.689 573.552 460.871 573.851 C 461.051 574.148 461.143 574.539 461.143 575.018 L 461.143 579.273 C 461.143 579.593 461.161 579.828 461.199 579.979 C 461.236 580.128 461.361 580.203 461.575 580.203 C 461.692 580.203 461.829 580.176 461.992 580.123 L 461.992 581.179 C 461.756 581.317 461.432 581.385 461.015 581.385" fill="rgb(23,111,193)"/><path d=" M 464.487 572.937 L 464.487 574.683 L 464.517 574.683 C 464.848 574.011 465.255 573.515 465.733 573.193 C 466.215 572.875 466.823 572.725 467.559 572.747 L 467.559 574.187 C 467.015 574.187 466.551 574.26 466.165 574.411 C 465.783 574.56 465.473 574.779 465.239 575.067 C 465.004 575.355 464.832 575.703 464.725 576.115 C 464.619 576.525 464.567 576.997 464.567 577.53 L 464.567 581.211 L 463.207 581.211 L 463.207 572.937 L 464.487 572.937" fill="rgb(23,111,193)"/><path d=" M 472.605 579.825 C 472.921 579.64 473.173 579.395 473.367 579.091 C 473.559 578.787 473.7 578.442 473.791 578.059 C 473.881 577.675 473.927 577.291 473.927 576.906 C 473.927 576.544 473.884 576.187 473.799 575.834 C 473.713 575.481 473.577 575.164 473.389 574.883 C 473.204 574.599 472.96 574.372 472.663 574.203 C 472.364 574.03 472.001 573.945 471.575 573.945 C 471.137 573.945 470.764 574.029 470.455 574.193 C 470.145 574.359 469.892 574.581 469.695 574.859 C 469.496 575.136 469.353 575.456 469.263 575.817 C 469.171 576.181 469.127 576.56 469.127 576.954 C 469.127 577.328 469.163 577.7 469.239 578.075 C 469.313 578.448 469.441 578.787 469.621 579.091 C 469.804 579.395 470.044 579.64 470.343 579.825 C 470.641 580.013 471.015 580.106 471.463 580.106 C 471.911 580.106 472.291 580.013 472.605 579.825 L 472.605 579.825 Z  M 474.343 583.547 C 473.723 584.218 472.753 584.555 471.432 584.555 C 471.047 584.555 470.656 584.512 470.255 584.427 C 469.855 584.341 469.492 584.203 469.165 584.011 C 468.84 583.817 468.572 583.568 468.359 583.257 C 468.145 582.948 468.028 582.571 468.007 582.123 L 469.367 582.123 C 469.377 582.367 469.455 582.576 469.599 582.747 C 469.743 582.916 469.919 583.055 470.127 583.161 C 470.335 583.268 470.561 583.347 470.807 583.395 C 471.051 583.442 471.285 583.467 471.509 583.467 C 471.959 583.467 472.337 583.388 472.647 583.235 C 472.955 583.08 473.213 582.867 473.415 582.593 C 473.616 582.323 473.764 581.995 473.855 581.609 C 473.944 581.227 473.992 580.805 473.992 580.347 L 473.992 579.803 L 473.959 579.803 C 473.723 580.315 473.369 580.691 472.895 580.929 C 472.42 581.171 471.916 581.291 471.383 581.291 C 470.764 581.291 470.225 581.179 469.768 580.954 C 469.308 580.73 468.924 580.429 468.613 580.049 C 468.305 579.672 468.072 579.229 467.919 578.722 C 467.764 578.216 467.687 577.68 467.687 577.115 C 467.687 576.624 467.751 576.12 467.88 575.601 C 468.007 575.087 468.22 574.616 468.519 574.193 C 468.817 573.773 469.213 573.427 469.703 573.153 C 470.193 572.883 470.796 572.747 471.509 572.747 C 472.033 572.747 472.512 572.863 472.949 573.091 C 473.387 573.32 473.728 573.664 473.975 574.123 L 473.992 574.123 L 473.992 572.937 L 475.271 572.937 L 475.271 580.506 C 475.271 581.86 474.96 582.875 474.343 583.547" fill="rgb(23,111,193)"/><path d=" M 482.845 575.369 C 482.723 575.083 482.559 574.834 482.351 574.627 C 482.143 574.417 481.896 574.253 481.613 574.13 C 481.331 574.008 481.02 573.945 480.679 573.945 C 480.327 573.945 480.008 574.008 479.725 574.13 C 479.443 574.253 479.2 574.422 478.997 574.635 C 478.796 574.848 478.635 575.096 478.517 575.377 C 478.4 575.661 478.331 575.963 478.311 576.283 L 483.061 576.283 C 483.041 575.963 482.968 575.659 482.845 575.369 L 482.845 575.369 Z  M 483.173 580.683 C 482.556 581.151 481.776 581.385 480.837 581.385 C 480.176 581.385 479.604 581.279 479.119 581.067 C 478.632 580.853 478.224 580.555 477.895 580.171 C 477.564 579.787 477.316 579.328 477.151 578.795 C 476.985 578.26 476.891 577.68 476.871 577.049 C 476.871 576.422 476.965 575.845 477.159 575.323 C 477.351 574.8 477.619 574.347 477.965 573.963 C 478.312 573.579 478.723 573.28 479.199 573.067 C 479.672 572.853 480.192 572.747 480.759 572.747 C 481.495 572.747 482.105 572.899 482.591 573.203 C 483.075 573.506 483.465 573.893 483.759 574.363 C 484.051 574.832 484.255 575.344 484.367 575.899 C 484.479 576.453 484.523 576.981 484.501 577.481 L 478.311 577.481 C 478.299 577.845 478.343 578.189 478.439 578.515 C 478.535 578.84 478.689 579.128 478.903 579.377 C 479.115 579.629 479.387 579.828 479.717 579.979 C 480.049 580.128 480.439 580.203 480.885 580.203 C 481.463 580.203 481.935 580.069 482.301 579.803 C 482.671 579.536 482.913 579.13 483.031 578.587 L 484.375 578.587 C 484.192 579.515 483.793 580.213 483.173 580.683" fill="rgb(23,111,193)"/><path d=" M 487.143 572.937 L 487.143 574.683 L 487.173 574.683 C 487.504 574.011 487.911 573.515 488.389 573.193 C 488.869 572.875 489.479 572.725 490.215 572.747 L 490.215 574.187 C 489.669 574.187 489.207 574.26 488.823 574.411 C 488.439 574.56 488.128 574.779 487.893 575.067 C 487.66 575.355 487.489 575.703 487.383 576.115 C 487.275 576.525 487.223 576.997 487.223 577.53 L 487.223 581.211 L 485.861 581.211 L 485.861 572.937 L 487.143 572.937" fill="rgb(23,111,193)"/><path d=" M 424.343 593.339 L 424.343 592.139 L 425.735 592.139 L 425.735 590.906 C 425.735 590.235 425.929 589.724 426.32 589.377 C 426.708 589.03 427.275 588.859 428.023 588.859 C 428.151 588.859 428.297 588.869 428.463 588.891 C 428.628 588.912 428.775 588.942 428.903 588.987 L 428.903 590.169 C 428.785 590.128 428.659 590.099 428.519 590.083 C 428.38 590.067 428.252 590.057 428.135 590.057 C 427.804 590.057 427.549 590.123 427.367 590.249 C 427.185 590.377 427.096 590.624 427.096 590.987 L 427.096 592.139 L 428.695 592.139 L 428.695 593.339 L 427.096 593.339 L 427.096 600.411 L 425.735 600.411 L 425.735 593.339 L 424.343 593.339" fill="rgb(23,111,193)"/><path d=" M 431.104 597.617 C 431.236 598.008 431.42 598.334 431.656 598.593 C 431.889 598.856 432.163 599.055 432.479 599.193 C 432.793 599.334 433.127 599.403 433.479 599.403 C 433.829 599.403 434.163 599.334 434.479 599.193 C 434.793 599.055 435.067 598.856 435.303 598.593 C 435.537 598.334 435.72 598.008 435.855 597.617 C 435.989 597.229 436.053 596.784 436.053 596.281 C 436.053 595.781 435.989 595.336 435.855 594.945 C 435.72 594.557 435.537 594.229 435.303 593.963 C 435.067 593.696 434.793 593.492 434.479 593.355 C 434.163 593.216 433.829 593.145 433.479 593.145 C 433.127 593.145 432.793 593.216 432.479 593.355 C 432.163 593.492 431.889 593.696 431.656 593.963 C 431.42 594.229 431.236 594.557 431.104 594.945 C 430.969 595.336 430.903 595.781 430.903 596.281 C 430.903 596.784 430.969 597.229 431.104 597.617 Z  M 429.717 594.579 C 429.889 594.049 430.145 593.591 430.487 593.203 C 430.828 592.812 431.249 592.505 431.751 592.281 C 432.252 592.057 432.828 591.945 433.479 591.945 C 434.14 591.945 434.717 592.057 435.216 592.281 C 435.711 592.505 436.129 592.812 436.471 593.203 C 436.812 593.591 437.067 594.049 437.239 594.579 C 437.409 595.106 437.495 595.675 437.495 596.281 C 437.495 596.891 437.409 597.456 437.239 597.977 C 437.067 598.5 436.812 598.957 436.471 599.347 C 436.129 599.736 435.711 600.039 435.216 600.257 C 434.717 600.476 434.14 600.587 433.479 600.587 C 432.828 600.587 432.252 600.476 431.751 600.257 C 431.249 600.039 430.828 599.736 430.487 599.347 C 430.145 598.957 429.889 598.5 429.717 597.977 C 429.549 597.456 429.463 596.891 429.463 596.281 C 429.463 595.675 429.549 595.106 429.717 594.579 Z " fill="rgb(23,111,193)"/><path d=" M 440.328 592.139 L 440.328 593.883 L 440.359 593.883 C 440.689 593.211 441.096 592.713 441.575 592.393 C 442.053 592.075 442.663 591.924 443.399 591.945 L 443.399 593.385 C 442.855 593.385 442.391 593.461 442.007 593.609 C 441.623 593.76 441.313 593.977 441.079 594.265 C 440.844 594.555 440.673 594.904 440.567 595.315 C 440.46 595.724 440.407 596.197 440.407 596.73 L 440.407 600.411 L 439.047 600.411 L 439.047 592.139 L 440.328 592.139 Z " fill="rgb(23,111,193)"/><path d=" M 452.181 600.411 L 452.181 592.281 L 449.239 592.281 L 449.239 591.193 C 449.621 591.193 449.995 591.164 450.359 591.106 C 450.72 591.047 451.049 590.937 451.343 590.779 C 451.635 590.617 451.883 590.4 452.087 590.123 C 452.288 589.845 452.428 589.492 452.501 589.067 L 453.543 589.067 L 453.543 600.411 L 452.181 600.411 Z " fill="rgb(23,111,193)"/><path d=" M 457.623 591.481 C 457.772 590.992 458.004 590.568 458.32 590.211 C 458.633 589.853 459.025 589.573 459.495 589.369 C 459.964 589.168 460.496 589.067 461.096 589.067 C 461.585 589.067 462.047 589.139 462.479 589.281 C 462.911 589.427 463.287 589.635 463.605 589.906 C 463.927 590.179 464.18 590.517 464.367 590.922 C 464.553 591.328 464.648 591.797 464.648 592.33 C 464.648 592.83 464.569 593.273 464.415 593.659 C 464.26 594.041 464.053 594.385 463.799 594.691 C 463.544 594.995 463.249 595.268 462.919 595.515 C 462.588 595.76 462.247 595.995 461.895 596.218 C 461.544 596.432 461.191 596.641 460.837 596.851 C 460.487 597.057 460.163 597.28 459.872 597.515 C 459.577 597.749 459.328 598.003 459.119 598.273 C 458.911 598.547 458.775 598.859 458.711 599.211 L 464.536 599.211 L 464.536 600.411 L 457.127 600.411 C 457.18 599.739 457.3 599.164 457.487 598.691 C 457.673 598.216 457.911 597.803 458.199 597.451 C 458.487 597.099 458.812 596.789 459.175 596.523 C 459.537 596.255 459.916 596.005 460.311 595.771 C 460.791 595.472 461.213 595.197 461.575 594.945 C 461.937 594.696 462.239 594.442 462.479 594.187 C 462.717 593.929 462.9 593.653 463.023 593.355 C 463.145 593.055 463.208 592.708 463.208 592.315 C 463.208 592.005 463.148 591.724 463.031 591.473 C 462.913 591.224 462.756 591.008 462.559 590.825 C 462.361 590.645 462.129 590.505 461.863 590.411 C 461.596 590.315 461.313 590.265 461.015 590.265 C 460.619 590.265 460.28 590.349 459.999 590.515 C 459.716 590.68 459.484 590.896 459.303 591.161 C 459.121 591.429 458.992 591.73 458.911 592.067 C 458.829 592.403 458.796 592.741 458.807 593.083 L 457.447 593.083 C 457.415 592.505 457.473 591.973 457.623 591.481" fill="rgb(23,111,193)"/><path d=" M 467.791 596.257 C 467.817 596.787 467.903 597.281 468.047 597.747 C 468.191 598.211 468.423 598.601 468.743 598.922 C 469.061 599.242 469.509 599.403 470.087 599.403 C 470.663 599.403 471.111 599.242 471.432 598.922 C 471.751 598.601 471.983 598.211 472.127 597.747 C 472.271 597.281 472.356 596.787 472.383 596.257 C 472.408 595.73 472.423 595.253 472.423 594.825 C 472.423 594.549 472.42 594.242 472.415 593.906 C 472.408 593.571 472.383 593.235 472.335 592.899 C 472.285 592.563 472.217 592.235 472.127 591.915 C 472.036 591.593 471.903 591.315 471.725 591.075 C 471.551 590.834 471.329 590.64 471.061 590.489 C 470.796 590.341 470.471 590.265 470.087 590.265 C 469.703 590.265 469.377 590.341 469.111 590.489 C 468.843 590.64 468.621 590.834 468.447 591.075 C 468.271 591.315 468.137 591.593 468.047 591.915 C 467.955 592.235 467.887 592.563 467.837 592.899 C 467.791 593.235 467.764 593.571 467.759 593.906 C 467.753 594.242 467.751 594.549 467.751 594.825 C 467.751 595.253 467.764 595.73 467.791 596.257 Z  M 466.343 593.547 C 466.364 593.099 466.417 592.661 466.501 592.235 C 466.588 591.806 466.711 591.403 466.871 591.018 C 467.031 590.635 467.249 590.299 467.527 590.011 C 467.804 589.722 468.153 589.492 468.575 589.323 C 468.996 589.151 469.499 589.067 470.087 589.067 C 470.673 589.067 471.176 589.151 471.599 589.323 C 472.02 589.492 472.369 589.722 472.647 590.011 C 472.924 590.299 473.143 590.635 473.303 591.018 C 473.463 591.403 473.585 591.806 473.671 592.235 C 473.756 592.661 473.809 593.099 473.829 593.547 C 473.852 593.995 473.863 594.427 473.863 594.842 C 473.863 595.257 473.852 595.691 473.829 596.139 C 473.809 596.587 473.756 597.024 473.671 597.451 C 473.585 597.877 473.463 598.28 473.303 598.659 C 473.143 599.036 472.924 599.369 472.647 599.659 C 472.369 599.945 472.023 600.173 471.605 600.339 C 471.191 600.503 470.684 600.587 470.087 600.587 C 469.499 600.587 468.996 600.503 468.575 600.339 C 468.153 600.173 467.804 599.945 467.527 599.659 C 467.249 599.369 467.031 599.036 466.871 598.659 C 466.711 598.28 466.588 597.877 466.501 597.451 C 466.417 597.024 466.364 596.587 466.343 596.139 C 466.321 595.691 466.311 595.257 466.311 594.842 C 466.311 594.427 466.321 593.995 466.343 593.547" fill="rgb(23,111,193)"/><path d=" M 481.855 595.075 C 481.753 594.705 481.599 594.377 481.389 594.089 C 481.181 593.803 480.916 593.573 480.591 593.403 C 480.265 593.232 479.883 593.145 479.447 593.145 C 478.988 593.145 478.599 593.237 478.277 593.417 C 477.957 593.599 477.697 593.836 477.495 594.13 C 477.291 594.424 477.145 594.757 477.053 595.13 C 476.963 595.504 476.919 595.883 476.919 596.265 C 476.919 596.672 476.967 597.064 477.061 597.442 C 477.159 597.82 477.311 598.153 477.517 598.442 C 477.725 598.73 477.995 598.963 478.328 599.139 C 478.657 599.315 479.056 599.403 479.527 599.403 C 479.995 599.403 480.387 599.312 480.703 599.13 C 481.017 598.949 481.271 598.708 481.463 598.411 C 481.655 598.112 481.793 597.771 481.879 597.385 C 481.963 597.003 482.007 596.606 482.007 596.203 C 482.007 595.817 481.955 595.442 481.855 595.075 L 481.855 595.075 Z  M 476.967 592.139 L 476.967 593.257 L 476.999 593.257 C 477.223 592.8 477.575 592.467 478.053 592.257 C 478.535 592.049 479.061 591.945 479.639 591.945 C 480.277 591.945 480.835 592.064 481.311 592.299 C 481.785 592.534 482.179 592.851 482.495 593.249 C 482.809 593.651 483.047 594.112 483.207 594.635 C 483.367 595.156 483.447 595.711 483.447 596.299 C 483.447 596.885 483.369 597.44 483.215 597.963 C 483.059 598.484 482.825 598.94 482.509 599.33 C 482.196 599.718 481.801 600.025 481.328 600.249 C 480.851 600.473 480.299 600.587 479.671 600.587 C 479.468 600.587 479.241 600.565 478.991 600.523 C 478.739 600.479 478.492 600.411 478.247 600.315 C 478.001 600.218 477.769 600.088 477.551 599.922 C 477.332 599.757 477.148 599.552 476.999 599.306 L 476.967 599.306 L 476.967 603.563 L 475.605 603.563 L 475.605 592.139 L 476.967 592.139" fill="rgb(23,111,193)"/><path d=" M 484.389 592.139 L 486.135 592.139 L 488.117 595.034 L 490.181 592.139 L 491.815 592.139 L 488.965 595.945 L 492.165 600.411 L 490.421 600.411 L 488.117 596.987 L 485.815 600.411 L 484.165 600.411 L 487.271 596.057 L 484.389 592.139 Z " fill="rgb(23,111,193)"/><path d=" M 505.591 595.817 L 505.591 596.906 L 502.103 596.906 L 502.103 600.411 L 501.015 600.411 L 501.015 596.906 L 497.527 596.906 L 497.527 595.817 L 501.015 595.817 L 501.015 592.315 L 502.103 592.315 L 502.103 595.817 L 505.591 595.817 Z " fill="rgb(23,111,193)"/></g></g></svg>