<?xml version="1.0" encoding="UTF-8" standalone="no"?>
<svg
   xmlns:dc="http://purl.org/dc/elements/1.1/"
   xmlns:cc="http://creativecommons.org/ns#"
   xmlns:rdf="http://www.w3.org/1999/02/22-rdf-syntax-ns#"
   xmlns:svg="http://www.w3.org/2000/svg"
   xmlns="http://www.w3.org/2000/svg"
   viewBox="0 0 421.50668 626.66669"
   height="626.66669"
   width="421.50668"
   xml:space="preserve"
   id="svg2"
   version="1.1"><metadata
     id="metadata8"><rdf:RDF><cc:Work
         rdf:about=""><dc:format>image/svg+xml</dc:format><dc:type
           rdf:resource="http://purl.org/dc/dcmitype/StillImage" /></cc:Work></rdf:RDF></metadata><defs
     id="defs6" /><g
     transform="matrix(1.3333333,0,0,-1.3333333,0,626.66667)"
     id="g10"><g
       transform="scale(0.1)"
       id="g12"><path
         id="path14"
         style="fill:#100f0d;fill-opacity:1;fill-rule:nonzero;stroke:none"
         d="M 0,4700 H 3161.25 V 0 H 0 v 4700" /><path
         id="path16"
         style="fill:#ffffff;fill-opacity:1;fill-rule:nonzero;stroke:none"
         d="m 940.859,3993.64 h 22.871 c 13.145,-0.12 19.168,5.66 19.168,16.11 0,10.45 -6.023,16.11 -19.168,16.11 h -22.871 z m -11.679,42.05 h 38.488 c 17.437,0 26.922,-9.71 26.922,-25.94 0,-16.23 -9.485,-26.06 -26.922,-25.94 h -26.809 v -35.9 H 929.18 v 87.78" /><path
         id="path18"
         style="fill:#ffffff;fill-opacity:1;fill-rule:nonzero;stroke:none"
         d="m 1047.8,3955.66 c 21.4,0 30.37,18.44 30.37,36.14 0,17.71 -8.97,36.15 -30.37,36.15 -21.38,0 -30.35,-18.44 -30.35,-36.15 0,-17.7 8.97,-36.14 30.35,-36.14 z m 0,82.12 c 27.91,0 42.05,-22.13 42.05,-45.98 0,-23.85 -14.14,-45.98 -42.05,-45.98 -27.9,0 -42.03,22.13 -42.03,45.98 0,23.85 14.13,45.98 42.03,45.98" /><path
         id="path20"
         style="fill:#ffffff;fill-opacity:1;fill-rule:nonzero;stroke:none"
         d="m 1185.25,3947.91 h -12.16 l -20.06,73.77 h -0.24 l -20.28,-73.77 h -12.17 l -22.51,87.78 h 11.94 l 17.2,-73.02 h 0.26 l 19.66,73.02 h 12.66 l 19.43,-73.02 h 0.25 l 17.82,73.02 h 11.68 l -23.48,-87.78" /><path
         id="path22"
         style="fill:#ffffff;fill-opacity:1;fill-rule:nonzero;stroke:none"
         d="m 1223.48,4035.69 h 60.6 v -9.83 h -48.92 v -27.91 h 45.61 v -9.84 h -45.61 v -30.36 h 49.29 v -9.84 h -60.97 v 87.78" /><path
         id="path24"
         style="fill:#ffffff;fill-opacity:1;fill-rule:nonzero;stroke:none"
         d="m 1338.29,3995.25 c 10.95,0 20.28,2.82 20.28,15.61 0,8.6 -4.66,15 -15.6,15 h -29.01 v -30.61 z m -36.01,40.44 h 41.3 c 16.48,0 26.67,-8.98 26.67,-22.99 0,-10.57 -4.66,-19.3 -15.24,-22.25 v -0.24 c 10.2,-1.97 12.29,-9.47 13.15,-18.08 0.75,-8.61 0.25,-18.19 5.17,-24.22 h -13.03 c -3.33,3.57 -1.47,13.03 -3.2,21.64 -1.22,8.61 -3.31,15.86 -14.62,15.86 h -28.52 v -37.5 h -11.68 v 87.78" /><path
         id="path26"
         style="fill:#ffffff;fill-opacity:1;fill-rule:nonzero;stroke:none"
         d="m 1391.4,4035.69 h 60.59 v -9.83 h -48.9 v -27.91 h 45.59 v -9.84 h -45.59 v -30.36 h 49.29 v -9.84 h -60.98 v 87.78" /><path
         id="path28"
         style="fill:#ffffff;fill-opacity:1;fill-rule:nonzero;stroke:none"
         d="m 1481.25,3957.75 h 19.43 c 7.98,0 29.52,2.21 29.52,34.54 0,20.9 -7.76,33.57 -29.28,33.57 h -19.67 z m -11.67,77.94 h 30.12 c 27.05,0 42.17,-13.52 42.17,-41.8 0,-29.38 -12.91,-45.98 -42.17,-45.98 h -30.12 v 87.78" /><path
         id="path30"
         style="fill:#ffffff;fill-opacity:1;fill-rule:nonzero;stroke:none"
         d="m 1608.13,3957.75 h 29.24 c 10.09,0 16.49,6.14 16.49,15.73 0,11.44 -9.23,14.63 -19.07,14.63 h -26.66 z m 0,40.2 h 23.34 c 13.28,0 18.69,4.8 18.69,14.01 0,12.17 -8.6,13.9 -18.69,13.9 h -23.34 z m -11.69,37.74 h 31.85 c 7.74,0 17.93,0 23.22,-3.19 5.78,-3.45 10.33,-9.72 10.33,-18.32 0,-9.34 -4.92,-16.36 -13.03,-19.67 v -0.25 c 10.82,-2.21 16.72,-10.32 16.72,-21.15 0,-12.9 -9.22,-25.2 -26.68,-25.2 h -42.41 v 87.78" /><path
         id="path32"
         style="fill:#ffffff;fill-opacity:1;fill-rule:nonzero;stroke:none"
         d="m 1719.98,3983.81 v -35.9 h -11.67 v 35.9 l -33.93,51.88 h 13.9 l 26.3,-41.8 25.69,41.8 h 13.28 l -33.57,-51.88" /><path
         id="path34"
         style="fill:#ffffff;fill-opacity:1;fill-rule:nonzero;stroke:none"
         d="m 1049.21,3638.69 c 5.72,0 11.15,0.51 16.26,1.66 5.18,1.13 9.78,2.93 13.66,5.59 3.88,2.55 7.09,6.05 9.42,10.51 2.35,4.41 3.47,10.13 3.47,17.07 0,13.57 -3.82,23.2 -11.41,29.06 -7.61,5.76 -17.76,8.63 -30.24,8.63 h -63.034 v -72.52 z m -3.2,112.11 c 10.27,0 18.78,2.43 25.51,7.38 6.67,4.87 9.91,12.91 9.91,23.95 0,6.13 -1.08,11.19 -3.24,15.12 -2.23,3.93 -5.19,7.01 -8.93,9.16 -3.71,2.24 -7.9,3.79 -12.77,4.63 -4.77,0.93 -9.78,1.3 -14.91,1.3 h -54.244 v -61.54 z m 7.5,106.39 c 12.59,0 23.96,-1.08 34.35,-3.34 10.33,-2.19 19.15,-5.84 26.6,-10.86 7.34,-5.02 13.08,-11.68 17.19,-20.09 4.01,-8.27 6.03,-18.64 6.03,-30.9 0,-13.25 -3.01,-24.32 -9.03,-33.18 -6.06,-8.84 -14.97,-16.09 -26.87,-21.72 16.21,-4.66 28.21,-12.86 36.17,-24.52 8,-11.75 11.91,-25.8 11.91,-42.28 0,-13.35 -2.56,-24.85 -7.66,-34.52 -5.16,-9.78 -12.18,-17.72 -20.83,-23.85 -8.72,-6.17 -18.74,-10.7 -29.96,-13.65 -11.1,-2.95 -22.62,-4.43 -34.42,-4.43 H 929.348 v 263.34 h 124.162" /><path
         id="path36"
         style="fill:#ffffff;fill-opacity:1;fill-rule:nonzero;stroke:none"
         d="m 1292.7,3739.76 c -6.23,6.88 -16.77,10.61 -29.63,10.61 -8.37,0 -15.3,-1.41 -20.84,-4.28 -5.42,-2.83 -9.87,-6.36 -13.27,-10.5 -3.37,-4.22 -5.68,-8.68 -7.02,-13.44 -1.34,-4.63 -2.15,-8.85 -2.39,-12.56 h 85.22 c -1.25,13.35 -5.82,23.22 -12.07,30.17 z m -60.18,-100.19 c 7.84,-7.66 19.18,-11.51 33.87,-11.51 10.56,0 19.69,2.66 27.35,7.99 7.59,5.32 12.21,11 13.99,16.9 h 46.13 c -7.41,-22.95 -18.66,-39.34 -34.01,-49.2 -15.16,-9.9 -33.66,-14.84 -55.21,-14.84 -15.02,0 -28.54,2.43 -40.68,7.22 -12.12,4.85 -22.26,11.64 -30.79,20.5 -8.31,8.9 -14.76,19.42 -19.36,31.78 -4.55,12.29 -6.85,25.9 -6.85,40.64 0,14.26 2.39,27.58 7.04,39.9 4.76,12.34 11.33,23 19.97,31.95 8.67,8.98 18.94,16.07 30.9,21.26 11.97,5.16 25.16,7.76 39.77,7.76 16.13,0 30.26,-3.1 42.37,-9.43 12.07,-6.23 21.96,-14.69 29.74,-25.28 7.77,-10.55 13.3,-22.63 16.76,-36.19 3.42,-13.51 4.62,-27.65 3.64,-42.44 h -137.6 c 0,-15.08 5.1,-29.35 12.97,-37.01" /><path
         id="path38"
         style="fill:#ffffff;fill-opacity:1;fill-rule:nonzero;stroke:none"
         d="m 1431.54,3857.19 v -99.3 h 1.2 c 6.65,11.06 15.06,19.08 25.39,24.06 10.33,5.02 20.4,7.5 30.21,7.5 13.99,0 25.45,-1.83 34.4,-5.63 8.96,-3.86 16.05,-9.07 21.23,-15.87 5.1,-6.76 8.7,-15.01 10.81,-24.73 2.07,-9.7 3.14,-20.4 3.14,-32.2 v -117.17 h -52.63 v 107.65 c 0,15.72 -2.45,27.52 -7.33,35.24 -4.89,7.72 -13.57,11.6 -26.09,11.6 -14.16,0 -24.4,-4.3 -30.74,-12.75 -6.46,-8.48 -9.59,-22.43 -9.59,-41.82 v -99.92 h -52.61 v 263.34 h 52.61" /><path
         id="path40"
         style="fill:#ffffff;fill-opacity:1;fill-rule:nonzero;stroke:none"
         d="m 1698.4,3682.42 c -3.26,-1.08 -6.87,-1.99 -10.59,-2.77 -3.84,-0.73 -7.85,-1.33 -12.01,-1.86 -4.12,-0.49 -8.36,-1.05 -12.47,-1.79 -3.92,-0.79 -7.84,-1.74 -11.57,-2.99 -3.8,-1.23 -7.13,-2.88 -9.87,-4.96 -2.84,-2.12 -5.1,-4.76 -6.83,-7.92 -1.68,-3.18 -2.58,-7.32 -2.58,-12.2 0,-4.65 0.9,-8.59 2.58,-11.82 1.73,-3.2 3.99,-5.7 6.96,-7.55 2.96,-1.85 6.43,-3.15 10.29,-3.86 3.92,-0.79 7.97,-1.08 12.12,-1.08 10.3,0 18.24,1.71 23.9,5.15 5.63,3.44 9.87,7.56 12.52,12.36 2.69,4.81 4.33,9.64 4.86,14.51 0.69,4.93 1,8.88 1,11.85 v 19.6 c -2.27,-2.02 -4.94,-3.56 -8.31,-4.67 z m -103.09,74.2 c 5.33,8.11 12.2,14.69 20.56,19.59 8.36,4.96 17.7,8.46 28.2,10.54 10.46,2.16 20.92,3.17 31.54,3.17 9.55,0 19.21,-0.67 29.16,-2.03 9.79,-1.35 18.74,-4 26.86,-7.95 8.11,-3.96 14.72,-9.39 19.84,-16.48 5.19,-6.92 7.82,-16.27 7.82,-27.87 v -99.38 c 0,-8.65 0.51,-16.85 1.44,-24.73 1.04,-7.92 3.73,-13.86 6.27,-17.77 l -53.5,0.14 c -1.57,2.28 -2.87,5.84 -3.48,8.94 -0.62,3.05 -1.05,6.18 -1.29,9.4 -8.33,-8.63 -18.1,-14.69 -29.48,-18.15 -11.29,-3.42 -22.8,-5.13 -34.62,-5.13 -9.06,0 -17.5,1.15 -25.4,3.36 -7.78,2.22 -14.69,5.66 -20.58,10.31 -5.92,4.74 -10.47,10.62 -13.79,17.74 -3.3,7.16 -5,15.68 -5,25.52 0,10.86 1.95,19.8 5.8,26.8 3.74,7.01 8.62,12.63 14.71,16.8 5.99,4.2 12.87,7.36 20.66,9.43 7.72,2.08 15.56,3.79 23.33,5 7.89,1.21 15.57,2.19 23.24,2.95 7.69,0.76 14.35,1.83 20.3,3.32 5.87,1.46 10.57,3.68 14.02,6.49 3.39,2.82 5.02,6.92 4.79,12.39 0,5.63 -1,10.14 -2.81,13.5 -1.82,3.3 -4.28,5.86 -7.29,7.71 -3.09,1.86 -6.57,3.08 -10.58,3.73 -4.08,0.59 -8.4,0.92 -13.01,0.92 -10.25,0 -18.36,-2.28 -24.11,-6.66 -5.91,-4.51 -9.31,-11.93 -10.36,-22.28 h -52.54 c 0.76,12.36 3.8,22.58 9.3,30.68" /><path
         id="path42"
         style="fill:#ffffff;fill-opacity:1;fill-rule:nonzero;stroke:none"
         d="m 1837.84,3784.47 v -26.58 h 1.17 c 6.62,11.06 15.18,19.08 25.8,24.06 10.53,5.02 21.44,7.5 32.49,7.5 14.06,0 25.59,-1.83 34.5,-5.63 9.07,-3.86 16.12,-9.07 21.23,-15.87 5.24,-6.76 8.84,-15.01 10.93,-24.73 2.13,-9.7 3.18,-20.4 3.18,-32.2 v -117.17 h -52.65 v 107.65 c 0,15.72 -2.47,27.52 -7.38,35.24 -4.98,7.72 -13.57,12.67 -26.18,12.67 -14.25,0 -24.63,-5.37 -31.01,-13.82 -6.42,-8.48 -9.6,-22.43 -9.6,-41.82 v -99.92 h -52.08 v 190.62 h 49.6" /><path
         id="path44"
         style="fill:#ffffff;fill-opacity:1;fill-rule:nonzero;stroke:none"
         d="m 2083.68,3750.37 c -8.42,0 -15.37,-1.85 -20.97,-5.71 -5.7,-3.86 -10.36,-8.74 -13.92,-14.78 -3.58,-6.01 -6.04,-12.66 -7.57,-19.94 -1.43,-7.28 -2.23,-14.47 -2.23,-21.64 0,-6.91 0.8,-13.93 2.23,-21.08 1.53,-7.13 3.88,-13.56 7.2,-19.41 3.37,-5.74 7.85,-10.47 13.51,-14.2 5.63,-3.71 12.48,-5.55 20.61,-5.55 12.61,0 22.26,3.52 29.04,10.48 6.74,7.02 10.91,16.43 12.67,28.24 h 50.58 c -3.47,-25.3 -13.31,-44.61 -29.5,-57.93 -16.25,-13.23 -37.06,-19.94 -62.4,-19.94 -14.32,0 -27.33,2.43 -39.33,7.22 -11.98,4.85 -22.15,11.53 -30.53,20.14 -8.38,8.64 -14.88,18.92 -19.64,30.85 -4.65,11.96 -6.99,25.09 -6.99,39.34 0,14.77 2.17,28.52 6.48,41.22 4.29,12.67 10.62,23.63 19.08,32.84 8.37,9.25 18.61,16.45 30.71,21.64 12.07,5.16 25.84,7.76 41.32,7.76 11.32,0 22.19,-1.54 32.69,-4.39 10.42,-2.93 19.79,-7.43 28.01,-13.49 8.24,-6 14.99,-13.49 20.16,-22.43 5.11,-8.93 8.03,-19.63 8.84,-31.86 h -51.36 c -3.4,21.76 -16.3,32.62 -38.69,32.62" /><path
         id="path46"
         style="fill:#ffffff;fill-opacity:1;fill-rule:nonzero;stroke:none"
         d="m 1208.84,3839.53 v -25.99 h 106.75 v 25.99 h -106.75" /><path
         id="path48"
         style="fill:#ffffff;fill-opacity:1;fill-rule:nonzero;stroke:none"
         d="m 2314.41,3739.76 c -6.31,6.88 -16.93,10.61 -29.63,10.61 -8.36,0 -15.31,-1.41 -20.95,-4.28 -5.43,-2.83 -10.39,-6.36 -13.72,-10.5 -3.33,-4.22 -5.72,-8.68 -7.11,-13.44 -1.24,-4.63 -2.11,-8.85 -2.34,-12.56 h 85.86 c -1.4,13.35 -5.86,23.22 -12.11,30.17 z m -60.83,-100.19 c 7.87,-7.66 19.75,-11.51 34.55,-11.51 10.54,0 19.65,2.66 27.26,7.99 7.61,5.32 12.32,11 14.01,16.9 h 46.12 c -7.37,-22.95 -18.69,-39.34 -33.94,-49.2 -15.22,-9.9 -33.64,-14.84 -55.27,-14.84 -15.06,0 -28.63,2.43 -40.68,7.22 -12.1,4.85 -22.25,11.64 -30.74,20.5 -8.4,8.9 -14.84,19.42 -19.42,31.78 -4.55,12.29 -6.81,25.9 -6.81,40.64 0,14.26 2.34,27.58 7,39.9 4.72,12.34 11.43,23 20.02,31.95 8.71,8.98 18.89,16.07 30.82,21.26 11.98,5.16 25.28,7.76 39.81,7.76 16.11,0 30.3,-3.1 42.29,-9.43 12.1,-6.23 22.04,-14.69 29.76,-25.28 7.77,-10.55 13.36,-22.63 16.79,-36.19 3.38,-13.51 4.68,-27.65 3.71,-42.44 h -138.2 c 0,-15.08 5.03,-29.35 12.92,-37.01" /><path
         id="path50"
         style="fill:#ffffff;fill-opacity:1;fill-rule:nonzero;stroke:none"
         d="m 940.762,2965.59 h 22.656 c 13.047,-0.12 19.016,5.6 19.016,15.97 0,10.35 -5.969,15.96 -19.016,15.96 h -22.656 z m -11.582,41.68 h 38.133 c 17.316,0 26.703,-9.63 26.703,-25.71 0,-16.09 -9.387,-25.84 -26.703,-25.72 h -26.551 v -35.58 H 929.18 v 87.01" /><path
         id="path52"
         style="fill:#ffffff;fill-opacity:1;fill-rule:nonzero;stroke:none"
         d="m 1046.77,2927.94 c 21.2,0 30.11,18.27 30.11,35.83 0,17.54 -8.91,35.82 -30.11,35.82 -21.2,0 -30.11,-18.28 -30.11,-35.82 0,-17.56 8.91,-35.83 30.11,-35.83 z m 0,81.4 c 27.66,0 41.68,-21.94 41.68,-45.57 0,-23.65 -14.02,-45.59 -41.68,-45.59 -27.67,0 -41.67,21.94 -41.67,45.59 0,23.63 14,45.57 41.67,45.57" /><path
         id="path54"
         style="fill:#ffffff;fill-opacity:1;fill-rule:nonzero;stroke:none"
         d="m 1183,2920.26 h -12.06 l -19.86,73.12 h -0.25 l -20.11,-73.12 h -12.07 l -22.29,87.01 h 11.82 l 17.06,-72.39 h 0.24 l 19.5,72.39 h 12.55 l 19.26,-72.39 h 0.24 l 17.67,72.39 h 11.58 L 1183,2920.26" /><path
         id="path56"
         style="fill:#ffffff;fill-opacity:1;fill-rule:nonzero;stroke:none"
         d="m 1220.89,3007.27 h 60.09 v -9.75 h -48.52 v -27.66 h 45.22 v -9.75 h -45.22 v -30.1 h 48.88 v -9.75 h -60.45 v 87.01" /><path
         id="path58"
         style="fill:#ffffff;fill-opacity:1;fill-rule:nonzero;stroke:none"
         d="m 1334.71,2967.18 c 10.84,0 20.1,2.8 20.1,15.48 0,8.52 -4.63,14.86 -15.48,14.86 h -28.76 v -30.34 z m -35.72,40.09 h 40.95 c 16.33,0 26.45,-8.89 26.45,-22.79 0,-10.48 -4.64,-19.13 -15.11,-22.06 v -0.23 c 10.11,-1.96 12.19,-9.4 13.04,-17.92 0.73,-8.53 0.24,-18.04 5.11,-24.01 h -12.92 c -3.28,3.53 -1.46,12.92 -3.16,21.45 -1.22,8.52 -3.3,15.71 -14.51,15.71 h -28.27 v -37.16 h -11.58 v 87.01" /><path
         id="path60"
         style="fill:#ffffff;fill-opacity:1;fill-rule:nonzero;stroke:none"
         d="m 1387.34,3007.27 h 60.08 v -9.75 h -48.5 v -27.66 h 45.21 v -9.75 h -45.21 v -30.1 h 48.86 v -9.75 h -60.44 v 87.01" /><path
         id="path62"
         style="fill:#ffffff;fill-opacity:1;fill-rule:nonzero;stroke:none"
         d="m 1476.42,2930.01 h 19.24 c 7.92,0 29.24,2.2 29.24,34.25 0,20.71 -7.66,33.26 -28.99,33.26 h -19.49 z m -11.59,77.26 h 29.86 c 26.8,0 41.79,-13.4 41.79,-41.43 0,-29.12 -12.78,-45.58 -41.79,-45.58 h -29.86 v 87.01" /><path
         id="path64"
         style="fill:#ffffff;fill-opacity:1;fill-rule:nonzero;stroke:none"
         d="m 1602.16,2930.01 h 29 c 9.99,0 16.33,6.09 16.33,15.6 0,11.33 -9.14,14.5 -18.89,14.5 h -26.44 z m 0,39.85 h 23.16 c 13.16,0 18.52,4.75 18.52,13.89 0,12.07 -8.54,13.77 -18.52,13.77 h -23.16 z m -11.57,37.41 h 31.55 c 7.68,0 17.8,0 23.04,-3.17 5.72,-3.42 10.23,-9.63 10.23,-18.16 0,-9.26 -4.87,-16.2 -12.92,-19.49 v -0.25 c 10.73,-2.2 16.58,-10.23 16.58,-20.96 0,-12.8 -9.15,-24.98 -26.44,-24.98 h -42.04 v 87.01" /><path
         id="path66"
         style="fill:#ffffff;fill-opacity:1;fill-rule:nonzero;stroke:none"
         d="m 1713.06,2955.84 v -35.58 h -11.59 v 35.58 l -33.63,51.43 h 13.77 l 26.09,-41.43 25.45,41.43 h 13.17 l -33.26,-51.43" /><path
         id="path68"
         style="fill:#ffffff;fill-opacity:1;fill-rule:nonzero;stroke:none"
         d="m 1024.56,2665.08 c 4.52,0 8.83,0.41 12.88,1.31 4.12,0.9 7.76,2.32 10.84,4.43 3.07,2.03 5.63,4.8 7.48,8.32 1.85,3.52 2.75,8.06 2.75,13.55 0,10.76 -3.04,18.4 -9.06,23.04 -6.03,4.58 -14.09,6.86 -23.98,6.86 h -49.982 v -57.51 z m -2.55,88.89 c 8.15,0 14.89,1.94 20.24,5.85 5.28,3.87 7.86,10.25 7.86,19 0,4.85 -0.86,8.88 -2.58,11.99 -1.78,3.12 -4.11,5.56 -7.08,7.27 -2.94,1.77 -6.28,2.99 -10.12,3.66 -3.8,0.74 -7.76,1.03 -11.83,1.03 h -43.012 v -48.8 z m 5.94,84.37 c 10,0 19.01,-0.86 27.26,-2.64 8.19,-1.74 15.17,-4.65 21.08,-8.62 5.83,-3.97 10.37,-9.27 13.64,-15.93 3.19,-6.56 4.77,-14.78 4.77,-24.5 0,-10.52 -2.39,-19.3 -7.15,-26.32 -4.81,-7.01 -11.89,-12.75 -21.3,-17.21 12.83,-3.71 22.36,-10.21 28.67,-19.46 6.34,-9.3 9.45,-20.46 9.45,-33.52 0,-10.59 -2.04,-19.71 -6.09,-27.37 -4.07,-7.77 -9.65,-14.06 -16.51,-18.91 -6.93,-4.9 -14.86,-8.49 -23.75,-10.83 -8.8,-2.34 -17.94,-3.52 -27.3,-3.52 H 929.504 v 208.83 h 98.446" /><path
         id="path70"
         style="fill:#ffffff;fill-opacity:1;fill-rule:nonzero;stroke:none"
         d="m 1217.63,2745.22 c -4.93,5.46 -13.29,8.41 -23.5,8.41 -6.63,0 -12.13,-1.11 -16.51,-3.39 -4.31,-2.24 -7.83,-5.03 -10.53,-8.33 -2.69,-3.34 -4.5,-6.87 -5.57,-10.64 -1.06,-3.69 -1.71,-7.03 -1.88,-9.98 h 67.56 c -1,10.59 -4.61,18.43 -9.57,23.93 z m -47.73,-79.45 c 6.23,-6.07 15.23,-9.13 26.88,-9.13 8.37,0 15.6,2.12 21.68,6.35 6.01,4.21 9.67,8.72 11.1,13.4 h 36.57 c -5.89,-18.21 -14.79,-31.19 -26.96,-39.03 -12.03,-7.85 -26.69,-11.75 -43.79,-11.75 -11.91,0 -22.63,1.91 -32.25,5.72 -9.61,3.85 -17.66,9.24 -24.42,16.25 -6.59,7.07 -11.71,15.41 -15.35,25.2 -3.61,9.74 -5.43,20.54 -5.43,32.23 0,11.31 1.87,21.86 5.59,31.63 3.76,9.8 8.98,18.25 15.83,25.34 6.87,7.12 15.01,12.75 24.5,16.87 9.48,4.08 19.95,6.15 31.53,6.15 12.79,0 24,-2.47 33.6,-7.48 9.56,-4.94 17.43,-11.65 23.59,-20.04 6.16,-8.38 10.55,-17.95 13.27,-28.7 2.73,-10.72 3.69,-21.92 2.91,-33.66 h -109.11 c 0,-11.96 4.02,-23.26 10.26,-29.35" /><path
         id="path72"
         style="fill:#ffffff;fill-opacity:1;fill-rule:nonzero;stroke:none"
         d="m 1327.72,2838.34 v -78.73 h 0.96 c 5.28,8.75 11.95,15.12 20.14,19.07 8.18,3.98 16.17,5.95 23.94,5.95 11.11,0 20.19,-1.47 27.29,-4.47 7.1,-3.06 12.72,-7.19 16.83,-12.58 4.05,-5.35 6.91,-11.91 8.57,-19.61 1.66,-7.7 2.5,-16.18 2.5,-25.54 v -92.92 h -41.73 v 85.37 c 0,12.46 -1.95,21.82 -5.82,27.95 -3.87,6.12 -10.75,9.2 -20.69,9.2 -11.23,0 -19.35,-3.42 -24.38,-10.12 -5.12,-6.71 -7.61,-17.78 -7.61,-33.16 v -79.24 h -41.71 v 208.83 h 41.71" /><path
         id="path74"
         style="fill:#ffffff;fill-opacity:1;fill-rule:nonzero;stroke:none"
         d="m 1539.35,2699.77 c -2.59,-0.87 -5.45,-1.6 -8.4,-2.21 -3.04,-0.59 -6.22,-1.06 -9.51,-1.47 -3.28,-0.39 -6.64,-0.85 -9.9,-1.42 -3.11,-0.63 -6.23,-1.39 -9.18,-2.38 -3.01,-0.98 -5.65,-2.29 -7.82,-3.94 -2.25,-1.68 -4.06,-3.76 -5.43,-6.28 -1.33,-2.52 -2.05,-5.79 -2.05,-9.67 0,-3.69 0.72,-6.8 2.05,-9.36 1.37,-2.55 3.18,-4.52 5.54,-5.99 2.33,-1.48 5.09,-2.5 8.14,-3.07 3.13,-0.62 6.33,-0.86 9.62,-0.86 8.17,0 14.47,1.37 18.95,4.09 4.46,2.73 7.83,5.99 9.92,9.8 2.15,3.81 3.44,7.65 3.87,11.51 0.54,3.9 0.79,7.05 0.79,9.39 v 15.54 c -1.8,-1.59 -3.94,-2.83 -6.59,-3.68 z m -81.75,58.82 c 4.24,6.45 9.68,11.64 16.3,15.53 6.63,3.95 14.04,6.71 22.36,8.36 8.3,1.72 16.59,2.52 25.02,2.52 7.57,0 15.22,-0.53 23.1,-1.61 7.78,-1.07 14.88,-3.18 21.31,-6.3 6.44,-3.15 11.67,-7.46 15.74,-13.09 4.12,-5.47 6.2,-12.89 6.2,-22.09 v -78.8 c 0,-6.86 0.41,-13.36 1.15,-19.6 0.82,-6.28 2.95,-11.01 4.96,-14.1 l -42.42,0.1 c -1.24,1.82 -2.28,4.63 -2.77,7.1 -0.48,2.41 -0.83,4.89 -1.01,7.45 -6.61,-6.83 -14.37,-11.64 -23.38,-14.39 -8.95,-2.7 -18.09,-4.06 -27.45,-4.06 -7.19,0 -13.88,0.9 -20.14,2.65 -6.18,1.78 -11.66,4.49 -16.32,8.19 -4.69,3.75 -8.31,8.41 -10.93,14.06 -2.63,5.68 -3.99,12.44 -3.99,20.23 0,8.62 1.55,15.71 4.61,21.26 2.98,5.56 6.84,10.01 11.68,13.32 4.74,3.33 10.2,5.83 16.38,7.47 6.12,1.66 12.32,3.01 18.48,3.97 6.25,0.95 12.36,1.74 18.44,2.34 6.11,0.61 11.39,1.45 16.09,2.64 4.65,1.16 8.38,2.91 11.13,5.13 2.69,2.25 3.98,5.49 3.8,9.83 0,4.47 -0.79,8.05 -2.24,10.7 -1.44,2.62 -3.39,4.65 -5.77,6.14 -2.46,1.46 -5.22,2.43 -8.4,2.94 -3.22,0.47 -6.65,0.73 -10.31,0.73 -8.12,0 -14.55,-1.8 -19.11,-5.28 -4.7,-3.57 -7.4,-9.45 -8.23,-17.67 h -41.67 c 0.61,9.8 3.02,17.91 7.39,24.33" /><path
         id="path76"
         style="fill:#ffffff;fill-opacity:1;fill-rule:nonzero;stroke:none"
         d="m 1649.92,2780.68 v -21.07 h 0.94 c 5.24,8.75 12.03,15.12 20.44,19.07 8.36,3.98 17,5.95 25.77,5.95 11.15,0 20.28,-1.47 27.35,-4.47 7.2,-3.06 12.8,-7.19 16.84,-12.58 4.16,-5.35 7.01,-11.91 8.66,-19.61 1.7,-7.7 2.53,-16.18 2.53,-25.54 v -92.92 h -41.76 v 85.37 c 0,12.46 -1.94,21.82 -5.85,27.95 -3.94,6.12 -10.76,10.05 -20.76,10.05 -11.3,0 -19.53,-4.27 -24.59,-10.97 -5.09,-6.71 -7.6,-17.78 -7.6,-33.16 v -79.24 h -41.3 v 151.17 h 39.33" /><path
         id="path78"
         style="fill:#ffffff;fill-opacity:1;fill-rule:nonzero;stroke:none"
         d="m 1844.87,2753.63 c -6.68,0 -12.19,-1.46 -16.62,-4.53 -4.53,-3.06 -8.23,-6.91 -11.05,-11.72 -2.83,-4.76 -4.79,-10.04 -6.01,-15.81 -1.13,-5.77 -1.76,-11.47 -1.76,-17.16 0,-5.47 0.63,-11.03 1.76,-16.71 1.22,-5.66 3.08,-10.75 5.71,-15.4 2.67,-4.55 6.22,-8.3 10.73,-11.25 4.45,-2.94 9.88,-4.41 16.33,-4.41 10,0 17.65,2.79 23.03,8.32 5.34,5.57 8.65,13.03 10.04,22.38 h 40.13 c -2.78,-20.05 -10.57,-35.37 -23.4,-45.93 -12.89,-10.49 -29.39,-15.8 -49.48,-15.8 -11.35,0 -21.68,1.91 -31.2,5.72 -9.5,3.85 -17.57,9.14 -24.2,15.96 -6.64,6.86 -11.81,15 -15.58,24.47 -3.69,9.49 -5.56,19.9 -5.56,31.2 0,11.71 1.74,22.61 5.15,32.68 3.4,10.04 8.43,18.74 15.14,26.04 6.65,7.34 14.73,13.05 24.34,17.17 9.57,4.08 20.5,6.15 32.78,6.15 8.97,0 17.58,-1.22 25.91,-3.5 8.27,-2.3 15.7,-5.88 22.21,-10.68 6.53,-4.77 11.89,-10.7 15.99,-17.78 4.05,-7.08 6.37,-15.58 7.01,-25.27 h -40.72 c -2.69,17.26 -12.93,25.86 -30.68,25.86" /><path
         id="path80"
         style="fill:#ffffff;fill-opacity:1;fill-rule:nonzero;stroke:none"
         d="m 1151.14,2824.34 v -20.61 h 84.64 v 20.61 h -84.64" /><path
         id="path82"
         style="fill:#ffffff;fill-opacity:1;fill-rule:nonzero;stroke:none"
         d="m 2027.83,2745.22 c -5,5.46 -13.42,8.41 -23.5,8.41 -6.63,0 -12.14,-1.11 -16.62,-3.39 -4.3,-2.24 -8.23,-5.03 -10.87,-8.33 -2.63,-3.34 -4.53,-6.87 -5.64,-10.64 -0.99,-3.69 -1.68,-7.03 -1.85,-9.98 h 68.08 c -1.1,10.59 -4.65,18.43 -9.6,23.93 z m -48.23,-79.45 c 6.23,-6.07 15.64,-9.13 27.38,-9.13 8.36,0 15.6,2.12 21.62,6.35 6.03,4.21 9.77,8.72 11.12,13.4 h 36.58 c -5.85,-18.21 -14.84,-31.19 -26.93,-39.03 -12.08,-7.85 -26.67,-11.75 -43.83,-11.75 -11.94,0 -22.71,1.91 -32.25,5.72 -9.61,3.85 -17.65,9.24 -24.38,16.25 -6.66,7.07 -11.77,15.41 -15.39,25.2 -3.61,9.74 -5.4,20.54 -5.4,32.23 0,11.31 1.85,21.86 5.55,31.63 3.73,9.8 9.04,18.25 15.87,25.34 6.91,7.12 14.97,12.75 24.44,16.87 9.49,4.08 20.03,6.15 31.56,6.15 12.79,0 24.04,-2.47 33.53,-7.48 9.61,-4.94 17.49,-11.65 23.62,-20.04 6.16,-8.38 10.58,-17.95 13.3,-28.7 2.68,-10.72 3.72,-21.92 2.94,-33.66 h -109.58 c 0,-11.96 4,-23.26 10.25,-29.35" /><path
         id="path84"
         style="fill:#ffffff;fill-opacity:1;fill-rule:nonzero;stroke:none"
         d="m 939.473,1929.22 h 20.09 c 6.66,0 11.367,1.24 14.167,3.71 2.793,2.48 4.192,5.96 4.192,10.45 0,3.26 -0.832,6.03 -2.473,8.35 -1.64,2.31 -3.808,3.85 -6.496,4.59 -1.734,0.46 -4.937,0.69 -9.598,0.69 h -19.882 z m -10.293,-40.78 v 77.74 h 29.328 c 5.164,0 9.109,-0.24 11.824,-0.74 3.816,-0.64 7.023,-1.85 9.59,-3.63 2.59,-1.79 4.668,-4.29 6.238,-7.51 1.574,-3.21 2.363,-6.75 2.363,-10.61 0,-6.6 -2.105,-12.2 -6.316,-16.78 -4.199,-4.57 -11.809,-6.86 -22.793,-6.86 h -19.941 v -31.61 H 929.18" /><path
         id="path86"
         style="fill:#ffffff;fill-opacity:1;fill-rule:nonzero;stroke:none"
         d="m 1009.63,1926.15 c 0,-9.37 2.53,-16.76 7.56,-22.15 5.05,-5.39 11.35,-8.08 18.95,-8.08 7.76,0 14.11,2.73 19.12,8.16 5,5.45 7.51,13.18 7.51,23.19 0,6.32 -1.07,11.84 -3.21,16.56 -2.14,4.72 -5.27,8.38 -9.38,10.97 -4.13,2.6 -8.74,3.91 -13.87,3.91 -7.28,0 -13.55,-2.51 -18.8,-7.51 -5.24,-5 -7.88,-13.35 -7.88,-25.05 z m -10.607,0.16 c 0,12.9 3.477,23.01 10.387,30.29 6.94,7.31 15.88,10.96 26.85,10.96 7.18,0 13.64,-1.72 19.39,-5.14 5.78,-3.44 10.17,-8.21 13.19,-14.34 3.03,-6.15 4.54,-13.1 4.54,-20.87 0,-7.88 -1.6,-14.94 -4.79,-21.16 -3.18,-6.23 -7.68,-10.93 -13.51,-14.14 -5.83,-3.19 -12.13,-4.79 -18.88,-4.79 -7.31,0 -13.86,1.77 -19.62,5.3 -5.76,3.54 -10.13,8.36 -13.1,14.47 -2.97,6.13 -4.457,12.59 -4.457,19.42" /><path
         id="path88"
         style="fill:#ffffff;fill-opacity:1;fill-rule:nonzero;stroke:none"
         d="m 1100.75,1888.44 -20.62,77.74 h 10.54 l 11.83,-50.96 c 1.27,-5.34 2.36,-10.63 3.29,-15.9 1.98,8.3 3.15,13.09 3.5,14.37 l 14.79,52.49 h 12.41 l 11.14,-39.34 c 2.79,-9.76 4.81,-18.93 6.04,-27.52 1,4.91 2.28,10.54 3.88,16.91 l 12.19,49.95 h 10.34 l -21.32,-77.74 h -9.91 l -16.39,59.24 c -1.38,4.95 -2.19,7.98 -2.44,9.12 -0.81,-3.58 -1.57,-6.61 -2.29,-9.12 l -16.48,-59.24 h -10.5" /><path
         id="path90"
         style="fill:#ffffff;fill-opacity:1;fill-rule:nonzero;stroke:none"
         d="m 1196.95,1888.44 v 77.74 h 56.2 v -9.17 h -45.91 v -23.81 h 42.99 v -9.12 h -42.99 v -26.46 h 47.72 v -9.18 h -58.01" /><path
         id="path92"
         style="fill:#ffffff;fill-opacity:1;fill-rule:nonzero;stroke:none"
         d="m 1279.61,1931.87 h 22.12 c 4.71,0 8.38,0.49 11.03,1.47 2.65,0.96 4.67,2.52 6.05,4.67 1.38,2.13 2.07,4.45 2.07,6.96 0,3.68 -1.34,6.7 -4.01,9.07 -2.67,2.37 -6.89,3.56 -12.65,3.56 h -24.61 z m -10.27,-43.43 v 77.74 h 34.46 c 6.92,0 12.2,-0.69 15.81,-2.09 3.6,-1.39 6.47,-3.87 8.63,-7.4 2.16,-3.53 3.24,-7.44 3.24,-11.72 0,-5.52 -1.79,-10.17 -5.36,-13.94 -3.56,-3.78 -9.08,-6.19 -16.54,-7.22 2.71,-1.31 4.8,-2.6 6.21,-3.87 3,-2.75 5.84,-6.2 8.53,-10.33 l 13.53,-21.17 h -12.94 l -10.3,16.18 c -3,4.66 -5.47,8.23 -7.42,10.71 -1.94,2.47 -3.68,4.2 -5.22,5.2 -1.54,0.98 -3.1,1.68 -4.69,2.07 -1.17,0.24 -3.08,0.37 -5.73,0.37 h -11.94 v -34.53 h -10.27" /><path
         id="path94"
         style="fill:#ffffff;fill-opacity:1;fill-rule:nonzero;stroke:none"
         d="m 1351.06,1888.44 v 77.74 h 56.22 v -9.17 h -45.93 v -23.81 h 43.01 v -9.12 h -43.01 v -26.46 h 47.72 v -9.18 h -58.01" /><path
         id="path96"
         style="fill:#ffffff;fill-opacity:1;fill-rule:nonzero;stroke:none"
         d="m 1435.21,1897.62 h 16.6 c 5.11,0 9.14,0.48 12.06,1.42 2.91,0.96 5.23,2.31 6.97,4.05 2.44,2.43 4.34,5.71 5.69,9.82 1.37,4.12 2.05,9.12 2.05,14.98 0,8.15 -1.33,14.39 -4,18.75 -2.68,4.37 -5.92,7.29 -9.74,8.77 -2.76,1.07 -7.19,1.6 -13.31,1.6 h -16.32 z m -10.29,-9.18 v 77.74 h 26.77 c 6.05,0 10.66,-0.37 13.85,-1.11 4.45,-1.03 8.25,-2.88 11.39,-5.57 4.11,-3.46 7.17,-7.89 9.21,-13.29 2.03,-5.39 3.05,-11.54 3.05,-18.48 0,-5.89 -0.68,-11.13 -2.08,-15.69 -1.37,-4.56 -3.14,-8.33 -5.3,-11.32 -2.15,-2.99 -4.52,-5.34 -7.07,-7.05 -2.57,-1.72 -5.66,-3.02 -9.28,-3.9 -3.62,-0.88 -7.79,-1.33 -12.49,-1.33 h -28.05" /><path
         id="path98"
         style="fill:#ffffff;fill-opacity:1;fill-rule:nonzero;stroke:none"
         d="M 1546.64,1897.62 H 1566 c 3.32,0 5.65,0.12 7,0.37 2.36,0.43 4.33,1.13 5.94,2.13 1.58,0.97 2.89,2.42 3.91,4.31 1.04,1.9 1.54,4.08 1.54,6.55 0,2.9 -0.74,5.43 -2.22,7.56 -1.49,2.13 -3.56,3.64 -6.18,4.51 -2.64,0.86 -6.43,1.3 -11.38,1.3 h -17.97 z m 0,35.9 h 16.82 c 4.55,0 7.82,0.3 9.8,0.89 2.61,0.79 4.59,2.07 5.91,3.88 1.33,1.81 1.98,4.06 1.98,6.79 0,2.58 -0.61,4.84 -1.84,6.81 -1.24,1.96 -3.01,3.31 -5.31,4.03 -2.29,0.72 -6.24,1.09 -11.82,1.09 h -15.54 z m -10.29,-45.08 v 77.74 h 29.17 c 5.94,0 10.7,-0.79 14.28,-2.36 3.59,-1.57 6.4,-4 8.44,-7.26 2.03,-3.28 3.05,-6.7 3.05,-10.26 0,-3.33 -0.9,-6.46 -2.72,-9.39 -1.78,-2.94 -4.52,-5.31 -8.15,-7.11 4.7,-1.37 8.31,-3.73 10.84,-7.05 2.52,-3.32 3.8,-7.24 3.8,-11.77 0,-3.64 -0.77,-7.02 -2.32,-10.16 -1.53,-3.12 -3.43,-5.54 -5.7,-7.23 -2.26,-1.7 -5.1,-2.98 -8.5,-3.84 -3.42,-0.87 -7.59,-1.31 -12.54,-1.31 h -29.65" /><path
         id="path100"
         style="fill:#ffffff;fill-opacity:1;fill-rule:nonzero;stroke:none"
         d="m 1632.73,1888.44 v 32.93 l -29.95,44.81 h 12.51 l 15.33,-23.44 c 2.83,-4.38 5.46,-8.77 7.9,-13.15 2.33,4.06 5.16,8.65 8.48,13.73 l 15.06,22.86 h 11.98 l -31.01,-44.81 v -32.93 h -10.3" /><path
         id="path102"
         style="fill:#ffffff;fill-opacity:1;fill-rule:nonzero;stroke:none"
         d="m 997.148,1706.05 c 3.202,0 6.282,0.3 9.162,0.94 2.94,0.63 5.53,1.66 7.72,3.15 2.18,1.44 4.02,3.42 5.33,5.93 1.32,2.49 1.95,5.74 1.95,9.64 0,7.67 -2.16,13.11 -6.45,16.41 -4.29,3.26 -10.02,4.88 -17.067,4.88 h -35.598 v -40.95 z m -1.828,63.31 c 5.79,0 10.61,1.36 14.41,4.16 3.77,2.75 5.6,7.3 5.6,13.52 0,3.47 -0.62,6.32 -1.83,8.55 -1.27,2.21 -2.93,3.94 -5.03,5.17 -2.1,1.27 -4.48,2.13 -7.22,2.6 -2.703,0.54 -5.527,0.74 -8.43,0.74 h -30.625 v -34.74 z m 4.231,60.07 c 7.119,0 13.549,-0.61 19.409,-1.89 5.83,-1.23 10.82,-3.3 15.01,-6.13 4.16,-2.84 7.39,-6.61 9.72,-11.34 2.26,-4.68 3.39,-10.54 3.39,-17.45 0,-7.48 -1.69,-13.74 -5.09,-18.74 -3.42,-4.99 -8.45,-9.08 -15.17,-12.26 9.15,-2.64 15.92,-7.26 20.43,-13.85 4.51,-6.63 6.72,-14.57 6.72,-23.87 0,-7.53 -1.45,-14.04 -4.34,-19.49 -2.9,-5.53 -6.87,-10.02 -11.75,-13.47 -4.93,-3.48 -10.59,-6.05 -16.92,-7.71 -6.27,-1.66 -12.77,-2.51 -19.44,-2.51 h -72.079 v 148.71 h 70.11" /><path
         id="path104"
         style="fill:#ffffff;fill-opacity:1;fill-rule:nonzero;stroke:none"
         d="m 1140.32,1763.12 c -3.51,3.89 -9.46,5.99 -16.73,5.99 -4.72,0 -8.63,-0.79 -11.75,-2.41 -3.07,-1.6 -5.57,-3.59 -7.5,-5.94 -1.91,-2.38 -3.21,-4.89 -3.98,-7.58 -0.74,-2.62 -1.21,-5 -1.33,-7.1 h 48.12 c -0.72,7.55 -3.29,13.12 -6.83,17.04 z m -33.98,-56.58 c 4.44,-4.31 10.84,-6.5 19.14,-6.5 5.95,0 11.1,1.51 15.43,4.52 4.29,3 6.89,6.22 7.91,9.54 h 26.05 c -4.21,-12.95 -10.54,-22.21 -19.22,-27.77 -8.54,-5.61 -19,-8.38 -31.17,-8.38 -8.47,0 -16.11,1.37 -22.97,4.07 -6.83,2.75 -12.57,6.57 -17.38,11.57 -4.69,5.03 -8.33,10.97 -10.94,17.95 -2.56,6.94 -3.86,14.62 -3.86,22.94 0,8.06 1.34,15.58 3.98,22.53 2.69,6.97 6.41,13 11.26,18.05 4.92,5.07 10.69,9.08 17.46,12 6.76,2.92 14.2,4.39 22.45,4.39 9.1,0 17.09,-1.76 23.93,-5.34 6.81,-3.51 12.4,-8.29 16.8,-14.25 4.38,-5.98 7.5,-12.8 9.45,-20.45 1.95,-7.63 2.63,-15.61 2.06,-23.97 h -77.69 c 0,-8.51 2.86,-16.56 7.31,-20.9" /><path
         id="path106"
         style="fill:#ffffff;fill-opacity:1;fill-rule:nonzero;stroke:none"
         d="m 1225.05,1829.43 v -56.07 h 0.67 c 3.77,6.24 8.52,10.78 14.35,13.59 5.82,2.83 11.51,4.23 17.05,4.23 7.9,0 14.36,-1.04 19.43,-3.17 5.05,-2.19 9.07,-5.14 11.99,-8.97 2.88,-3.81 4.91,-8.47 6.1,-13.96 1.17,-5.48 1.77,-11.53 1.77,-18.19 v -66.17 h -29.71 v 60.8 c 0,8.87 -1.4,15.53 -4.15,19.9 -2.76,4.36 -7.66,6.55 -14.74,6.55 -8,0 -13.77,-2.42 -17.35,-7.21 -3.64,-4.78 -5.41,-12.65 -5.41,-23.61 v -56.43 h -29.71 v 148.71 h 29.71" /><path
         id="path108"
         style="fill:#ffffff;fill-opacity:1;fill-rule:nonzero;stroke:none"
         d="m 1381.16,1730.74 c -1.83,-0.6 -3.89,-1.12 -5.98,-1.56 -2.17,-0.41 -4.43,-0.74 -6.77,-1.05 -2.35,-0.28 -4.73,-0.59 -7.04,-1.01 -2.23,-0.44 -4.46,-0.99 -6.55,-1.69 -2.14,-0.7 -4.03,-1.62 -5.56,-2.8 -1.6,-1.2 -2.89,-2.69 -3.87,-4.48 -0.95,-1.78 -1.45,-4.13 -1.45,-6.88 0,-2.62 0.5,-4.84 1.45,-6.67 0.98,-1.81 2.27,-3.22 3.94,-4.27 1.68,-1.04 3.63,-1.78 5.81,-2.19 2.21,-0.43 4.51,-0.59 6.84,-0.59 5.82,0 10.3,0.97 13.5,2.9 3.17,1.95 5.56,4.28 7.06,6.98 1.52,2.71 2.44,5.44 2.75,8.19 0.38,2.78 0.56,5.02 0.56,6.69 v 11.07 c -1.27,-1.14 -2.79,-2.01 -4.69,-2.64 z m -58.21,41.91 c 3.01,4.58 6.88,8.29 11.61,11.05 4.73,2.8 9.99,4.78 15.93,5.95 5.9,1.22 11.8,1.8 17.8,1.8 5.39,0 10.84,-0.39 16.47,-1.16 5.52,-0.76 10.58,-2.24 15.17,-4.48 4.58,-2.24 8.31,-5.3 11.2,-9.31 2.92,-3.9 4.42,-9.18 4.42,-15.74 v -56.11 c 0,-4.88 0.29,-9.51 0.81,-13.96 0.59,-4.47 2.1,-7.84 3.54,-10.03 l -30.21,0.06 c -0.89,1.3 -1.62,3.3 -1.97,5.06 -0.35,1.72 -0.59,3.5 -0.73,5.31 -4.7,-4.87 -10.22,-8.3 -16.64,-10.25 -6.39,-1.92 -12.88,-2.89 -19.56,-2.89 -5.12,0 -9.87,0.64 -14.33,1.89 -4.41,1.25 -8.31,3.19 -11.62,5.82 -3.34,2.68 -5.9,6 -7.79,10.02 -1.87,4.05 -2.83,8.85 -2.83,14.42 0,6.13 1.09,11.17 3.27,15.12 2.14,3.96 4.88,7.13 8.31,9.49 3.39,2.37 7.28,4.16 11.67,5.33 4.37,1.17 8.78,2.13 13.17,2.81 4.46,0.69 8.79,1.25 13.13,1.67 4.35,0.43 8.11,1.04 11.45,1.89 3.32,0.82 5.98,2.07 7.93,3.65 1.92,1.6 2.84,3.9 2.7,6.99 0,3.18 -0.56,5.72 -1.59,7.62 -1.03,1.87 -2.42,3.32 -4.09,4.37 -1.76,1.04 -3.72,1.73 -6,2.09 -2.29,0.33 -4.74,0.53 -7.34,0.53 -5.78,0 -10.37,-1.29 -13.61,-3.76 -3.35,-2.55 -5.26,-6.74 -5.86,-12.59 h -29.67 c 0.44,6.99 2.15,12.76 5.26,17.34" /><path
         id="path110"
         style="fill:#ffffff;fill-opacity:1;fill-rule:nonzero;stroke:none"
         d="m 1464.43,1788.37 v -15.01 h 0.67 c 3.74,6.24 8.57,10.78 14.56,13.59 5.95,2.83 12.12,4.23 18.35,4.23 7.94,0 14.45,-1.04 19.48,-3.17 5.12,-2.19 9.1,-5.14 11.98,-8.97 2.97,-3.81 5,-8.47 6.17,-13.96 1.23,-5.48 1.81,-11.53 1.81,-18.19 v -66.17 h -29.74 v 60.8 c 0,8.87 -1.39,15.53 -4.17,19.9 -2.81,4.36 -7.65,7.15 -14.78,7.15 -8.04,0 -13.91,-3.02 -17.5,-7.81 -3.62,-4.78 -5.42,-12.65 -5.42,-23.61 v -56.43 h -29.41 v 107.65 h 28" /><path
         id="path112"
         style="fill:#ffffff;fill-opacity:1;fill-rule:nonzero;stroke:none"
         d="m 1606.9,1769.11 c -4.74,0 -8.68,-1.04 -11.82,-3.23 -3.23,-2.17 -5.88,-4.92 -7.88,-8.34 -2.01,-3.4 -3.4,-7.15 -4.27,-11.26 -0.82,-4.11 -1.25,-8.17 -1.25,-12.22 0,-3.89 0.43,-7.86 1.25,-11.9 0.87,-4.04 2.19,-7.65 4.05,-10.96 1.92,-3.24 4.44,-5.92 7.64,-8.02 3.18,-2.09 7.05,-3.14 11.64,-3.14 7.12,0 12.56,1.99 16.39,5.94 3.81,3.94 6.17,9.26 7.15,15.93 h 28.59 c -1.98,-14.29 -7.54,-25.19 -16.66,-32.71 -9.19,-7.47 -20.94,-11.25 -35.25,-11.25 -8.08,0 -15.43,1.37 -22.21,4.07 -6.75,2.75 -12.51,6.52 -17.24,11.38 -4.73,4.87 -8.4,10.67 -11.09,17.42 -2.62,6.74 -3.95,14.16 -3.95,22.21 0,8.34 1.23,16.1 3.66,23.28 2.44,7.15 6,13.34 10.78,18.53 4.72,5.24 10.49,9.3 17.34,12.22 6.82,2.92 14.58,4.39 23.33,4.39 6.39,0 12.53,-0.87 18.45,-2.49 5.91,-1.65 11.19,-4.19 15.84,-7.61 4.64,-3.4 8.43,-7.62 11.37,-12.66 2.88,-5.06 4.53,-11.09 4.98,-18 h -28.99 c -1.91,12.3 -9.21,18.42 -21.85,18.42" /><path
         id="path114"
         style="fill:#ffffff;fill-opacity:1;fill-rule:nonzero;stroke:none"
         d="m 1092.98,1821 v -14.67 h 60.26 V 1821 h -60.26" /><path
         id="path116"
         style="fill:#ffffff;fill-opacity:1;fill-rule:nonzero;stroke:none"
         d="m 1742.63,1763.12 c -3.57,3.89 -9.56,5.99 -16.74,5.99 -4.72,0 -8.65,-0.79 -11.83,-2.41 -3.06,-1.6 -5.87,-3.59 -7.75,-5.94 -1.88,-2.38 -3.21,-4.89 -4.02,-7.58 -0.7,-2.62 -1.19,-5 -1.31,-7.1 h 48.48 c -0.79,7.55 -3.32,13.12 -6.83,17.04 z m -34.35,-56.58 c 4.43,-4.31 11.13,-6.5 19.48,-6.5 5.97,0 11.12,1.51 15.41,4.52 4.3,3 6.96,6.22 7.91,9.54 h 26.05 c -4.16,-12.95 -10.57,-22.21 -19.16,-27.77 -8.6,-5.61 -19,-8.38 -31.22,-8.38 -8.5,0 -16.16,1.37 -22.96,4.07 -6.84,2.75 -12.56,6.57 -17.36,11.57 -4.75,5.03 -8.37,10.97 -10.96,17.95 -2.57,6.94 -3.85,14.62 -3.85,22.94 0,8.06 1.31,15.58 3.95,22.53 2.66,6.97 6.44,13 11.3,18.05 4.93,5.07 10.67,9.08 17.4,12 6.77,2.92 14.27,4.39 22.48,4.39 9.11,0 17.12,-1.76 23.88,-5.34 6.84,-3.51 12.47,-8.29 16.81,-14.25 4.39,-5.98 7.53,-12.8 9.47,-20.45 1.92,-7.63 2.65,-15.61 2.09,-23.97 h -78.02 c 0,-8.51 2.84,-16.56 7.3,-20.9" /><path
         id="path118"
         style="fill:#ffffff;fill-opacity:1;fill-rule:nonzero;stroke:none"
         d="m 937.344,999.031 h 15.949 c 9.18,-0.09 13.395,3.939 13.395,11.239 0,7.3 -4.215,11.23 -13.395,11.23 h -15.949 z m -8.164,29.349 h 26.867 c 12.176,0 18.789,-6.78 18.789,-18.11 0,-11.329 -6.613,-18.211 -18.789,-18.11 h -18.703 v -25.07 h -8.164 v 61.29" /><path
         id="path120"
         style="fill:#ffffff;fill-opacity:1;fill-rule:nonzero;stroke:none"
         d="m 1012.44,972.512 c 14.94,0 21.2,12.867 21.2,25.238 0,12.35 -6.26,25.22 -21.2,25.22 -14.928,0 -21.19,-12.87 -21.19,-25.22 0,-12.371 6.262,-25.238 21.19,-25.238 z m 0,57.328 c 19.48,0 29.36,-15.45 29.36,-32.09 0,-16.68 -9.88,-32.121 -29.36,-32.121 -19.471,0 -29.342,15.441 -29.342,32.121 0,16.64 9.871,32.09 29.342,32.09" /><path
         id="path122"
         style="fill:#ffffff;fill-opacity:1;fill-rule:nonzero;stroke:none"
         d="m 1111.43,967.09 h -8.49 l -13.99,51.49 h -0.17 l -14.16,-51.49 h -8.5 l -15.7,61.29 h 8.33 l 12,-51.001 h 0.18 l 13.72,51.001 h 8.85 l 13.56,-51.001 h 0.17 l 12.45,51.001 h 8.13 l -16.38,-61.29" /><path
         id="path124"
         style="fill:#ffffff;fill-opacity:1;fill-rule:nonzero;stroke:none"
         d="m 1141.4,1028.38 h 42.3 v -6.88 h -34.14 v -19.47 h 31.83 v -6.87 h -31.83 v -21.199 h 34.41 v -6.871 h -42.57 v 61.29" /><path
         id="path126"
         style="fill:#ffffff;fill-opacity:1;fill-rule:nonzero;stroke:none"
         d="m 1225.87,1000.13 c 7.64,0 14.16,1.98 14.16,10.91 0,6.01 -3.26,10.46 -10.91,10.46 h -20.24 v -21.37 z m -25.15,28.25 h 28.83 c 11.49,0 18.62,-6.28 18.62,-16.06 0,-7.38 -3.26,-13.449 -10.64,-15.511 v -0.188 c 7.13,-1.371 8.59,-6.621 9.18,-12.633 0.53,-5.976 0.17,-12.679 3.61,-16.898 h -9.1 c -2.31,2.5 -1.02,9.109 -2.23,15.121 -0.86,6.008 -2.32,11.059 -10.21,11.059 h -19.9 v -26.18 h -8.16 v 61.29" /><path
         id="path128"
         style="fill:#ffffff;fill-opacity:1;fill-rule:nonzero;stroke:none"
         d="m 1264.26,1028.38 h 42.3 v -6.88 h -34.15 v -19.47 h 31.84 v -6.87 h -31.84 v -21.199 h 34.42 v -6.871 h -42.57 v 61.29" /><path
         id="path130"
         style="fill:#ffffff;fill-opacity:1;fill-rule:nonzero;stroke:none"
         d="m 1331.31,973.961 h 13.56 c 5.57,0 20.59,1.57 20.59,24.109 0,14.61 -5.41,23.43 -20.43,23.43 h -13.72 z m -8.16,54.419 h 21.03 c 18.88,0 29.43,-9.45 29.43,-29.189 0,-20.5 -9.02,-32.101 -29.43,-32.101 h -21.03 v 61.29" /><path
         id="path132"
         style="fill:#ffffff;fill-opacity:1;fill-rule:nonzero;stroke:none"
         d="m 1425.07,973.961 h 20.42 c 7.04,0 11.5,4.289 11.5,11 0,7.969 -6.43,10.199 -13.3,10.199 h -18.62 z m 0,28.069 h 16.31 c 9.26,0 13.03,3.34 13.03,9.78 0,8.5 -6,9.69 -13.03,9.69 h -16.31 z m -8.16,26.35 h 22.24 c 5.4,0 12.52,0 16.2,-2.23 4.03,-2.42 7.22,-6.79 7.22,-12.79 0,-6.52 -3.43,-11.41 -9.09,-13.731 v -0.18 c 7.55,-1.551 11.66,-7.187 11.66,-14.758 0,-9.011 -6.43,-17.601 -18.62,-17.601 h -29.61 v 61.29" /><path
         id="path134"
         style="fill:#ffffff;fill-opacity:1;fill-rule:nonzero;stroke:none"
         d="m 1505.76,992.16 v -25.07 h -8.15 v 25.07 l -23.68,36.22 h 9.69 l 18.36,-29.189 17.94,29.189 h 9.26 l -23.42,-36.22" /><path
         id="path136"
         style="fill:#ffffff;fill-opacity:1;fill-rule:nonzero;stroke:none"
         d="m 942.59,835.852 h 33.523 c 11.563,0 18.899,7.019 18.899,18.039 0,13.089 -10.571,16.75 -21.848,16.75 H 942.59 Z m 0,46.07 h 26.773 c 15.215,0 21.43,5.519 21.43,16.078 0,13.93 -9.875,15.922 -21.43,15.922 H 942.59 Z m -13.402,43.277 h 36.496 c 8.886,0 20.586,0 26.64,-3.66 6.629,-3.949 11.846,-11.129 11.846,-21.008 0,-10.722 -5.647,-18.742 -14.94,-22.539 v -0.281 c 12.41,-2.551 19.17,-11.852 19.17,-24.25 0,-14.813 -10.556,-28.91 -30.595,-28.91 h -48.617 v 100.648" /><path
         id="path138"
         style="fill:#ffffff;fill-opacity:1;fill-rule:nonzero;stroke:none"
         d="m 1082.11,867.98 c -0.57,11.411 -9.16,20.571 -21,20.571 -12.55,0 -20.03,-9.449 -20.87,-20.571 z m 11.56,-20.3 c -3.25,-16.078 -14.79,-24.789 -31.14,-24.789 -23.27,0 -34.25,16.058 -34.97,38.328 0,21.84 14.37,37.91 34.25,37.91 25.79,0 33.69,-24.117 32.98,-41.731 h -54.55 c -0.43,-12.668 6.77,-23.949 22.71,-23.949 9.86,0 16.77,4.781 18.88,14.231 h 11.84" /><path
         id="path140"
         style="fill:#ffffff;fill-opacity:1;fill-rule:nonzero;stroke:none"
         d="m 1114.93,925.199 h 11.99 v -38.48 h 0.27 c 3.96,8.75 14.25,12.41 22.98,12.41 19.17,0 25.09,-11.008 25.09,-26.629 v -47.949 h -11.99 v 49.347 c 0,8.872 -5.63,14.653 -14.8,14.653 -14.51,0 -21.55,-9.719 -21.55,-22.84 v -41.16 h -11.99 v 100.648" /><path
         id="path142"
         style="fill:#ffffff;fill-opacity:1;fill-rule:nonzero;stroke:none"
         d="m 1246.14,862.199 c -4.64,-3.379 -13.67,-3.527 -21.7,-4.929 -7.9,-1.411 -14.65,-4.231 -14.65,-13.129 0,-7.871 6.75,-10.692 14.1,-10.692 15.78,0 22.25,9.852 22.25,16.492 z m 19.47,-37.359 c -2.13,-1.27 -4.8,-1.949 -8.61,-1.949 -6.21,0 -10.14,3.359 -10.14,11.269 -6.63,-7.75 -15.51,-11.269 -25.66,-11.269 -13.25,0 -24.1,5.918 -24.1,20.41 0,16.5 12.27,20.031 24.67,22.41 13.24,2.551 24.51,1.687 24.51,10.719 0,10.429 -8.59,12.121 -16.21,12.121 -10.14,0 -17.61,-3.102 -18.18,-13.801 h -11.98 c 0.72,18.02 14.67,24.379 30.87,24.379 13.11,0 27.35,-2.981 27.35,-20.027 v -37.473 c 0,-5.649 0,-8.18 3.79,-8.18 0.99,0 2.12,0.133 3.69,0.711 v -9.32" /><path
         id="path144"
         style="fill:#ffffff;fill-opacity:1;fill-rule:nonzero;stroke:none"
         d="m 1284.47,897.422 h 11.27 v -11.543 h 0.3 c 5.06,9.019 13.24,13.25 23.66,13.25 19.18,0 25.09,-11.008 25.09,-26.629 v -47.949 h -11.98 v 49.347 c 0,8.872 -5.63,14.653 -14.8,14.653 -14.5,0 -21.55,-9.719 -21.55,-22.84 v -41.16 h -11.99 v 72.871" /><path
         id="path146"
         style="fill:#ffffff;fill-opacity:1;fill-rule:nonzero;stroke:none"
         d="m 1420.06,874.02 c -1.85,9.16 -8.18,14.531 -18.05,14.531 -17.34,0 -22.68,-13.68 -22.68,-28.481 0,-13.39 6.05,-26.621 21.28,-26.621 11.55,0 18.45,6.762 20.01,17.742 h 12.26 c -2.68,-17.742 -13.82,-28.3 -32.14,-28.3 -22.27,0 -34.1,15.468 -34.1,37.179 0,21.852 11.27,39.059 34.38,39.059 16.49,0 29.74,-7.777 31.43,-25.109 h -12.39" /><path
         id="path148"
         style="fill:#ffffff;fill-opacity:1;fill-rule:nonzero;stroke:none"
         d="m 1504.6,867.98 c -0.56,11.411 -9.16,20.571 -21,20.571 -12.54,0 -20.02,-9.449 -20.86,-20.571 z m 11.56,-20.3 c -3.24,-16.078 -14.8,-24.789 -31.14,-24.789 -23.27,0 -34.26,16.058 -34.96,38.328 0,21.84 14.38,37.91 34.25,37.91 25.78,0 33.68,-24.117 32.98,-41.731 h -54.55 c -0.43,-12.668 6.77,-23.949 22.7,-23.949 9.87,0 16.77,4.781 18.88,14.231 h 11.84" /><path
         id="path150"
         style="fill:#ffffff;fill-opacity:1;fill-rule:nonzero;stroke:none"
         d="m 1078.14,915.238 h -31.82 v 10.832 h 31.82 v -10.832" /></g></g></svg>