<?xml version="1.0" encoding="UTF-8" standalone="no"?>
<!-- Generator: Gravit.io -->
<svg xmlns="http://www.w3.org/2000/svg" xmlns:xlink="http://www.w3.org/1999/xlink" style="isolation:isolate" viewBox="0 0 200 200" width="200pt" height="200pt"><defs><clipPath id="_clipPath_F4cZp7AUxmnl5helOATmWquhd16E6m52"><rect width="200" height="200"/></clipPath></defs><g clip-path="url(#_clipPath_F4cZp7AUxmnl5helOATmWquhd16E6m52)"><path d=" M 0 100 C 0 44.808 44.808 0 100 0 C 155.192 0 200 44.808 200 100 C 200 155.192 155.192 200 100 200 C 44.808 200 0 155.192 0 100 Z  M 100 118.833 C 89.599 118.833 81.167 110.401 81.167 100 C 81.167 89.599 89.599 81.167 100 81.167 C 110.401 81.167 118.833 89.599 118.833 100 C 118.833 110.401 110.401 118.833 100 118.833 L 100 118.833 L 100 118.833 L 100 118.833 L 100 118.833 L 100 118.833 L 100 118.833 Z  M 136.94 69.84 C 136.94 73.585 133.904 76.62 130.16 76.62 C 126.415 76.62 123.38 73.585 123.38 69.84 C 123.38 66.096 126.415 63.06 130.16 63.06 C 133.904 63.06 136.94 66.096 136.94 69.84 L 136.94 69.84 L 136.94 69.84 Z  M 100 70.987 C 83.976 70.987 70.987 83.976 70.987 100 C 70.987 116.024 83.976 129.013 100 129.013 C 116.024 129.013 129.013 116.024 129.013 100 C 129.013 83.976 116.024 70.987 100 70.987 L 100 70.987 L 100 70.987 L 100 70.987 L 100 70.987 Z  M 100 53.68 C 115.086 53.68 116.873 53.738 122.831 54.01 C 128.34 54.261 131.331 55.181 133.322 55.955 C 135.959 56.98 137.841 58.204 139.818 60.181 C 141.796 62.159 143.02 64.041 144.045 66.678 C 144.819 68.669 145.739 71.66 145.99 77.169 C 146.262 83.127 146.32 84.914 146.32 100 C 146.32 115.086 146.262 116.873 145.99 122.831 C 145.739 128.34 144.819 131.331 144.045 133.322 C 143.02 135.959 141.796 137.841 139.818 139.819 C 137.841 141.796 135.959 143.02 133.322 144.045 C 131.331 144.819 128.34 145.739 122.831 145.99 C 116.874 146.262 115.087 146.32 100 146.32 C 84.913 146.32 83.126 146.262 77.169 145.99 C 71.66 145.739 68.669 144.819 66.678 144.045 C 64.041 143.02 62.159 141.796 60.181 139.819 C 58.204 137.841 56.98 135.959 55.955 133.322 C 55.181 131.331 54.261 128.34 54.01 122.831 C 53.738 116.873 53.68 115.086 53.68 100 C 53.68 84.914 53.738 83.127 54.01 77.169 C 54.261 71.66 55.181 68.669 55.955 66.678 C 56.98 64.041 58.204 62.159 60.181 60.182 C 62.159 58.204 64.041 56.98 66.678 55.955 C 68.669 55.181 71.66 54.261 77.169 54.01 C 83.127 53.738 84.914 53.68 100 53.68 L 100 53.68 L 100 53.68 L 100 53.68 L 100 53.68 Z  M 100 43.5 C 84.656 43.5 82.731 43.565 76.705 43.84 C 70.691 44.114 66.584 45.069 62.99 46.466 C 59.275 47.91 56.124 49.842 52.983 52.983 C 49.842 56.124 47.91 59.275 46.466 62.99 C 45.07 66.584 44.114 70.691 43.84 76.705 C 43.565 82.731 43.5 84.656 43.5 100 C 43.5 115.344 43.565 117.269 43.84 123.295 C 44.114 129.309 45.07 133.416 46.466 137.01 C 47.91 140.725 49.842 143.876 52.983 147.017 C 56.124 150.158 59.275 152.09 62.99 153.534 C 66.584 154.93 70.691 155.886 76.705 156.16 C 82.731 156.435 84.656 156.5 100 156.5 C 115.344 156.5 117.269 156.435 123.295 156.16 C 129.309 155.886 133.416 154.93 137.01 153.534 C 140.725 152.09 143.876 150.158 147.017 147.017 C 150.158 143.876 152.09 140.725 153.534 137.01 C 154.931 133.416 155.886 129.309 156.16 123.295 C 156.435 117.269 156.5 115.344 156.5 100 C 156.5 84.656 156.435 82.731 156.16 76.705 C 155.886 70.691 154.931 66.584 153.534 62.99 C 152.09 59.275 150.158 56.124 147.017 52.983 C 143.876 49.842 140.725 47.91 137.01 46.466 C 133.416 45.069 129.309 44.114 123.295 43.84 C 117.269 43.565 115.344 43.5 100 43.5 L 100 43.5 L 100 43.5 L 100 43.5 L 100 43.5 Z " fill-rule="evenodd" fill="rgb(0,0,0)"/></g></svg>