<?xml version="1.0" encoding="UTF-8" standalone="no"?><!-- Generator: Gravit.io --><svg xmlns="http://www.w3.org/2000/svg" xmlns:xlink="http://www.w3.org/1999/xlink" style="isolation:isolate" viewBox="-1010 7906.667 570 570" width="570pt" height="570pt"><circle vector-effect="non-scaling-stroke" cx="-725.0000000000009" cy="8191.666666666666" r="284.99999999999955" fill="rgb(0,0,0)"/><g><path d=" M -807.33 8348.17 L -807.33 8355.67 L -822.33 8355.67 L -822.33 8348.17 L -822.33 8024.17 L -822.33 8016.67 L -807.33 8016.67 L -807.33 8024.17 L -807.33 8348.17 Z " fill="rgb(255,255,255)"/><path d=" M -750.33 8348.17 L -750.33 8355.67 L -765.33 8355.67 L -765.33 8348.17 L -765.33 8024.17 L -765.33 8016.67 L -750.33 8016.67 L -750.33 8024.17 L -750.33 8348.17 Z " fill="rgb(255,255,255)"/><path d=" M -655.84 8348.17 L -655.84 8355.67 L -670.84 8355.67 L -670.84 8348.17 L -670.84 8024.17 L -670.84 8016.67 L -655.84 8016.67 L -655.84 8024.17 L -655.84 8348.17 Z " fill="rgb(255,255,255)"/><path d=" M -840.1 8019.67 L -847.6 8019.67 L -847.6 8004.67 L -840.1 8004.67 L -731.83 8004.67 L -724.33 8004.67 L -724.33 8019.67 L -731.83 8019.67 L -840.1 8019.67 Z " fill="rgb(255,255,255)"/><path d=" M -840.1 8355.67 L -847.6 8355.67 L -847.6 8340.67 L -840.1 8340.67 L -731.83 8340.67 L -724.33 8340.67 L -724.33 8355.67 L -731.83 8355.67 L -840.1 8355.67 Z " fill="rgb(255,255,255)"/><path d=" M -911.32 8331.47 L -917.63 8335.53 L -925.75 8322.93 L -919.45 8318.86 L -559.45 8086.86 L -553.15 8082.8 L -545.02 8095.41 L -551.32 8099.47 L -911.32 8331.47 Z " fill="rgb(255,255,255)"/><path d=" M -685.07 8019.67 L -692.57 8019.67 L -692.57 8004.67 L -685.07 8004.67 L -640.34 8004.67 L -632.84 8004.67 L -632.84 8019.67 L -640.34 8019.67 L -685.07 8019.67 Z " fill="rgb(255,255,255)"/><path d=" M -685.07 8355.67 L -692.57 8355.67 L -692.57 8340.67 L -685.07 8340.67 L -640.34 8340.67 L -632.84 8340.67 L -632.84 8355.67 L -640.34 8355.67 L -685.07 8355.67 Z " fill="rgb(255,255,255)"/><path d=" M -793.83 8182.24 L -793.83 8174.74 L -778.83 8174.74 L -778.83 8182.24 L -778.83 8193.17 L -778.83 8200.67 L -793.83 8200.67 L -793.83 8193.17 L -793.83 8182.24 Z " fill="rgb(255,255,255)"/><path d=" M -814.832 8348.167 L -814.832 8262.167 L -757.832 8222.167 L -751.73 8348.167 L -814.832 8348.167 Z " fill="rgb(255,255,255)"/></g></svg>