<?xml version="1.0" encoding="UTF-8" standalone="no"?>
<!-- Generator: Gravit.io -->
<svg xmlns="http://www.w3.org/2000/svg" xmlns:xlink="http://www.w3.org/1999/xlink" style="isolation:isolate" viewBox="0 0 570 570" width="570pt" height="570pt"><defs><clipPath id="_clipPath_OZyW56BEl3eh22Goyirvw3qoqspJGzgi"><rect width="570" height="570"/></clipPath></defs><g clip-path="url(#_clipPath_OZyW56BEl3eh22Goyirvw3qoqspJGzgi)"><path d=" M 0 285 C 0 127.704 127.704 0 285 0 C 442.296 0 570 127.704 570 285 C 570 442.295 442.296 570 285 570 C 127.704 570 0 442.295 0 285 Z  M 216.17 275.573 L 216.17 268.073 L 231.17 268.073 L 231.17 275.573 L 231.17 286.503 L 231.17 294.003 L 216.17 294.003 L 216.17 286.503 L 216.17 275.573 L 216.17 275.573 L 216.17 275.573 L 216.17 275.573 Z  M 202.67 339.938 L 202.67 117.503 L 202.67 113.003 L 244.67 113.003 L 244.67 117.503 L 244.67 312.871 L 202.67 339.938 L 202.67 339.938 L 202.67 339.938 L 202.67 339.938 L 202.67 339.938 L 202.67 339.938 L 202.67 339.938 Z  M 354.16 434.003 L 354.16 260.16 L 458.68 192.803 L 464.98 188.743 L 456.85 176.133 L 450.55 180.193 L 354.16 242.311 L 354.16 117.503 L 354.16 113.003 L 354.16 113.003 L 369.66 113.003 L 377.16 113.003 L 377.16 98.003 L 369.66 98.003 L 324.93 98.003 L 317.43 98.003 L 317.43 113.003 L 324.93 113.003 L 339.16 113.003 L 339.16 117.503 L 339.16 251.978 L 259.67 303.205 L 259.67 117.503 L 259.67 113.003 L 278.17 113.003 L 285.67 113.003 L 285.67 98.003 L 278.17 98.003 L 169.9 98.003 L 162.4 98.003 L 162.4 113.003 L 169.9 113.003 L 187.67 113.003 L 187.67 113.003 L 187.67 117.503 L 187.67 349.605 L 90.55 412.193 L 84.25 416.263 L 92.37 428.863 L 98.68 424.803 L 187.67 367.454 L 187.67 367.454 L 187.67 434.003 L 187.67 434.003 L 169.9 434.003 L 162.4 434.003 L 162.4 449.003 L 169.9 449.003 L 187.67 449.003 L 187.67 449.003 L 202.67 449.003 L 202.67 449.003 L 244.67 449.003 L 244.67 449.003 L 259.67 449.003 L 259.67 449.003 L 278.17 449.003 L 285.67 449.003 L 285.67 434.003 L 278.17 434.003 L 259.67 434.003 L 259.67 321.054 L 339.16 269.827 L 339.16 434.003 L 324.93 434.003 L 317.43 434.003 L 317.43 449.003 L 324.93 449.003 L 339.16 449.003 L 339.16 449.003 L 354.16 449.003 L 354.16 449.003 L 369.66 449.003 L 377.16 449.003 L 377.16 434.003 L 369.66 434.003 L 354.16 434.003 L 354.16 434.003 L 354.16 434.003 L 354.16 434.003 L 354.16 434.003 Z " fill-rule="evenodd" fill="rgb(0,0,0)"/></g></svg>