<?xml version="1.0" encoding="UTF-8" standalone="no"?>
<!-- Generator: Gravit.io -->
<svg xmlns="http://www.w3.org/2000/svg" xmlns:xlink="http://www.w3.org/1999/xlink" style="isolation:isolate" viewBox="0 0 162 158" width="162pt" height="158pt"><defs><clipPath id="_clipPath_qympnvzPPanbgfur4eMJwg2k4NBWsxu4"><rect width="162" height="158"/></clipPath></defs><g clip-path="url(#_clipPath_qympnvzPPanbgfur4eMJwg2k4NBWsxu4)"><clipPath id="_clipPath_fafoiSnOZ7oy5jOcoaq97tRech64ILF2"><rect x="0" y="0" width="162" height="158" transform="matrix(1,0,0,1,0,0)" fill="rgb(255,255,255)"/></clipPath><g clip-path="url(#_clipPath_fafoiSnOZ7oy5jOcoaq97tRech64ILF2)"><g><clipPath id="_clipPath_grIWTOCm6ZmWcabRQeEzGJ7aHKg0e4b5"><rect x="-385.982" y="-8.336" width="707.96" height="666.653" transform="matrix(1,0,0,1,0,0)" fill="rgb(255,255,255)"/></clipPath><g clip-path="url(#_clipPath_grIWTOCm6ZmWcabRQeEzGJ7aHKg0e4b5)"><g><g><g><path d=" M 81.497 0.244 C 37.034 0.244 0.979 36.292 0.979 80.761 C 0.979 116.336 24.05 146.517 56.042 157.164 C 60.066 157.909 61.543 155.417 61.543 153.291 C 61.543 151.371 61.469 145.028 61.434 138.3 C 39.034 143.171 34.307 128.8 34.307 128.8 C 30.645 119.493 25.367 117.019 25.367 117.019 C 18.062 112.021 25.918 112.124 25.918 112.124 C 34.003 112.691 38.261 120.423 38.261 120.423 C 45.442 132.731 57.097 129.172 61.691 127.115 C 62.414 121.911 64.501 118.357 66.803 116.348 C 48.919 114.312 30.119 107.408 30.119 76.556 C 30.119 67.765 33.265 60.583 38.415 54.944 C 37.579 52.915 34.823 44.727 39.195 33.636 C 39.195 33.636 45.957 31.472 61.343 41.889 C 67.766 40.105 74.654 39.211 81.497 39.18 C 88.339 39.211 95.233 40.105 101.667 41.889 C 117.035 31.472 123.787 33.636 123.787 33.636 C 128.17 44.727 125.413 52.915 124.577 54.944 C 129.739 60.583 132.863 67.765 132.863 76.556 C 132.863 107.481 114.027 114.291 96.098 116.284 C 98.986 118.783 101.559 123.683 101.559 131.195 C 101.559 141.968 101.466 150.639 101.466 153.291 C 101.466 155.433 102.915 157.944 106.997 157.153 C 138.971 146.495 162.013 116.324 162.013 80.761 C 162.013 36.292 125.963 0.244 81.497 0.244 Z " fill-rule="evenodd" fill="rgb(0,0,0)"/><path d=" M 31.475 115.849 C 31.298 116.251 30.669 116.369 30.095 116.095 C 29.511 115.832 29.183 115.287 29.373 114.885 C 29.546 114.475 30.177 114.36 30.759 114.633 C 31.345 114.897 31.678 115.448 31.475 115.849 L 31.475 115.849 L 31.475 115.849 Z " fill="rgb(27,24,23)"/><path d=" M 34.737 119.487 C 34.353 119.843 33.602 119.677 33.093 119.115 C 32.566 118.553 32.467 117.803 32.857 117.441 C 33.253 117.087 33.981 117.253 34.509 117.813 C 35.035 118.381 35.138 119.127 34.737 119.487 L 34.737 119.487 L 34.737 119.487 Z " fill="rgb(27,24,23)"/><path d=" M 37.911 124.124 C 37.418 124.467 36.611 124.145 36.113 123.429 C 35.619 122.713 35.619 121.855 36.123 121.511 C 36.623 121.167 37.418 121.477 37.923 122.187 C 38.415 122.915 38.415 123.773 37.911 124.124 L 37.911 124.124 L 37.911 124.124 Z " fill="rgb(27,24,23)"/><path d=" M 42.261 128.604 C 41.819 129.091 40.879 128.96 40.191 128.296 C 39.487 127.647 39.291 126.725 39.734 126.239 C 40.181 125.751 41.126 125.888 41.819 126.547 C 42.518 127.195 42.731 128.123 42.261 128.604 L 42.261 128.604 L 42.261 128.604 Z " fill="rgb(27,24,23)"/><path d=" M 48.261 131.205 C 48.066 131.836 47.161 132.123 46.249 131.855 C 45.338 131.579 44.742 130.84 44.926 130.203 C 45.115 129.568 46.025 129.269 46.943 129.556 C 47.853 129.831 48.45 130.564 48.261 131.205 L 48.261 131.205 L 48.261 131.205 Z " fill="rgb(27,24,23)"/><path d=" M 54.85 131.688 C 54.873 132.352 54.099 132.903 53.142 132.915 C 52.179 132.936 51.401 132.399 51.39 131.745 C 51.39 131.075 52.146 130.529 53.109 130.513 C 54.066 130.495 54.85 131.028 54.85 131.688 L 54.85 131.688 L 54.85 131.688 Z " fill="rgb(27,24,23)"/><path d=" M 60.982 130.644 C 61.097 131.292 60.431 131.957 59.481 132.135 C 58.546 132.305 57.681 131.905 57.562 131.263 C 57.446 130.599 58.123 129.933 59.057 129.761 C 60.009 129.596 60.861 129.985 60.982 130.644 L 60.982 130.644 L 60.982 130.644 Z " fill="rgb(27,24,23)"/></g></g></g></g></g></g></g></svg>