<?xml version="1.0" encoding="UTF-8" standalone="no"?>
<svg
   class="ionicon"
   viewBox="0 0 512 512"
   version="1.1"
   id="svg1"
   sodipodi:docname="close-dark.svg"
   xml:space="preserve"
   inkscape:version="1.3.2 (091e20ef0f, 2023-11-25)"
   xmlns:inkscape="http://www.inkscape.org/namespaces/inkscape"
   xmlns:sodipodi="http://sodipodi.sourceforge.net/DTD/sodipodi-0.dtd"
   xmlns="http://www.w3.org/2000/svg"
   xmlns:svg="http://www.w3.org/2000/svg"><defs
     id="defs1" /><sodipodi:namedview
     id="namedview1"
     pagecolor="#ffffff"
     bordercolor="#666666"
     borderopacity="1.0"
     inkscape:showpageshadow="2"
     inkscape:pageopacity="0.0"
     inkscape:pagecheckerboard="0"
     inkscape:deskcolor="#d1d1d1"
     inkscape:zoom="1.3078713"
     inkscape:cx="356.68646"
     inkscape:cy="304.31128"
     inkscape:window-width="3034"
     inkscape:window-height="2084"
     inkscape:window-x="802"
     inkscape:window-y="36"
     inkscape:window-maximized="0"
     inkscape:current-layer="svg1" /><path
     d="M 291.95058,256 413.76307,134.1875 c 9.94504,-9.92748 9.95925,-26.03731 0.0318,-35.982341 -9.92748,-9.94503 -26.03731,-9.959273 -35.98235,-0.03179 L 256,219.98587 134.1875,98.173371 c -9.94504,-9.945034 -26.06909,-9.945019 -36.014119,1e-5 -9.945029,9.945029 -9.945044,26.069079 -1e-5,36.014119 L 219.98587,256 98.173371,377.8125 c -9.945034,9.94504 -9.945019,26.06909 1e-5,36.01412 9.945029,9.94503 26.069079,9.94505 36.014119,1e-5 L 256,292.01413 377.8125,413.82663 c 9.94504,9.94504 26.06909,9.94502 36.01412,-1e-5 9.94503,-9.94503 9.94505,-26.06908 1e-5,-36.01412 z"
     id="path1"
     sodipodi:nodetypes="ccsccssscssscsscc"
     style="stroke-width:1.05924" /></svg>
