<?xml version="1.0" encoding="UTF-8" standalone="no"?>
<svg
   xmlns:dc="http://purl.org/dc/elements/1.1/"
   xmlns:cc="http://creativecommons.org/ns#"
   xmlns:rdf="http://www.w3.org/1999/02/22-rdf-syntax-ns#"
   xmlns:svg="http://www.w3.org/2000/svg"
   xmlns="http://www.w3.org/2000/svg"
   xmlns:sodipodi="http://sodipodi.sourceforge.net/DTD/sodipodi-0.dtd"
   xmlns:inkscape="http://www.inkscape.org/namespaces/inkscape"
   version="1.1"
   id="svg2"
   xml:space="preserve"
   width="904.81335"
   height="330.85333"
   viewBox="0 0 904.81335 330.85333"
   sodipodi:docname="Async_Final.eps"><metadata
     id="metadata8"><rdf:RDF><cc:Work
         rdf:about=""><dc:format>image/svg+xml</dc:format><dc:type
           rdf:resource="http://purl.org/dc/dcmitype/StillImage" /></cc:Work></rdf:RDF></metadata><defs
     id="defs6" /><sodipodi:namedview
     pagecolor="#ffffff"
     bordercolor="#666666"
     borderopacity="1"
     objecttolerance="10"
     gridtolerance="10"
     guidetolerance="10"
     inkscape:pageopacity="0"
     inkscape:pageshadow="2"
     inkscape:window-width="640"
     inkscape:window-height="480"
     id="namedview4" /><g
     id="g10"
     inkscape:groupmode="layer"
     inkscape:label="ink_ext_XXXXXX"
     transform="matrix(1.3333333,0,0,-1.3333333,0,330.85333)"><g
       id="g12"
       transform="scale(0.1)"><path
         d="m 799.75,1728.86 c 0,-50.38 -13.805,-95.98 -41.305,-136.85 -27.539,-40.9 -61.734,-72.37 -102.605,-94.37 -40.938,-22.04 -81.809,-33.03 -122.676,-33.03 -59.805,0 -104.203,10.63 -133.305,31.87 -29.105,21.23 -43.64,57.8 -43.64,109.66 0,66.08 36.57,113.65 109.707,142.75 73.14,29.1 184.375,43.64 333.824,43.64 z m 405.76,-264.25 c -18.87,0 -35.01,7.1 -48.38,21.23 -13.36,14.17 -20.03,35.4 -20.03,63.7 v 556.77 c 0,116.37 -44.07,207.98 -132.11,274.82 -88.107,66.83 -217.041,100.27 -386.92,100.27 h -49.535 c -103.808,0 -195.816,-14.97 -276.019,-44.84 -80.203,-29.86 -142.707,-71.57 -187.547,-125 -44.8323,-53.51 -67.2346,-114.08 -67.2346,-181.68 0,-9.43 1.5664,-23.57 4.7344,-42.44 H 375.09 v 18.87 c 0,18.87 8.265,39.3 24.769,61.34 16.532,22 40.461,40.47 71.973,55.43 31.43,14.94 69.164,22.4 113.234,22.4 75.469,0 130.11,-16.5 163.946,-49.53 33.801,-33.04 50.738,-76.31 50.738,-129.74 v -80.24 c -179.316,0 -325.551,-10.24 -438.793,-30.67 C 247.715,1934.86 159.242,1895.16 95.5352,1836.19 31.8359,1777.19 0,1691.85 0,1580.21 c 0,-136.84 38.5,-229.65 115.609,-278.38 77.032,-48.77 175.344,-73.14 294.883,-73.14 160.41,0 295.649,67.6 405.758,202.91 7.867,-64.54 34.566,-114.44 80.203,-149.81 45.602,-35.4 111.677,-53.1 198.177,-53.1 80.21,0 149.41,16.54 207.62,49.53 v 212.35 c -11.04,-4.73 -25.97,-10.27 -44.84,-16.53 -18.87,-6.3 -36.2,-9.43 -51.9,-9.43"
         style="fill:#231f20;fill-opacity:1;fill-rule:nonzero;stroke:none"
         id="path14" /><path
         d="m 2261.2,1956.5 c -65.27,19.64 -150.61,38.1 -255.95,55.44 -92.8,14.17 -160.84,29.06 -204.07,44.83 -43.28,15.7 -64.88,43.24 -64.88,82.54 0,33.03 20.07,59.01 60.17,77.87 40.11,18.87 93.18,28.3 159.25,28.3 144.68,0 217.01,-47.16 217.01,-141.54 h 301.99 c 0,1.54 0.76,7.44 2.36,17.71 1.53,10.19 2.37,21.59 2.37,34.2 0,62.86 -22.83,119.14 -68.44,168.67 -45.63,49.54 -105.77,88.07 -180.48,115.61 -74.7,27.5 -153.74,41.27 -237.08,41.27 h -47.17 c -94.37,0 -181.31,-14.57 -260.71,-43.63 -79.41,-29.14 -143.11,-72.38 -191.08,-129.75 -48.01,-57.44 -71.94,-127.04 -71.94,-208.81 0,-89.64 23.17,-159.64 69.57,-209.94 46.37,-50.38 101.84,-85.75 166.35,-106.18 64.47,-20.43 147.04,-39.34 247.68,-56.61 95.93,-14.16 166.71,-30.66 212.35,-49.53 45.6,-18.9 68.4,-50.37 68.4,-94.37 0,-40.94 -24.77,-70.77 -74.31,-89.64 -49.53,-18.9 -105.8,-28.33 -168.67,-28.33 -72.38,0 -132.95,12.16 -181.64,36.57 -48.77,24.36 -73.14,64.06 -73.14,119.13 v 16.5 h -301.99 l -2.37,-47.17 c 0,-70.76 21.6,-133.71 64.87,-188.71 43.27,-55.07 103.41,-97.53 180.48,-127.4 77.07,-29.87 164.34,-44.84 261.89,-44.84 h 77.83 c 155.71,0 283.89,31.87 384.56,95.54 100.64,63.7 150.98,167.11 150.98,310.25 0,92.77 -24.41,164.71 -73.14,215.85 -48.77,51.1 -105.78,86.47 -171.05,106.17"
         style="fill:#231f20;fill-opacity:1;fill-rule:nonzero;stroke:none"
         id="path16" /><path
         d="m 2684.66,1089.52 v -16.48 l 4.71,14.81 c -1.43,0.56 -3.34,1.09 -4.71,1.67"
         style="fill:#231f20;fill-opacity:1;fill-rule:nonzero;stroke:none"
         id="path18" /><path
         d="m 2602.09,2457.8 286.51,-743.78 161.88,508.75 -82.74,235.03 h -365.65"
         style="fill:#231f20;fill-opacity:1;fill-rule:nonzero;stroke:none"
         id="path20" /><path
         d="m 2628.15,245.34 c -26.77,0 -55.05,3.531 -84.93,10.601 -29.88,7.071 -54.28,14.571 -73.12,22.43 V 35.3906 C 2521.97,11.7617 2589.6,0 2672.98,0 c 119.51,0 221.77,45.2188 306.7,135.621 84.93,90.449 156.45,214.309 214.65,371.578 L 3623.72,1646.67 H 3284 L 3033.91,889.379 h -14.14 L 2807.75,1491.62 2644.68,979.102 2842.84,464.73 C 2800.38,318.461 2728.77,245.34 2628.15,245.34"
         style="fill:#231f20;fill-opacity:1;fill-rule:nonzero;stroke:none"
         id="path22" /><path
         d="m 4776.12,1571.18 c -79.41,66.05 -180.46,99.08 -303.11,99.08 -157.32,0 -285.48,-66.87 -384.55,-200.52 l -37.77,176.93 H 3793.57 V 441.148 h 344.42 v 740.742 c 0,66.09 22.03,122.31 66.04,168.69 44.03,46.39 96.75,69.59 158.09,69.59 55.02,0 100.24,-20.05 135.63,-60.14 35.4,-40.1 53.07,-90.84 53.07,-152.18 V 441.148 h 344.46 v 842.232 c 0,125.8 -39.74,221.71 -119.16,287.8"
         style="fill:#231f20;fill-opacity:1;fill-rule:nonzero;stroke:none"
         id="path24" /><path
         d="m 5523.43,1350.58 c 40.87,55.83 96.7,83.77 167.49,83.77 70.78,0 124.2,-24.4 160.41,-73.16 36.17,-48.76 54.28,-114.03 54.28,-195.81 h 342.05 c 0,103.81 -23.97,193.83 -71.96,270.13 -47.98,76.27 -111.66,134.47 -191.07,174.6 -79.45,40.1 -165.54,60.15 -258.32,60.15 h -37.77 c -111.69,0 -210.77,-23.59 -297.24,-70.8 -86.53,-47.16 -154.51,-115.23 -204.04,-204.04 -49.55,-88.89 -74.34,-194.65 -74.34,-317.3 v -68.42 c 0,-185.591 51.91,-330.7 155.72,-435.251 103.77,-104.629 243.75,-156.879 419.9,-156.879 h 37.77 c 94.37,0 180.85,18.059 259.49,54.231 78.63,36.179 141.92,92.008 189.9,167.488 47.99,75.531 71.96,169.09 71.96,280.75 h -325.54 c 0,-88.078 -20.86,-154.519 -62.51,-199.348 -41.69,-44.793 -98.73,-67.222 -171.07,-67.222 -69.23,0 -124.24,26.301 -165.11,79.031 -40.91,52.68 -61.35,118.34 -61.35,196.98 v 209.95 c 0,84.92 20.44,155.33 61.35,211.15"
         style="fill:#231f20;fill-opacity:1;fill-rule:nonzero;stroke:none"
         id="path26" /><path
         d="m 6441.73,441.148 h 344.41 V 787.941 H 6441.73 V 441.148"
         style="fill:#231f20;fill-opacity:1;fill-rule:nonzero;stroke:none"
         id="path28" /></g></g></svg>
