<?xml version="1.0" standalone="no"?>
<!DOCTYPE svg PUBLIC "-//W3C//DTD SVG 20010904//EN"
 "http://www.w3.org/TR/2001/REC-SVG-20010904/DTD/svg10.dtd">
<svg version="1.0" xmlns="http://www.w3.org/2000/svg"
 width="352.000000pt" height="352.000000pt" viewBox="0 0 352.000000 352.000000"
 preserveAspectRatio="xMidYMid meet">
<metadata>
Created by potrace 1.11, written by Peter Selinger 2001-2013
</metadata>
<g transform="translate(0.000000,352.000000) scale(0.100000,-0.100000)"
fill="#000000" stroke="none">
<path d="M676 3510 c-2 -5 0 -112 3 -135 1 -6 49 -9 126 -9 l125 2 0 -1188 0
-1187 -294 -190 -295 -190 36 -54 c49 -74 48 -73 80 -51 30 22 372 242 436
281 l37 23 0 -329 0 -328 -125 1 c-69 1 -125 -2 -126 -5 -6 -40 -2 -141 6
-144 5 -1 282 -2 615 -2 l605 1 3 75 3 76 -128 -1 -128 0 -3 560 -2 560 82 53
c197 127 265 170 476 307 123 79 227 144 230 144 4 0 7 -364 7 -810 0 -713 -2
-810 -15 -811 -8 -1 -57 -2 -109 -3 l-95 -1 1 -62 c1 -35 2 -69 2 -75 1 -10
67 -13 293 -13 161 0 295 3 298 7 5 6 5 116 1 139 -1 3 -49 6 -107 5 -60 -1
-109 3 -113 9 -12 15 -8 1713 4 1723 6 5 132 87 280 182 149 95 275 177 282
182 9 7 1 26 -29 72 l-41 62 -91 -60 c-249 -162 -397 -256 -404 -256 -4 0 -7
292 -7 648 l0 648 92 1 c51 1 103 2 116 2 22 1 23 5 23 74 l-1 73 -299 0 -299
-1 -1 -75 -1 -75 110 0 110 0 0 -694 c0 -448 -4 -698 -10 -706 -5 -7 -44 -34
-85 -61 -471 -303 -692 -444 -696 -444 -2 0 -4 429 -4 953 l0 954 128 -1 127
0 3 75 3 75 -616 0 c-339 0 -617 -3 -619 -6z m824 -1147 l0 -1004 -102 -66
c-57 -36 -146 -94 -198 -128 -52 -33 -101 -65 -107 -69 -10 -6 -13 223 -13
1132 l0 1138 210 0 210 0 0 -1003z"/>
<path d="M1216 1810 c-2 -3 -3 -61 -2 -130 l1 -125 65 2 c36 0 70 1 75 2 10 1
15 250 5 252 -19 4 -142 4 -144 -1z"/>
</g>
</svg>
