<svg height="352pt" preserveAspectRatio="xMidYMid meet" viewBox="0 0 352 352" width="352pt" xmlns="http://www.w3.org/2000/svg"><g transform="matrix(.1 0 0 -.1 0 352)"><path d="m676 3510c-2-5 0-112 3-135 1-6 49-9 126-9l125 2v-1188-1187l-294-190-295-190 36-54c49-74 48-73 80-51 30 22 372 242 436 281l37 23v-329-328l-125 1c-69 1-125-2-126-5-6-40-2-141 6-144 5-1 282-2 615-2l605 1 3 75 3 76-128-1h-128l-3 560-2 560 82 53c197 127 265 170 476 307 123 79 227 144 230 144 4 0 7-364 7-810 0-713-2-810-15-811-8-1-57-2-109-3l-95-1 1-62c1-35 2-69 2-75 1-10 67-13 293-13 161 0 295 3 298 7 5 6 5 116 1 139-1 3-49 6-107 5-60-1-109 3-113 9-12 15-8 1713 4 1723 6 5 132 87 280 182 149 95 275 177 282 182 9 7 1 26-29 72l-41 62-91-60c-249-162-397-256-404-256-4 0-7 292-7 648v648l92 1c51 1 103 2 116 2 22 1 23 5 23 74l-1 73h-299l-299-1-1-75-1-75h110 110v-694c0-448-4-698-10-706-5-7-44-34-85-61-471-303-692-444-696-444-2 0-4 429-4 953v954l128-1h127l3 75 3 75h-616c-339 0-617-3-619-6zm824-1147v-1004l-102-66c-57-36-146-94-198-128-52-33-101-65-107-69-10-6-13 223-13 1132v1138h210 210z"/><path d="m1216 1810c-2-3-3-61-2-130l1-125 65 2c36 0 70 1 75 2 10 1 15 250 5 252-19 4-142 4-144-1z"/></g></svg>