<?xml version="1.0" standalone="no"?>
<!DOCTYPE svg PUBLIC "-//W3C//DTD SVG 20010904//EN"
 "http://www.w3.org/TR/2001/REC-SVG-20010904/DTD/svg10.dtd">
<svg version="1.0" xmlns="http://www.w3.org/2000/svg"
 width="570.000000pt" height="570.000000pt" viewBox="0 0 570.000000 570.000000"
 preserveAspectRatio="xMidYMid meet">
<metadata>
Created by potrace 1.11, written by Peter Selinger 2001-2013
</metadata>
<g transform="translate(0.000000,570.000000) scale(0.100000,-0.100000)"
fill="#000000" stroke="none">
<path d="M2595 5689 c-562 -53 -1095 -269 -1535 -622 -99 -80 -294 -271 -385
-377 -431 -505 -675 -1171 -675 -1840 0 -669 244 -1335 675 -1840 91 -106 286
-297 385 -377 509 -409 1143 -633 1790 -633 647 0 1281 224 1790 633 99 80
294 271 385 377 431 505 675 1171 675 1840 0 647 -224 1281 -633 1790 -80 99
-271 294 -377 385 -512 436 -1184 680 -1860 674 -80 -1 -185 -5 -235 -10z
m265 -1044 l0 -75 -130 0 -130 0 0 -950 0 -950 78 50 c42 27 219 141 392 253
l315 203 3 697 2 697 -110 0 -110 0 0 75 0 75 300 0 300 0 0 -75 0 -75 -115 0
-115 0 0 -646 c0 -513 3 -644 13 -638 11 6 350 224 844 542 l171 110 24 -36
c14 -20 32 -49 42 -63 l16 -26 -555 -358 -555 -357 0 -869 0 -869 115 0 115 0
0 -75 0 -75 -300 0 -300 0 0 75 0 75 110 0 110 0 0 820 0 820 -47 -30 c-27
-16 -203 -130 -393 -252 l-345 -223 -3 -568 -2 -567 130 0 130 0 0 -75 0 -75
-620 0 -620 0 0 75 0 75 130 0 130 0 0 330 c0 182 -3 330 -6 330 -3 0 -195
-122 -427 -271 -231 -149 -444 -286 -472 -305 l-52 -33 -40 63 -41 64 487 312
c267 172 501 324 519 337 l32 24 0 1180 0 1179 -130 0 -130 0 0 75 0 75 620 0
620 0 0 -75z"/>
<path d="M2030 3440 c0 -621 3 -1130 6 -1130 3 0 97 59 210 132 l204 131 0
999 0 998 -210 0 -210 0 0 -1130z m280 -550 l0 -130 -75 0 -75 0 0 130 0 130
75 0 75 0 0 -130z"/>
</g>
</svg>
